<mxfile host="app.diagrams.net" modified="2022-11-28T02:11:19.558Z" agent="5.0 (Windows NT 10.0; Win64; x64) AppleWebKit/537.36 (KHTML, like Gecko) Chrome/107.0.0.0 Safari/537.36" version="20.6.0" etag="UDqdBTrxK6zrwGvajIke" type="github">
  <diagram id="ZsKYVKCZsxW13D_Cj-jd" name="第 1 页">
    <mxGraphModel dx="1438" dy="642" grid="0" gridSize="10" guides="1" tooltips="1" connect="1" arrows="1" fold="1" page="0" pageScale="1" pageWidth="827" pageHeight="1169" math="0" shadow="0">
      <root>
        <mxCell id="0" />
        <mxCell id="1" parent="0" />
        <mxCell id="xUJV_SYP3wIa0_mYyU-m-15" value="" style="rounded=0;whiteSpace=wrap;html=1;comic=1;sketch=0;fontFamily=Comic Sans MS;fontSize=12;fillColor=none;fontColor=#333333;strokeColor=#666666;" vertex="1" parent="1">
          <mxGeometry x="116" y="359" width="418" height="195" as="geometry" />
        </mxCell>
        <mxCell id="xUJV_SYP3wIa0_mYyU-m-14" value="" style="rounded=0;whiteSpace=wrap;html=1;comic=1;sketch=0;fontFamily=Comic Sans MS;fontSize=12;fillColor=none;fontColor=#333333;strokeColor=#666666;" vertex="1" parent="1">
          <mxGeometry x="116" y="238.5" width="418" height="94" as="geometry" />
        </mxCell>
        <mxCell id="xUJV_SYP3wIa0_mYyU-m-13" value="" style="rounded=0;whiteSpace=wrap;html=1;comic=1;sketch=0;fontFamily=Comic Sans MS;fontSize=12;fillColor=none;fontColor=#333333;strokeColor=#666666;" vertex="1" parent="1">
          <mxGeometry x="116" y="122" width="418" height="94" as="geometry" />
        </mxCell>
        <mxCell id="xUJV_SYP3wIa0_mYyU-m-1" value="&lt;font face=&quot;Comic Sans MS&quot;&gt;View&lt;/font&gt;" style="rounded=0;whiteSpace=wrap;html=1;sketch=0;treeFolding=0;comic=1;fillColor=#e1d5e7;strokeColor=#9673a6;" vertex="1" parent="1">
          <mxGeometry x="135" y="139" width="179" height="63" as="geometry" />
        </mxCell>
        <mxCell id="xUJV_SYP3wIa0_mYyU-m-4" value="&lt;font face=&quot;Comic Sans MS&quot;&gt;DataBinding&lt;/font&gt;" style="rounded=0;whiteSpace=wrap;html=1;sketch=0;treeFolding=0;comic=1;fillColor=#e1d5e7;strokeColor=#9673a6;" vertex="1" parent="1">
          <mxGeometry x="334" y="139" width="179" height="63" as="geometry" />
        </mxCell>
        <mxCell id="xUJV_SYP3wIa0_mYyU-m-5" value="&lt;font face=&quot;Comic Sans MS&quot;&gt;ViewModel&lt;br&gt;&lt;/font&gt;" style="rounded=0;whiteSpace=wrap;html=1;sketch=0;treeFolding=0;comic=1;fillColor=#f8cecc;strokeColor=#b85450;" vertex="1" parent="1">
          <mxGeometry x="135" y="254" width="179" height="63" as="geometry" />
        </mxCell>
        <mxCell id="xUJV_SYP3wIa0_mYyU-m-6" value="&lt;font face=&quot;Comic Sans MS&quot;&gt;LiveData&lt;/font&gt;" style="rounded=0;whiteSpace=wrap;html=1;sketch=0;treeFolding=0;comic=1;fillColor=#f8cecc;strokeColor=#b85450;" vertex="1" parent="1">
          <mxGeometry x="334" y="254" width="179" height="63" as="geometry" />
        </mxCell>
        <mxCell id="xUJV_SYP3wIa0_mYyU-m-7" value="&lt;font face=&quot;Comic Sans MS&quot;&gt;repository&lt;br&gt;&lt;/font&gt;" style="rounded=0;whiteSpace=wrap;html=1;sketch=0;treeFolding=0;comic=1;fillColor=#fff2cc;strokeColor=#d6b656;" vertex="1" parent="1">
          <mxGeometry x="135" y="380" width="378" height="63" as="geometry" />
        </mxCell>
        <mxCell id="xUJV_SYP3wIa0_mYyU-m-11" value="&lt;font face=&quot;Comic Sans MS&quot;&gt;dataSource&lt;br&gt;&lt;/font&gt;" style="rounded=0;whiteSpace=wrap;html=1;sketch=0;treeFolding=0;comic=1;fillColor=#ffe6cc;strokeColor=#d79b00;" vertex="1" parent="1">
          <mxGeometry x="136" y="468" width="378" height="63" as="geometry" />
        </mxCell>
        <mxCell id="xUJV_SYP3wIa0_mYyU-m-16" value="View层" style="text;html=1;strokeColor=none;fillColor=none;align=center;verticalAlign=middle;whiteSpace=wrap;rounded=0;comic=1;sketch=0;fontFamily=Comic Sans MS;fontSize=15;fontStyle=1" vertex="1" parent="1">
          <mxGeometry x="-3" y="159" width="60" height="30" as="geometry" />
        </mxCell>
        <mxCell id="xUJV_SYP3wIa0_mYyU-m-17" value="ViewModel层" style="text;html=1;strokeColor=none;fillColor=none;align=center;verticalAlign=middle;whiteSpace=wrap;rounded=0;comic=1;sketch=0;fontFamily=Comic Sans MS;fontSize=15;fontStyle=1" vertex="1" parent="1">
          <mxGeometry x="-11" y="270.5" width="94" height="30" as="geometry" />
        </mxCell>
        <mxCell id="xUJV_SYP3wIa0_mYyU-m-18" value="Model层" style="text;html=1;strokeColor=none;fillColor=none;align=center;verticalAlign=middle;whiteSpace=wrap;rounded=0;comic=1;sketch=0;fontFamily=Comic Sans MS;fontSize=15;fontStyle=1" vertex="1" parent="1">
          <mxGeometry x="-11" y="441.5" width="94" height="30" as="geometry" />
        </mxCell>
        <mxCell id="xUJV_SYP3wIa0_mYyU-m-19" value="View层" style="text;html=1;strokeColor=none;fillColor=none;align=center;verticalAlign=middle;whiteSpace=wrap;rounded=0;comic=1;sketch=0;fontFamily=Comic Sans MS;fontSize=15;fontStyle=1" vertex="1" parent="1">
          <mxGeometry x="-55" y="661" width="60" height="30" as="geometry" />
        </mxCell>
        <mxCell id="xUJV_SYP3wIa0_mYyU-m-20" value="ViewModel层" style="text;html=1;strokeColor=none;fillColor=none;align=center;verticalAlign=middle;whiteSpace=wrap;rounded=0;comic=1;sketch=0;fontFamily=Comic Sans MS;fontSize=15;fontStyle=1" vertex="1" parent="1">
          <mxGeometry x="262" y="661" width="94" height="30" as="geometry" />
        </mxCell>
        <mxCell id="xUJV_SYP3wIa0_mYyU-m-21" value="Model层" style="text;html=1;strokeColor=none;fillColor=none;align=center;verticalAlign=middle;whiteSpace=wrap;rounded=0;comic=1;sketch=0;fontFamily=Comic Sans MS;fontSize=15;fontStyle=1" vertex="1" parent="1">
          <mxGeometry x="630" y="661" width="94" height="30" as="geometry" />
        </mxCell>
        <mxCell id="xUJV_SYP3wIa0_mYyU-m-23" value="&lt;ol&gt;&lt;li&gt;&lt;font color=&quot;#97d077&quot;&gt;别让 ViewModels（和 Presenters）知道任何关于 Android 框架的类。&lt;/font&gt;&lt;/li&gt;&lt;li&gt;&lt;font color=&quot;#f19c99&quot;&gt;避免在 ViewModels 中引用 Views&lt;/font&gt;&lt;/li&gt;&lt;li&gt;&lt;font color=&quot;#97d077&quot;&gt;ViewModel过于臃肿时，分散职责，增加领域层&lt;/font&gt;&lt;/li&gt;&lt;li&gt;&lt;font color=&quot;#97d077&quot;&gt;理想情况下，ViewModels 应该在没有任何 Views 观察它们时回收&lt;br&gt;&lt;/font&gt;&lt;/li&gt;&lt;/ol&gt;" style="text;strokeColor=none;fillColor=none;html=1;whiteSpace=wrap;verticalAlign=top;overflow=hidden;comic=1;sketch=0;fontFamily=Comic Sans MS;fontSize=15;" vertex="1" parent="1">
          <mxGeometry x="178" y="723" width="341" height="263" as="geometry" />
        </mxCell>
        <mxCell id="xUJV_SYP3wIa0_mYyU-m-24" value="&lt;ol&gt;&lt;li&gt;&lt;font color=&quot;#97d077&quot;&gt;在 Activities 和 Fragments 中保持最小化的逻辑。&lt;/font&gt;&lt;/li&gt;&lt;li&gt;&lt;font color=&quot;#97d077&quot;&gt;在 UI 中注册数据推送，让 UI 观察它的改变。&lt;/font&gt;&lt;/li&gt;&lt;li&gt;&lt;font color=&quot;#97d077&quot;&gt;onSaveInstanceState()恢复UI状态。&lt;/font&gt;&lt;/li&gt;&lt;li&gt;&lt;font color=&quot;#97d077&quot;&gt;&lt;br&gt;&lt;/font&gt;&lt;/li&gt;&lt;/ol&gt;" style="text;strokeColor=none;fillColor=none;html=1;whiteSpace=wrap;verticalAlign=top;overflow=hidden;comic=1;sketch=0;fontFamily=Comic Sans MS;fontSize=15;" vertex="1" parent="1">
          <mxGeometry x="-157" y="730" width="341" height="263" as="geometry" />
        </mxCell>
        <mxCell id="xUJV_SYP3wIa0_mYyU-m-25" value="&lt;ol&gt;&lt;li&gt;&lt;font color=&quot;#97d077&quot;&gt;添加一个数据仓库作为访问数据的单一入口。&lt;/font&gt;&lt;/li&gt;&lt;li&gt;&lt;font color=&quot;#97d077&quot;&gt;在 UI 中注册数据推送，让 UI 观察它的改变。&lt;/font&gt;&lt;/li&gt;&lt;li&gt;&lt;font color=&quot;#97d077&quot;&gt;使用一些包裹类或另一个 LiveData 来暴露你数据的信息，例如&amp;nbsp;Resource和NetworkBoundResource类。&lt;/font&gt;&lt;/li&gt;&lt;li&gt;&lt;br&gt;&lt;/li&gt;&lt;/ol&gt;" style="text;strokeColor=none;fillColor=none;html=1;whiteSpace=wrap;verticalAlign=top;overflow=hidden;comic=1;sketch=0;fontFamily=Comic Sans MS;fontSize=15;" vertex="1" parent="1">
          <mxGeometry x="517" y="723" width="341" height="263" as="geometry" />
        </mxCell>
        <mxCell id="xUJV_SYP3wIa0_mYyU-m-26" value="参考：https://zhuanlan.zhihu.com/p/33206893" style="text;html=1;strokeColor=none;fillColor=none;align=left;verticalAlign=middle;whiteSpace=wrap;rounded=0;comic=1;sketch=0;fontFamily=Comic Sans MS;fontSize=15;fontColor=#97D077;" vertex="1" parent="1">
          <mxGeometry x="-147" y="595" width="386" height="30" as="geometry" />
        </mxCell>
        <mxCell id="xUJV_SYP3wIa0_mYyU-m-28" value="" style="shape=image;verticalLabelPosition=bottom;labelBackgroundColor=default;verticalAlign=top;aspect=fixed;imageAspect=0;image=data:image/png,iVBORw0KGgoAAAANSUhEUgAABZ4AAAHKCAYAAACDul5sAAAgAElEQVR4nOzdWZNd133e/+9ae+8zn54HNIbGTIKkJJCUbEqUbJVctpOU40pZqUpeQ3KVN5UL3+VCqSSS/pGsaKAtyZLAAQCJoTE0eh5On3kPa/0v1unGRFIk0RAI8vlUgRQaffZeax8KBTz962cZ771HREREREREREREROSQ2Ge9ABERERERERERERH5YlHwLCIiIiIiIiIiIiKHSsGziIiIiIiIiIiIiBwqBc8iIiIiIiIiIiIicqgUPIuIiIiIiIiIiIjIoVLwLCIiIiIiIiIiIiKHSsGziIiIiIiIiIiIiBwqBc8iIiIiIiIiIiIicqgUPIuIiIiIiIiIiIjIoVLwLCIiIiIiIiIiIiKHSsGziIiIiIiIiIiIiBwqBc8iIiIiIiIiIiIicqgUPIuIiIiIiIiIiIjIoVLwLCIiIiIiIiIiIiKHSsGziIiIiIiIiIiIiBwqBc8iIiIiIiIiIiIicqgUPIuIiIiIiIiIiIjIoYqf9QJEREREROSLYTB0/Oa9NoPU8Y2Xm0w09dcNEZEvi629gv/v932u3cvopQ7n/LNekshzq5xYGhXLX79W5eKZ8rNezmemPwmKiIiIiMihKJxnfTuj2y8Ypu5ZL0dEREREniFVbYiIiIiIyKHIc8/1O32u3OzTGyh4FhEREfkyU/AsIiIiIiKHpnCQF/r2ahEREZEvOwXPIiIiIiIiIiIiInKoFDyLiIiIiIiIiIiIyKHS4YIiIiIiIiIiIiJfUNaAtYbIgjHhY86FQ4GdB3+IDVnGQBIZ7GjU1Y+unzuP0/EPXzoKnkVERERERERERL6g4shQSgy1siGJQ/I8SD39oSfN/aGezRBZw1jNUi6F+xQOstzTHTgGqc6A+LJR8CwiIiIiIiIiIs+9yEK1bKkkhlJsMAach72eo586vIMvY/RZLRumxiKOT8c0q2EUeb1VcG8rZ7frDjV4LieG00cSZscjAPqppzNwLK1lDNLi0O4jzwcFzyIiIiIiIiIi8txL4hCwTjUs4zWLMYa88Nxcy8hansz7L2Xy3Khajk3HXDxT5shEiAKv3ktJc88g8/QGh3evSsnw8mKJ80dLAOz2CjZaBa2uY2NXwfOXjYJnERERERERERF57sWRYbphOTEbMz8RE1nDMHPsdh07bUdu/KH2GT83TOheDl3P4UPWjD7+FG738H0MxphDv08ShS8y1MqhuzovIM09ra6jO1CZ9OeFgmcREREREREREXnuxRGM1yzzEzEnZmPiyNAfeq7czbAWQvz5ZUyev3jiGI5MRsyNRySxYZB52gNHXmR0D3GCW56MgmcRERERERERERF5biSRYWEq5tR8TCWxdIeOrXbB5m4BqNLj80LBs4iIiIiIiIiIyMewFmJrRpPT4dDCwvGpD+YzBiJriKP7H8sLKNwnrwGJo7COyIT5be8hd+A+xTWelLVhH5EN93cu7OGziKJwnQf3U7iPfybWQqNimGpG1EqWUt+QFVBKPr7UwwDmgbVDuGfxKd8D+WQUPIuIiIiIiIiIiHyMUmyolizlJASWaeHpp55u/5OHlcaEkLVaMtQrofvYOegMHMMUisL/0SIQY6CcGColQzkxeEL43R14Bml49dMOT40JE8eVkqFWsRQFDFLPIP303crGQOVD9tMbhOcLh7sfY0drL1tq5RBSFy48v2Gq8PmwKXgWERERERERERF5gB0FvGN1y8xYxHgtolE1B9PGeQGDzNPrO7Y7BdvtcKjdMHs8tdw/CG+yYZmoW2oVS6VkDian+6mn03fsdhzb7YKdTvFQ+FmKDdWyYbIZMd2MqFdCCJ5Eo2ldB72ho9N3bLQKdruO3sBRHPIZe8bAVDNiZrSXRjUE8c5Dlnu22gUGqJXtx14niUPQPDXaT6P6+H76qaPbd2zuOXY6BZ2BoxQZGjXL7HjE0amYuYmYJDIHYfxk3fLyiRJjVctOp2Cn49jtFAf3nBmPmGpENGuWajkE3fj770F34Gh1wvu5tVcogD4ECp5FREREREREREQeEFlDo2o5OZfwtdNlZsdCYPmgLA9TuR/cy7hyJ+XeVk6aFQ9NLVsL5ZLh5FzM+WMlFmdjamVDZMO0bQhaPTsdx+31nCt3U1q9AufuT/pWSoaZ8ZgLx0u8eDyhUbVUHqmUGGaeVs9xaWnI9XsZaeY/c/XFhzEm7OXoVMzLJ0ssziZMNh5+Hrc3clrd4rHn9KhyYphuRrx0osRLi6UP3U+We9p9x7u3Uz64lzLc8NSrlqMzMa+fKXP+aOmhz6+WDNVSxOx4xEsnHFfuprx/N6Pdc6GWo2Z54ViJc0cTjkzEVEr37+cJNSWtXngPrt5N2e0WFMXTnx7/olPwLCIiIiIiIiIiMlJODBMNyysny5yaS5huRpRL+7UMIYyMRj3BlRIszsZUS2GK99Y6tLqOLA+J5cJUzOJcwtkjCUcmIypJqNh4MBS2xtCoWBZnY5zzGODeVghxa2XLidmYr5wsMzcRUa9YrAnVFr3UE1uolsMUdrNqefFoiXJsyAvP1l5xUL/xpMZrliNTMWcWEo5Pxwc1FTDquy48E3VLvWIeCnUfZG0I0Y/NxHztVJn5B/eTefpDj7UhRLYG6mXL2YWEJDJkebiPK0LI3k8dSWSJbAjFvQfnPXkRppfTPPzcWjg+k/Di8YSj0zHTjYg4CtfoDT2RhSQOvdm1suX4TExeeLLcs7pTsN3WQYVPQsGziIiIiIiIiIjISL1imZ+MObeQcHwmJrKGYR6mkoeZpyg8pVEvca1sQhVH3TLIPGnmGQwzisJjrWFhMkwqH5kMIWuWe7o9R28YejAiC41KqKyYGY/wHowxdAfhc8YblqPTYVq6WgodyK2uo9UtaPUcpTiE5GNVS70SglNjYGW7GPUuP3lwaoCxesS5hRInZmOmx8I698PbYRaC2soofLcfcb5fbA3NquXoVMyLx0pUy2E/7Z6j1XPsdgviyDBRs4zVQpXH0amwn9XdnJ2Oo596tvYcjUrBVDOE0zaC3HnS3NPqOrb2CnY7BcM8VGwsTEW8vFimVjHE1jBIPa1uwWbbHQT3082IRiXUquSFJxt1eCt4fjIKnkVEREREREREREbmJyPOHkkYq1msDeHova2cq8spO23HIHXUKpaTo0nkajmEqidm4jApu5tT+DBBOzcZcXQqopwYhqlnY69gaS3j2r0MY6BeMbx0osSxmZjxWsRYzbI4F3N91bLTMcxPxMyMhSldYyDNPJdvp1xbSekOHOWSZbJh+crJMueP2nBYX8mwMBnR6Yeu4idhAGMNYzXLyfmYiXoIndPcs7Zb8PbS8GCyenY8YmE65oWjCVPN6LFrJfH9/USj/eS554N7KddXMnY7jiiC8VrEV0+XuHA81GmUk/C6bj/j1nrGXrfg7kbEN16osDgbU7aWYRa+MPD20pCbKxn91GMMjNUiJhoRjYohigy9YajTWFrPuLWWAeELDd84X+b0fEI5sTQqluPTMbfW8id6dqLgWUREREREREREBLh/gN7R6Zhq2eJcqLVY2y24di+j1XUMU0e1bMHD7HjE3HhMs24YHx1E2KiEjuOJumW8FiaRAfb6Bfe2c5bWMm6uZmCgUTHhWsZQFGEC2jlPeIWhn3rWdgq8T4msIc0911cz7m7mZLmnlDi6A8vJ2eRgD0kUJourpY/vWv4krIVSYmhUDJONUBXiPLT7jtXtnJurGZt7BWnm2es50txzfDpmqvn4tZz3DFLPRqvg6t2wn6zwXF/JuLOZ0x84rDW0e55T8/cjy9gaGmVDHEF34Oj0Q/D90sBReMBzULGx0SpY3gqBcaUUDoPcbBW8vxxC5t7Qsbyds7pdsL4b+rjrFU+770cT0p7y6ODDR3un5dNT8CwiIiIiIiIiIl96xjCakrVMj0WUIsMg82x3CjZ2w4/CebyH3sCxuVewtJaTxIaxuiWJDNWyoVmzJDFMjUUhVB7pDz13NjI2WgVu1PHcT+H2ekZeeIZpTCkO/c/9NFRY3FhJWVoNfdLGhIPwvA//LicWa0Mwnhf+oX3EUQixn1RkDfWKoVaxxFEIotMsBLwr2znt/v0+61a3IIn5yF7pQepZWsu4u5k9th8MJHGY2M6d58FzEQ3hvh9V4fFRhplns1Ww1y1499YQuH8/Y6A8CubLiaFw4UBDT6jjiMohtJYno+BZRERERERERES+9CJrSGIox4ZSHILRLPd0+qFv+cFw1/kQwLYHofcZRoGvDb3PcRR6l8vx/fCycNAbhh7o/SvlhWe36yhcTrsXOoedh829giz3FM5TSQy1imGiETFRt1RKllIcupTN6PILUw9HfOaQMlNroVY2lBNzcE3noTt0dIaOoghB/P7+8gK8//Dgeb+iw44mmCf391N+fD9Hp548svQeCu8pvKFkYGYs1G7UK+H93Q+W48hwbDoOhzSasE/D4T3DLzMFzyIiIiIiIiIi8qUX2TBFHMf3D8jLnac7CBUSj8qdp586sgcCaWuhWrYksadRDpPP+7z3ZDnk7v7HnINu39HtO1a3H75+6FeGRs2yOJdwej5hcS6mNgqenX/wvk8nJbXWUC5ZSolh/w6eME08yB6eTP5E1zPQqFpOjPZzaj6mVraUIoNjNMrN4e3HmBCcz4xHXDhe4tR86J8uxSZMjo+eobVGYfNToOBZRERERERERETkkPhR7/CnDWUflSQhMD01n3DheInJRuht7g0d6y1Hq+dIM0/h4MRM/NjU86Hwo2qPJ9wLQCk2TI2F/bx0osRUw1IrWQapZ2tQsNMpGI72c3wmfuKp5zgKk9pnjpR4ebHEVDMcHFgUno1uwebe/rS6Z34iPuiwtodQUSKBgmcREREREREREfnScx4K53GjHmdjwoRuHJkP7Re2xox+7f4veg9F4clGPwr34CvMY13FxoSKj8hCMqr3wIeJ4kpiWJiKOTUXszgbE0eGLPds7oUD9LbaReh3dlAtm6cSPHtCf3RRPJw8hzXfn4L+JJLYMDcRsTgbc3IuJokMeeHZ3itY3s7ZaBX0ho7CQbVknjh4TuLQ131sOub80YQoCoczbo76qe9u5vRTj7FhP9WSoRRb7KfalXwcBc8iIiIiIiIiIvKllxee3jB0N+fOE9sQLDeqoVf5UXEEjfKjPc6e3jAcDFhOHq7osBZKcXjdwcdGVRDj9YjppiWODM7Dva0MgKOTMbNjMZENIW2n73h/OeX95SxMO4+mq188mjyVZ+JcOBQwze/3UlsDlcRQTQzGjpLyT6AUw/xExPRYhDX7z8px5W7K1eX0YNoZD+cXnnw/lZJlbjJirB6eKwa6A8flOym3NzI2WwWFg0rJcHw6Ji0OZ7Jb7lPwLCIiIiIiIiIiX0jGQCkx1CuWyDoK99HTrFkeAuPu0NPuORrV0KU8UbdMNi2TDUtvGCaAkyQc9ndkMqZRtXhCcD1IQzjcHTqMCaHtvnJsmJuI6Q483UH4eDkxHJkKNRnz4xFxFA7o6w4cnYGjVjZUSmES2vtwgF+n79ntOArnKcWjvUVPZ0o3HIjo6A89ee6JbJjanqxbZsciVndy8sKQ55561TIzFlFKPnwt1hpqZUu1ZDDG4L3HOegMHDudcFBhEofDGR/ajwHzR8qXIwvlGErR/UMDS3G4Xzm+fzBiUYT7tbqOds8R2VDHEVlIrDqeD5uCZxERERERERER+UIyBuoVw2TDMswMzn3057b7jmFW0O45NttFCKzLlulmxMJkzNGZmJXtgu7AMVaLmJuIODkX06zZUI+Retr9EGru9YvRBPX9yd1a2XBqLqY/dGy0CryHetVy+kjCmSMJM6NJ4DT33FjLaPfdKHQNr7cmBKxJZEhicBnUK5bjszFjtadTTFw4PwrKw/R2EnniKFRmDDPPve2cNId2zzE3EXNyPqFW/vC1GML6Ixv+tyeE0XFkSKIwXV2vGI5Oj57pIy/+uPA5icxBSF9ODJ5Q7RGbh8NkY0IgnYzC6XLJMFazjFUttfLDtSny5BQ8i4iIiIiIiIjIF1IcGU7OJYzXLIX7+CqFa/dSttsFa7sFtZWcetlSTgyxNcxPRLx6psLZhXCgX6VkmB6LqFct8agGY3krZ2ktp5860gz2eo713dAnPNGIKCeG2fEYYwzTzQhPmHhemIqZbIR7tboFqzsh/E6zMNm813Sjie0Qrr60WGJ63JLnodt5shkxO36/v2O/lzr6sGLqT8n7EAjv9RxLaznHZmKmxyJKsWF2IuLVs2XO9j1p5keT4RH1yocHz3kx2k/P0axarDVUShwcNJgd7Mcy98h+yrF5qKLEexhkYcK8knjiKITwLy+GQxh3u+HgwL2+oze8/9WGesXw4rES082I3W5BtWQZq1nmJ+P7Hdv7RqG16jc+OwXPIiIiIiIiIiLyhRRZODETc2Lmj0dgg9Tzu+tDNloFGDgyGULUehkmm6Gb+EHeh6ndPA9Twbc3cm6tZ+HAv8KTF7C2U3BrPQ9h85hlvB4qO84/0MnsfTjYMC88my3H9XsZu13HIAsHCU42LFPNEFxXypYXjyecP5YcTG/vH4LoRgciGhOmfaOHl/uZeQ+tnuPaakZpNCEcW8NkI2Kycf8mufN4F6aYneexAxmzAjb3CqaaETNjIbwvJYYXjiWcXUhwRdhAZEMf9v5+IhsmmUuxOZiUdg46fUenH0Ls0qii48XjJRZnE25vZNxaz7i5lrHXCyF0HEG1ZDl31HJyLmaQhmqPJA61H48OO+9PmP+xL1jIR1PwLCIiIiIiIiIiMpLlnt12waWbQ3a7BafmEqaaEc1qmOTdDyizwtMfhknnOxsZS+s5ux1HVtxPKdd2c3Ln6aeOEzMJ8xMR1fL9HmI/CpxbPcfKTs7N1Yzr9zI6fUfu4NZahvehW3l+MmKyYTHGYAGsp9UNU9XNagi1q6VQIxGqIw6vfqPddyytZsQ21JUcnYoYr0fhWXhw3rO2U9DqOsbrlmbV0nhk8nmYee5u5thRMH5kMmKqGfYTW3AG2j3PZrugVjY0KqH+Io6gOdqPtQbvPMPcc2s9J44M1bJloh4mxuF+MD1Iw/O5uZYRx4YTMzHTzWgUyodp617q2e0WDDNPEhlmxsM0N0C1bBmrR3T6YfpcPj0FzyIiIiIiIiIi8tzLC9jtOla2c5wP06qfxna7AEa9xkPPnY08TC/nMDPumKhbrBkd9AcMU0e777i9kXN7I6fVLegPHw4o93qOQerxQH/o6Q5iGhVLqTQKSR0MM8d2x3FnM+feVh4mrke22gXGhuqMziBmdjwKHckm1HtstQuWN3PGa5bJRkStEio2hlk45BAgzUIAu7yVHxx2uLZT0O0/HJJ/nGHqGaYFpSTDec8gjZlsOOIoTAvnDu5u5Ox0CiYb0UH43E/DwYH91JEXnp1OgbUheO4OYvZ64UBFawyF8+x0wvtXr1jGauFwwCQ25AUH+wnvtWd9tyCyISCeatwP2gepY223YKfj6A48K9sFhUtDB/eEo1IKXc4eaHVDWD5Iw0GN7b47CLDbfffY1LZ8OgqeRURERERERETkudcfOq7dy7i9kYdahk8ZGnYH94NN70KAubrj2e0UlEuGUmJJolD9UDhPmnuGaegZHmae3D0e4nofJqhXtnK2WwVX76ZUSoZqKYSkhYfBMNRqDDP/2GSt97DbcVweptxcy6iMJpqtMaS5Z5A5+kNPbMNksLVgMDjvD0Lw3Y6jN8i4t5UfHKo3yDyDoSP9hMHzvq1WQafvuLWWH9RfOO/Jck9vGNYfR2EtkQ2/lhf3n6330Oo6rtwZ7ScJdRvWGLIiPMtB6rAmVIVEo/2E4N5ROB9qL3x4f5Y3PTttR7VsqJTD3vICOr3Q7ZwXnnbPMUjDZHh1VFdiTfgCw/5755zHGEMpDlUh+/899FNP8Smfkdyn4FlERERERERERJ57hYPOwMHgya/lR9crRsGy7YG1jmg0neucp3Bh8vaPcZ5RoBo+N44Mpdgd/FqWOwr30a/P8hDsdgchFA2H7IXwu3D+oOv5k7z+SaV5CNy7fTdai8HjKQpwzvMh2ftHrqczCM8yjsIE9yfdD9x/f/qpp58WxD1DPEo5vQs1KPvX2e/b7g8LWpZRlUYIxYsiBNDydCh4FhERERERERER+RjOgxsFmCH2/OxCEPrpr3GYa3hS99fy2dfhPRTej0L3w3imf/zz9rufn/Xz+7I4vJZxEREREREREREREREUPIuIiIiIiIiIiIjIIVPwLCIiIiIiIiIiIiKHSsGziIiIiIiIiMhzyjlHnud4r85aEfl8UfAsIiIiIiIiIvKcyrKMwWBAUXyCk9VERP6E4me9ABERERERERERedxwOKTb7dLtdul0OrTb7YMf3W6XwWDAhQsXOH/+PEmSEMeKeUTk80O/I4mIiIiIiDwBDxhA3+UuckhM+P/Ul5n3Hu89vV6PlZUV7t27x/LyMrdv3+bWrVvcunWLtbU1tra2+K//9b9y/Phx6vU65XL5WS9dROSAgmcREREREZHPqDv0rO3krO/mrLfcs16OyHOvHMPZhRKzExGNiiX6khWEeu/pdDosLS3xox/9iFu3btHv90nTlMFgwM7ODtvb22xubnLkyBG+9a1vcfHiRaamphQ6i8jnjoJnERERERGRz2iQOlZ3c95fznj/TvqslyPy3GtWLZWSpV411EqGyH65Zp+996RpysrKCj/+8Y+5dOkSw+HwoEYjyzLyPKcoCi5evMjf/u3f8tJLL9FsNp/10kVEHqPgWURERERERETkc8BaS7PZ5MSJE7z++ut0u13ee+892u02zoXvqhgbG+PcuXN84xvf4I033mBqauoZr1pE5MMpeBYRERERERER+ZxIkoRms8nRo0eZmZnBWkuWZaRpSrVaZXZ2lu985zv82Z/9GUePHiWKome9ZBGRD6XgWURERERERETkc8KPTiqtVCpUKhXiOMZai7WWer3OmTNn+Pu//3suXryItV+yEmwRea4oeBYRERERERERecZ2d3fZ2NjgypUrXL9+neXlZWq1Gt/73vd45513uHXrFn/xF3/B3/7t33LmzBkajQbGfLk6sEXk+aLgWURERERERETkGfDe45wjz3NWVlZ49913+cEPfsDly5eZnZ3lpZde4m/+5m9IkoR+v8+//bf/lr/7u79jZmZGFRsi8rmn4FlERERERERE5E+sKAo6nQ43b97kt7/97cGU8+zsLP/5P/9nzpw5w8LCArOzszSbTd544w3+/M//nImJCYXOIvJcUPAsIiIiIiIiIvIn4L3He0+73WZnZ4e7d+9y+fJl/uVf/oXd3V2893z729/mm9/85kGdBsDs7CyvvfYa4+PjVKvVZ7wLeZQ1YK3BGmDUfuIcOOfxwKi2+2MZE35YY9iv7vYeCufx/qOvsf+afZ6P/nxrwewvkPtr8/7+/e//OrjRRezoHsZCsb+vD7l+ZMNzuH+H8LmF++P7h/Do7KPX8GEdzoXryfNFwbOIiIiIiIiIyJ/Afq3G22+/za9//Wt+/etfk6Ypp06d4s033+SVV15hfn6eqakpKpXKweuq1SqlUokkSZ7h6uWjlBJDpWQoxYbIGjwwzDy9gSMvPMUnSEythXJiqCSWcsngPeSFpztwpDkUH3GRODKUk/thceEMhfNk+cPhsDVQTizRKNR2PnxenoPDE0eGyIbr7RukIfitlsM9SrGhO3B0B+E1+9ffD62rZUutbLD2/vr7aXgOf0y4hqFcMtQrhsiED2a5Z5B5BkP3iQNs+fxQ8CwiIiIiIiIi8hQNBgN2d3e5e/cuS0tL3Lx5k7t371KtVllcXOTVV1/llVde4cKFC0RRhN0feR2J45g4/mQRjveenZ0dNjY2iKKISqXC9PS0JqUPkTEhoG1ULZMNy1jN0qxakihMK3sgzTz9oafdd7R6jla3YJA+EgZbKMeGyUbEeN3SrNmDANsDeQG9oaPTd7R74TqdvnvoGpMNy+kjJawNU9btvmO3U7DZKkjz+59YTgyn52PGG6GmpT9wtPuOjVZBPw3XmWhETDaig2tttnKyAuYmIuplQxIbltZy7mzm5DlgoVIyjNfCc2hULbWyDRPbHnIH3UFY+06nYK/nSPMwvfzgs6yVLY1qeA7NqqVeNUTGYAxkeQiv93qO3a5jp12EMF8h9HNBwbOIiIiIiIiIyFPUbre5evUqP/7xj/nBD37AwsICL7zwAv/xP/5HXn75Zaanp6lUKsRxjHmgNuHT2j+s8M6dO7z11ltUq1VmZmb4+te/ruD5EEXWUC0bjs/EfPVUmdnxiPHa6IsFo7fPO3AeljdzltYzrtwZMkiLh64TR4axesTLJ0ucmk+YHY9IInP/GqOp4a12wZ31nPfvpXRH08P74fPCVMz3vlYlicN08N3NnOsr6UHIu69Wtrx2tsKZhTA1v7Gbc2cjJyuGFHuOhcmYc8dKnD+akMSGPPdcXc7op44Xj5UYq1kw4OmzvlvgnCeOYKoZcf5owlcWyweT0Q92bfRTx17PcWlpyLV7Ga2uI3X312UNTDUtJ+cTXjpeYqoZPXaNQebZ6RR8sJzx9tKQ7sBRpCreeB4oeBYREREREREROWTdbpft7W3ee+89rl27xq1btxgOh3z3u9/l3LlznDt3jgsXLjA/P0+lUnmiwLkoCvb29rhz5w5/+MMfWFpa4t69e7z++utMT09TKpUOcWdfbmFC1/DCsRKn5xMWpiJq5VBh0Rl4ssITW6gkhmrZMj8ZEUUhQE7ijLWdgqzwGAMn5xJOH0k4ORszMx5RL4fwunD+oL6iFNswYW1DGBtbw+pOTqsbAujYPljzAeUkfOzR/5rCtaBaCr9STsIEsx1NFkeRoRRzcC0XG07MxuSFZ7xuD+o8Yhumumtlw1Qz4qUTJY7PJkw07Oh6Ya8AcWyII0spNrx4rEQlsbx3O2Vrr6AoPPWqZaJheeF4eBCdOSUAACAASURBVJYz4xG1UqjqKEbd0ElsiCOIbTT6Obx/N+PORhb6qf80b7t8RgqeRUREREREREQOgfeePM9J05SVlRWuXbvGj370Iy5fvkyv1+ONN97g3//7f8+5c+dYWFg4lPulaUq32+X27dv89re/5Qc/+AHdbpdGo0G1WuXYsWMP9UXLkzEG6lXLC8cSTs0n1MuWLPd0h5613ZzuwFFJDJPNiLnEMFazVMsGNzrEb7fjcD5MO5+aT7h4uky9YogjQ1F4hplnkHrsqG+5koyqKCqWOIJSbBhknnYvXOdpsRbmxiPc6IDDYRZuth+KN6qWo9MxLy+WmWzYg1qMQR4qRhhVaJRiqFcsZ44k1CuW9d2CTt/Rd56xmmVxLuGFYyVOzMQHE96DoWeQOvICahVDJTHUK5bFGcPsmKXdc6zu5GSFx6ty43NNwbOIiIiIiIiIyBPaPzjwxo0bXLp0iUuXLrG0tMT09DTf/e53OXv2LCdPnmRxcZGxsbEnvl9RFGRZxttvv83vf/973nnnHdrtNi+88AJnzpzhhRde4OTJk0xNTWni+ZAYA9VS6HRuVOxBJcTGXsGt9Yw7Gzm7HUdk4fSRhNKZMo1R9/PMWMTOeEQcGZpVw9xExMxYdBA6d/qOle2c5c2cle2cKDI0a5ZzCwnzExFj9YjxesSJWVjeytlpF3SHTy959j4ckLjXd6zv5vRSj3Oe5a0c70PFx+JsQjkJfdTOed6/l3JzNaPTD4cVTjYsp+YTzi4koZ6kZFiYiugOHMtbntnxiAvHS4zXLM7BMHfc3cy5ejejO3A4BzPjEcemY07Ph3tVy5bp8Yj5yZjNVkFvqOT580zBs4iIiIiIiIjIZ+Sco9PpsLOzw+rqKlevXuWdd95heXmZwWDA4uIif/Znf8bFixdpNpuPHRz4aeV5Tq/XY2Njg5WVFS5dusR7773H+vo609PTvPbaa1y8eJGXXnrpkHYoD9qfOi4nJvQxA8M8HCK43S5Y3w2H33mgWQ0hdaVkyAvopx7nPc2q5fhMzGQj1FB4D52+48ZKxs21jLubOZGFiUZEbO8fZFgtGWwzYqoZ0axZhlnx8Yt9As7Ddrvg3nbO7Y2czsBROM9OOwS9s2MRRyYjSsloSjn13N7IeedWSn/oiSxMNiIia5gdj8JEdBGC+0Y1PJOppuXYdEwSQ1Z4Wt0QPL97e0hvEA5inNmLyAvPkcmISimiFBsm6hEz4xF7PUdv+NQegRwCBc8iIiIiIiIiIp9RlmVcv36d3/zmN/zkJz9hOBwyNTXFd77zHb72ta+xsLDA9PQ09Xr9iUNnCN3R169f5xe/+AU//OEPqdfrLCws8A//8A9cuHCBhYWFQ5molg+XF6FS4sGai/Ga5fhMQm/gyQrY6znWdwt+/m6fKAI76u8eZp7uwDM/YZmbiKmWQ+hcOM9ez7G0nrO1F8Jk56E3dNzezKlXLcdmYuIoTF03q5aJRsRu5+lN++aF58ZaxpU7KTttxzBzo8nmUKHRrFrGa5bYmrDfVpjC7g0chYPCwVa7YHkrY6IeakLyAvb64TqNqqVetpTj0DHdyxz3tnPWdgv6Q3/QEx3CfEt/6GlWPUlsqJcNEzVLKXpq25dDouBZRERERERERORTSNOUXq/HrVu3uHHjBjdu3ODevXvUajUWFxc5f/48Fy9e5MUXX6RarRLHTxa/ZFlGv99naWmJ69ev8/7777O6usrk5CRnz57lwoULvPbaa5w4cYJyuXwoAbc8zvswmdsdeDZbBfVKmGiulS3zE+BciclGqJLoDR391NMZODp9R2/gSfMQppYSEw7si0NNRTaahm73HYNRl7L3kOWhE7rdc/hR0L1/uGGjHA4TfJp7bfcc2+2w/v0gOInCoYSl0eGExoSJ71bXjQLj+69PnWd9tyCyKZENYXp3FEzXyoZyKRxUCGGqe6wWcWLGU0kM7oFMfXosolIK94JwMGK9Yoiiz34gp/xpKHgWEREREREREfkU+v0+q6ur/PCHP+R//+//TZqmnDhxgv/wH/4DFy9e5PTp08RxjLUWY548HBsOh2xsbPCjH/2IX/ziF9y+fZuvfe1r/Kf/9J+4cOECJ0+eJIoijDGHcj/5aGnm2esV3N7IqZQM9UpCtWSoJBGTjQjvPc5BZ+DY7TjubGbc3gzdzfvBcxJBo2KIRzUbw8wzzD2F8wcBM4Dznn7qGWT3P24IwWu1ZLBP+a0uHBTFw2uKohA6R/Z+EJznIYzPP6T5Y3OvYLt9/xc8MF63HJ2JQ0f2SLVsOHMk4fR8/NihiQYeul8SGyol+1SDdzkcCp5FRD7E2toad+/epV6v02w2mZ6e1knQIiIiIiJfYlmWsb29zeXLl7l69Srvv/8+eZ7z6quvcuLECU6fPs1LL73E3NwcpVLpUALgzc1NlpaWuHTpEpcvXybLMs6fP89f/MVfcP78eV555RWmp6dJkuQQdiifVD/13FrLGKSOrXbBZCNiom6pV0J3cRwZGhVLPAppJxsRzYrl7mbOZiuEsP7gHyP+kZ+PWHO/qmOf2f/Hn+BrDB91fOGjt/6opXgPhX/8Y49+vnOQ5p4s92SPvuARu11HZ+A+NOiWzxcFzyIiH+Lu3bv87Gc/Y2FhgRMnTlCtVhU8yxee957cZRQue9ZLEXnuGWMxWCIbEVn9kVtE5HmWpinD4ZCdnR1u3rzJz3/+c9555x1u3LjBG2+8wZtvvsnrr7/O4uLioUw4F0VBlmUHXc6//vWv+dWvfsXVq1f55je/yRtvvMFf/uVfMj8//8QVHvLpGRP6j9d2CzqDUEUxPxkxPxkz1Qy9x9WSpZQY6pXQhTw7HhFHBjy0ug7nQ9+xe6A+Y//Hw/cKIXZkHw5qnQ9B7YenwuYph9Ie7z3+gZsbC1H0+PoBotHhiPucB2tDlcaDk9SF83T6jnY/hMofF3i3e46ddnEwQS6fX/odSkTkQ1y+fJn//t//O1/5ylf48z//c44dO8bU1NSzXpbIU+ZZaS2x3Vl91gsRee6V4gq1UpOJ2gwTtdlnvRwREXkCy8vLXL58mbfeeoulpSWq1SqvvPIK3//+91lcXDz4u8JhhM7ee/b29rh58yY/+9nPuHbtGltbW5w6dYq//uu/5ty5cywuLjI1NUUU6WS1Z6E06jcuJ4bSqON4ZTvn7mZ+UIHRrFmOz8ScXShRG01AH5mM6PRjPriXkeUhZK2UTPiRhH/Hceg83u83jgyhxuOBfmPvoZ86uqmneORswVBJwWNB9WHKCs8gDVPJhfNYa0giQ6NqKcWP33WiETE3GREZg/ee7tDjXKgQeTA4znLP5l7B7fWc2xvZY3uDUThPmIweZqE/Wz7fFDyLiHyI9fV1fve731Eulzlx4gTD4fBZL0nkqXPesbK7xM3N9571UkSee7VSk+n6ESIbK3gWEXnOFEXBYDBgd3eXtbU13n//fa5cucKtW7dI05Rz587x+uuv861vfYtGo0GpVHqi+3kfJkh3d3fZ3Nzk5s2bfPDBB1y+fJnBYMDMzAyvvvoqb775JlNTU9Tr9UPaqXxaxkC1bJls2HDg3aijeGU7Z3krJ8s91hjq1dDdPD8Rk0SWJA5hdLMWeokHmWerXdCoWsZqEEfQqFhmxyKc87R7HmtD7/HceOiO3u9zdh46fc9e15E7j/OhWzkeTRyH3ulQ+TFIDc6Hj43XwzqelHMhJO4NQ3hcLYUQfrIe0axZqmVDloe1lBPDkamIc0dLRCYclrjeytluO1rdgt4wVGtEUegmj6yhcOGgwt7QkY6eZxJBpWQpJSH4b/fDgYdeA8+fewqeRUREBAjB82rrNpfv/euzXorIc2+8Os1wesBkfe5ZL0VERD6lLMtYXV3lt7/9LT/84Q/Z3t7Ge8+bb77Ja6+9xunTp5menqbRaBzK1LH3njzPef/99/n5z3/Ov/zLv7Czs8PXv/51Xn/9dV5//XWmpqZoNBqq1njGDDBWM5yYi3npeImJenj/314aMsg8O+2CfhqC43bP0Rt6GtXHr9MdOO5t58yMRRgirA3B8IXjCXEEN/OcJIbpZsS5owknZmKiKITZhYOdjmNzryDLw88HqSeOIIkM47WI6THHRCOicCHsPTIZsTgbUys/+Wl83oeqkd2OY6fjKI0baiVLMmGYm4hYa0W0Oo7Iwsx4xNmFEl9ZDF+c6Qw8mfPsdh3tnmOv5+gOPbVyCKlPzMQUztMdOla3C3Y6BUlsGKtZFiZjppsR4w3LpZtDrq1kjx18KJ8/+h1LREREAPB4hvmA7nDvWS9F5LlXissMsz6Fy5/1UkRE5BPI85wsy7h58yY3btzggw8+YHV1lSRJuHDhAgsLC7z66qucP3+eyclJyuXyodxzd3eXO3fucPXqVZaWlrh79y5zc3NcuHCBr3/967z00kucOnVKgfPnhCccLNgbeIwxVMuGJDacnAuHO253CvpDjzWwMBUzVgv1E84zCmoLcucZZHBvK+foVMzseES1ZKiXLSdmE8qJZXY8JhpNQR+fiWnWLNZAu+9Y3y3Ybhf0Bg7nQu3FZivH2pjxeqgBmRmLeOVkiU7fUxSeiYZlqhlRq4Tw+knPvcwdrG7nNKuWsZqlWQlTzydmYyIL3UGY2B6rWY5OxdQrlrzwdAb+IHBOc8/GbsEH91JOziVMNyPKJcP8RETuShyZdHT7jigy1MqjAxqrllrFcG8rZ2UnpzcI09fy+aXfuURERERERETkSy3LMtrtNr/85S/58Y9/zDvvvMPRo0f5h3/4B771rW/x6quvHvo90zRleXmZf/qnf+If//EfSZKExcVFvv/97/Od73yHiYmJJ67xkMPlPey0HUmcs9spmKhb4igErsdmYva6BcPcU4pt6G0uGwwwzDzrrYK1nTCl3BuGKon12YIjU47IRtTKhmo55uj0R0d1W+2C6yspW3sFwywErr2hY2WnoFaxTNRDlcfMWMTM2OPT+Ic1HZznnrtbOaXEcHIupl42xNZwai7h1CiEf1SWQ6fnWN3O2WwVOA+rOzmF99TLlsnRs5xqRkw1P/47CSabEWNVS5aF5ymfXwqeReQLzTmHc47d3V1arRbee5IkYXx8nGq1+okmFfa/9a3VarG1tYVzjiiKmJycPPj2ug87RGS/q63dbrOzs0NRFBhjaDQa1Go1arUa1n70tzoVRUGapuzs7NDtdgGo1WpMTExQLpcfm3rIsow0TSmKAoBKpUKapmxvb2OtPbiftRbnHEmSUK1WH1qD9/7gvoPBgCRJDu716Fp3dnbY29sjz3OiKKJarVKv12k0Gh/7LNM0pdfrsbe3R5ZlGGOYmJhgfHz8YH0iIiIiIk+bc46dnR1u3LjB22+/zaVLl/Dec+LECb7+9a9z6tSpg2nnw5JlGYPBgEuXLvHuu+/ywQcf0Ov1+O53v8vJkyc5d+4cZ8+epdls6vDAzynnQr/yH24O2e44TszETDUtjao96CGORn+lGaSe7XbB2m7BjZWU5a2cNL9fD7G0lpEVnpOzCfOTEVONMCEdRWZ0Lxjmnla3YHOvYGkt59Zaxl6vOFhPq+d4fzklspBEMFaLDg4jdC7UYqy3Cjp9x1jNUhtNaQ+ycLifc35U4eFJM09/6MkLzyAL/w4eTqz9aG+rOzm/+WDA8dmEY1MRjaqlWrIYE0Ju50MX9F7PcWcjHBq43S4oRvccpJ6tvYJ3bg1p9RxHp0KfdaMSrrH/1+y8CIcSbu0VrO3kXFvJ2Ok4UoXOn3sKnkXkC8k5R5Zl7O3tsbW1xfLyMmtrazjnqFarzM7OMj8/z+zsLPV6/SMD6DzP6Xa73Llz5+Db4IqiII5jjh8/zsLCArOzs9RqtYf+YOico9frsb29zb1797h9+zZ5nmOMYWpqitnZWY4cOcL4+Phjh4Pkec5wOGR7e5vNzU2Wl5fZ2dkBYHx8nCNHjjA/P8/MzMxDAXSn02FtbY1Op0Oe50xMTNDv97l58yb1ep2FhQWMMRRFQa/XY2JigjNnzlAulw+C8zzP2dvbY3Nzk9XVVWZnZ1lYWKBer5MkCc45Op0OrVaL27dvs7q6SpqmxHFMs9lkfn6eo0eP0mw2qdVqDwXyg8GAXq/H+vo6a2trrK+vMxwOsdaysLDAsWPHmJ6eptlskiTJE58ILiIiIiLyYfbD31arxa1bt/j973/Pv/7rv/KHP/yB119/na9+9at85zvf4eTJk1QqlUP5c2me5wwGA7a3t1lbW+Of//mf+f3vf8/m5ianTp3i29/+Nq+88gpnzpw5hB3K0+Q89AaOGysZnX4Ia7uDiJnxiCQyRDYEs1keQtzlrZw7mzl3NzN2O/cPxPMe1nZyOn3HMPX0hjHDqZhaOdRleKAooDsM9Rq3NzLubeWs7RQPrac7cAxSH14XG2bHPc2qxVrICkgzx9Jazna7YHYiYqwWprF3u45WL4S3+wHxTtexupMTR5Dm4dqF8zw6KO192N922zHMUjoDR56XmGpGjNVC1YgHche6oDdboVJjeStnmHqcC9dJc0/W9VxfydjrOQZpwpFJz1QjIooI1/FhYny357i7kXNjNWW7HQ4XlM8/Bc8i8oU0GAxYWVnhrbfe4n/9r//F2toau7u7AAfTuV/72tf4y7/8S1599VXOnj37odfpdDpcvXqVO3fuMBgM2NzcpCgKoihiZmaGl19+me9///u8+OKLTExMYIw5CJ2vXLnC//gf/4P33nuP5eVlnHMYY0iShJMnT/LGG2/wzW9+kzfeeOOhe7ZaLW7evMk//dM/8dOf/pRWq0Wv1wOgXC5Tr9f5q7/6K773ve9x9uxZZmZmAFhaWuKHP/wh165dY319nSNHjpBlGdeuXePcuXN885vfpNPpsLm5yZUrV3j55Zf5L//lvzA3N0eSJAf7vXTpEr/4xS/46U9/yr/5N/+Gv//7v2dhYQFrLb1ej3/+53/mf/7P/8nS0hKrq6s457DWEscxZ8+e5atf/Sp/9Vd/xWuvvQZw8Af1O3fu8Ic//IGf/exnvPvuu3S73YPp7KmpKU6cOMHf/d3f8Y1vfIO5ublD6c0TEREREXnU1tYWN27c4Cc/+QnXr18nTVMWFxf5b//tv3Hq1CmOHz/O9PQ0pVLp0IYhWq0W77//Pm+99Rb/7//9PyYmJjh+/Dj/7t/9O86dO8fx48cZGxs7lHvJ0+c9ZIVncy+nnzqu3Qsdx5WSJY4YHeoXQule6umnjv7w8YPwnIfe0HNrPWN9t+C9Uko5MZRL5uAQv2Hq6aee/tDRTx/vyvAeisJzZyNnp+OolgzlxJLEo/A79fSGIWC+tR4OLbTGkBWeYebp9h1Z4VnZDvUh1+6lWGNwo0MA0+yjD/ArCk93ALfWcrZajnIpPIckDutP8xCqDzJPdxD24vzj6+8PPWs7YSr7aimlFIc9xBHkRQioh1nYR3fgVK/xHFHwLCJfOFmWsbGxwS9/+Ut++tOf8qtf/YpGo8H4+DhRFDEYDLh9+zbD4ZBut4u1lvHxcZrN5kNhp/ee3d1dkiQ5mIpuNpt0u13a7TYrKytsbGywsLBAkiRcvHiROI7JsowbN27w1ltv8dOf/pSdnR3GxsaoVCp471lbW6PVatFut0mShNOnT9NsNqlUKuR5zt27d/nJT37CL3/5S95++21mZ2dpNpt47w9C6f2ut0qlwvj4OHEc02q1+OCDD/jXf/1Xbt26xfHjx6nX6wwGA4qiwHvPYDBgfX2d3/3ud6RpysrKCvV6nYmJCQB6vR4ffPABv/vd7/jNb37Dq6++SpIkWGtpt9tcvnyZX/3qV/zf//t/D6o6SqUSWZaxvb3NO++8w/LyMrOzsxw9epTJyUmSJCFNU65cucL/+T//h3fffZfNzU1mZ2epVCpkWcadO3e4efPmwUnd3/72txU8i4iIiMih2P9uyO3tbVZXV7lx4wbXr19naWmJoig4fvw4r732Gm+++SYTExOPfUfiZ5WmKd1ul3v37nHz5k2uXLnCrVu3cM5x7NgxLl68yDe+8Q2OHj2q7/h7znjAuxCY9odhmMYYDmoy9isu7ldVfMR1RuFyq+tpdcMEbxwZSkmoyXA+9Ck/GtY+eg0P7I0O7YssRJEhjgx5EcLvT6LTd3T6n+hTDzgPLvdkeajTsAas3Q+ew8ed/+Pd0vvPqju4X6+x/yzzwlM4DipB5Pmi4FlEvlC89/T7fW7cuME//uM/cuXKFf5/9u7sOY77vP/9u7fZ9xkMMAMMVmIhuICkKFISJVmL5UW25VNO/eKqVFKp5Cp/QXKfv+JU5SLnKpXlJDmx7DiWrVgrJYqURII7CS7Y18EMZl96ORdDtARRC0lTlEw+rypSFPid7u90g4Oezzz9fHVd57nnnuPFF1/E5/OxvLzMb3/7Wy5cuMB//ud/uu0rxsbGbgueNzY28Hg8HDlyhMcee4zx8XGWlpa4cOECv/nNb5ifn+e1117D5/MxOTmJrus0Gg13UZLZ2Vn27dvHz3/+c1KpFLZt8/rrr3Pq1ClOnjxJNBpl9+7djI2N0d3dTbVa5eLFi/zLv/wLjUaDwcFBfvzjHzM1NYVlWZw+fZpXX32Va9eusby8zMjICMPDwwQCAXfe7Xaber1Os9lkYGCAgwcPMjY2xtDQEBsbG6iqynvvvUe5XGZ2dpZEIuEGz9uhfD6fJxAI0N3dTS6XQ9d1rl69yv/8z/9w/Phx1tbW+MlPfsJ3v/tdUqkUxWKRU6dOceLECU6ePMnu3bvJ5XLs37+fUChEsVjk448/5tVXX6W/v59jx47x3e9+l3g8TqlU4le/+hW/+93v+P3vf49pmkxOTpJIJB74948QQgghhHj4mKZJuVzmzJkz/Pa3v2VmZoZSqcSxY8d4/PHH2b9/P8lkEr/ff1/7KlcqFWZnZ3n11VeZnp6mVCoxNTXF3/zN3zA4OEg2m8Xv96PruoTOD4FOha+DYt7emuJuWLZDo/lJV+W7DVstu9M6w/wD53EvbAccy8G6lZTfS1C8/Zgdx9L5bJdp8cdCgmchxEPFsixmZ2c5d+4cs7Oz+P1+jh07xrFjxzh48CCGYZDL5fD5fGiaxsWLF7l06RInT54klUqRTCbdbSmKQjKZdNtUHD582O1F3N3dzfLyMtVqldnZWW7cuEGj0cDj8bhVy0tLS/j9foaHhzly5AjhcBjLsrBtG4/HQ7lcRlEUNjc3aTabNJtNbty4wZUrV1hcXGRycpLvfe97HD16lNHRUXdhxHK5zJtvvsn169eZnZ1leXmZXC7nzttxHPx+P08++SRPPfUUY2NjpNNpotEoiUSCZrNJOBymVqtx/fp1crmc20uu2WwyPz9PrVZjcHCQrq4ut2J5fX2dM2fOsLW1xZ49e3jsscc4fPiwWwW+HSKfOHGC2dlZLly4wPDwMJqmsby8zMrKCltbW2SzWR577DH2799PIpGg0Wiwvr5OoVBga2uLRqPhLpIoC6oIIYQQQog/VLlc5uzZs25bjcnJSbq6uti3bx8jIyNks9n7dredbdusr68zNzfHhQsXmJmZYWtri/7+fjKZDJOTk+zdu5d4PH7fKqvFt4dzHwLSb8s27nnf7m9/4HYkbH4oSPAshHiomKbJtWvXOHfuHIVCgb179/LKK6+wZ88eN5zt6upiYGCAfD7PL3/5S27cuMH7779/W69lRVHIZrPs37+fJ554gsnJSffx2WyWixcvMjc3x5kzZ1haWqJerxMMBrEsi0KhQLlcJh6P09/fz/DwsLs4XygUwuv1sry8TCqVotlsYlkW9XqdK1euMDMzQ61WY9euXfz0pz8lk8kQjUZ3zOvGjRucP3+excVFFhYWSKfTO+YeDod56aWX+OEPf0gkEnED3GQySaVSIRKJsLy8zPXr19mzZw/wSbX44uIizWaTiYkJUqkUjuO4iwJeuXKFQCDAU089xdTUFLt27XIfOzAwwOXLl/H7/SwvL3Px4kW+853v4PV6WV1dpVQqoSgKuVyOyclJMpkMyWQSRVE4cuQI7Xabs2fPEolEsG0b0zQleBZCCCGEEH+wUqnE9PQ0GxsbpFIpXnjhBY4cOeK2lLsfHMfBsixarRY3b97kzTff5K233uLGjRu8+OKLPPPMMzz77LPE4/H7tk8hhPi2k+BZCPFQ2a4wWF5exrIs4vE4o6OjOyqZVVXF4/GQSqXYtWsXpVLJDY4/S9d1PB7PbReHqqoSi8VIJpNomkaz2WRra4tQKOQuPBiJRFhbW+PcuXO8++67jI6OkslkCAaD7Nmzh7/+67/G5/PR1dVFV1cX9XqdfD5PoVDAsixCoRA9PT34/X53vz6fj3Q67QbcxWKRzc1NTNO8bX6BQIBAILBj7rquEwqF6Ovrc/tFr6+vY9s2hUKBlZUVSqUSgUCA3bt3k06nsSyLjY0N1tbWaLfbBINBent7CYfD7nYVRUFVVUKhEJlMBsuyyOfztFotd86RSATHcTh//jypVIpAIICiKMTjcYaGhvD7/Rw6dAiv10s2m0XX5UeUEEIIIYT4w6VSKV588UXq9TqqqtLb23tf21tsXy9fu3aN999/n8XFRUqlEgcPHuSVV15hbGyMwcFBgsGgtNQQQjxS5F29EOKhsr0AX6FQQFEUotEomUyGUCjkjlEUBV3XiUQi5HI5zp8/74akn6Vp2udelG5vO5FIoOu6GzynUim8Xi+Dg4MMDQ2xurrKtWvX+N3vfkc+n2f37t1EIhHC4TBPP/30jm2Xy2W33YRt224w/Gn1et1dmHC7ErlarWLb9m3z83g8t90yqGkagUCA/v5+FhYWWFhYYGNjg3a7zcbGBsvLy9RqNTKZjFvxbNv2joC71WpRKpW4fv36bYH3ysoKhmHQbDYplUqYpukGz729vWSzWdbW1jhx4gThcJhyuczAwADRaJSRkRG3T7YQQgghhBD3SzgcZu/evfd1m47jYNs25XKZzc1N967LPa2QiQAAIABJREFUEydO4DgOPT09HD58mCeeeIJoNIrP57uv+xdCiD8G8u5eCPFQcRyHdruNbdsEAoEvvcAzDINgMIiqqrRardvC2y+jKAqBQMCtcG6325TLZZrNJtFolCeffBKAQqHA3Nwc//Zv/8Zbb71Ff38/Bw4c4MCBAxw6dIhoNIphGECnUqJSqbhB8muvvcbly5d37NeyLLeH9L3y+XwMDw8zMzPj3nJYLpfdINo0TRKJBOPj426rjWazSb1ex7ZtLl++zD/+4z8SCoV2VGMDbGxssLS0RDAYdFubeL1eurq6OHLkCMVikRMnTnD+/Hnm5ubI5XKMj4/z2GOPceDAAXK5nLvQoRBCCCGEEN9WlmXRbDY5ffo077//PufOnaPZbLJ3714mJyfZvXs3XV1dxGIx93pfCCEeNRI8CyEeOo7j4DgOuq5/6S10qqq61bW2bePcxZK7iqLsqIa2bdsNvHVdJ5fL0W63KZVKnDt3zl1U5OzZsxSLRZaXl1ldXWXv3r3s3r0bwzB2hOYejwdFUWi325877/7+fvx+P7t27SKVSt1VlbDP52NoaIhsNkur1SKfz7OwsMCNGzdYWVkhEAiQTqfddhjtdhvLsrAsyz1Gn37OnxaNRt1fExMTbjCvaRpjY2M4jkM4HGZ6epqlpSXW1tYoFApsbGwwPz/PoUOHGB8fJ5PJSFWIEEIIIYT4Rtm2jWVZqKrqrj3SarUoFossLCxw7do1rl+/zvz8PIFAgMHBQY4cOcLExASDg4OPXFsNr0elP23g0RWaps1dvL0SQnyGoSv4DJVY6I973SMJnoUQ4h5tB9yftd1feXx8nIGBAWZnZ7l06RJvvfUWH3zwAadPn+bjjz/m7bff5k/+5E9u65es6zqBQIBDhw7x4osvfuH+DcNgYGCAgYGBuwppvV4vQ0ND9Pf3o+s6m5ubXLlyhatXr7K2tkYymXR7S+u6flu43NfXx3PPPUd3d/cXVidv965OpVLu13p7e0mn0+zbt4/5+XlOnDjB+++/z/vvv8+NGzd44403+P73v89LL73Eiy++KMGzEEIIIYT4RlmWRaPRwDAMN3iu1WpcuXKFN954g1dffZV0Os34+Dg/+clP2Ldvn9tW41ELnQECXoWDIx6sIc9dFfUIIT6fqigYxh/3a4kEz0KIh8p2b2PDMKjX69RqNbeK+LMLBLbbbarVKtAJSrcvJu+E4zjU63UqlQqWZeHxeIhGo3g8HvcC1bIsDMMgm80SCATcKuAzZ85w6dIlbty4wfT0NO+99x779+93+y97PB5arRY9PT089dRTKIryuReuqqoSiUSIRCJ4PJ47nruu68RiMdLpNOl0mmaz6QbP6+vrDA0N0dfX51ZRf7pf9PY+h4eHGRsbo7e39wv34ff7CYfD7urepmli2zaRSISRkRH32Ozbt4/jx49z+vRpzp49SygUYv/+/e7xFEIIIYQQ4kEyTZNKpcKVK1c4fvw4o6OjHDx40L1mvn79OtVqlaeeeoqRkRHGxsYYHx+nq6sLwzAeydAZQFXA64Zkj+YxEELsJMGzEOKhst172efzUa/XKZfL1Go1N9Dd5jgOjUaDQqGAqqqEw+HPbVexvWjIZz+xdxyHSqXiLqDn9XqJx+N4vV6azSYrKys0Gg3C4bC7cN7IyAhPPvkkJ0+e5Ne//jWXL1/m6tWrHD9+nO7ubnK5HOFwGL/fT7PZJBKJMDk5uaPCYtv2nFRVvesLW03TCIVCpFIpent7MU2Ty5cvMzMzg23bPPPMM/T19blBvaIo+P1+AoEAqqri8/lIpVKMjIwwMTFx23FxHMedk6Io1Ot1CoWC2wO7t7eXeDxOMplk79691Ot1QqEQKysrzM7O4vV62djYIJfLPdIX7kIIIYQQ4sFzHIdWq8Xi4iLvvPMO//AP/8Dzzz9PIBDg9ddf5/Tp05RKJQ4cOMDPfvYzdu3aRSaT+aanLYQQ30oSPAshHiqqqpLJZOjv7+fChQsUCgUuXrzIxMSEW527XYGbz+e5fv060WiU4eFhQqHQbdur1WqUy2VM09zxdcuyWFlZYWFhwV3IMBqNoqoqq6ur/NM//RM3b95kz549HDlyhKeeesoNbUdHR5mZmcHr9WKaJvV6HdM0MQyDrq4uEokEqqqyubnJ1atX6evrIx6P79h/uVymWq0Sj8dvW+DvTkUiEXbv3s3Fixc5deoU6+vrZDIZBgYG6O3tdcNuTdNIJBJuBcfm5iZnz55laGjotm02Gg0qlQo+nw+v14uu66ysrPDuu+8yPT3N7Owsf/7nf853vvMdAoEAmqbh9/vJZDKMjo6Sz+cxTdOtkBZCCCGEEOJBMk2TlZUV/uM//oP//d//ZW1tjRMnTlCv1wkEAjz22GOMjo4yMjLC8PDwjpZ5QgghdpLgWQjxUNE0jVwux+joKMePHyefz/Puu+9iWRaKoqCqKo1Gg42NDa5cucLq6irDw8Ps3buXSCSyY1uO41AqlVhaWuLatWsEg0ECgYAbWs/MzLC6uko4HCaVShEKhdB1nWazyfnz5/nggw9YXl5GURRyuZxbcb0dNG8vgLjdS9nj8dDX10c2m8Xn87G4uMjx48eZmppiYGAATdMwTZNms8ns7CwbGxvs27ePXC53T/2Qo9Eou3fv5vr161y/ft3tTd3X10c6nXYrnlVVdVtzpFIpCoUCZ86cYXR0lN7eXnw+H6qqYts2q6urzM/Pk0ql6OrqIpPJ0Gw2WV9f5+OPP+b48eMMDg6STCbJZrP4/X4cx6HZbLqLNRqGgaqqt7VGEUIIIYQQ4uvkOA7Ly8ucPn2aN954gw8//JBarcbMzAzFYpHnn3+esbExnnvuOTKZjFyvCiHEV5DgWQjxUNE0jZGRETY3N3n99deZmZnhX//1X1ldXWV9fR2v18vm5iYfffQRH3/8Ma1Wi7GxMZ599lm6urp2bMtxHNbX15menubf//3fuXLlCiMjI6yvr3Pt2jXee+89tra22LNnj9uz2Ov1EovFGBgY4NKlS5w/f94Nl2OxGJqmMTMzw6lTpyiXy0xMTDA+Pk4sFsPv9zM6OsrY2BjRaJRLly5RKpWYm5tj7969+P1+yuUyS0tLfPzxxywuLvIXf/EXvPDCC/T19d31sYpEIoyPj3PixAksyyIajdLd3U06nSYSiexotREIBMhkMuzbt49Tp07x4YcfEgqF2NracgPker3O9PQ0J06cYHx8nIMHD/KDH/yAeDzOoUOHOHfuHG+//TZvvvkm5XKZxx57jHg8jmmavPPOO3z44Ye0Wi0SiYRbyS1tNoQQQgghxIPiOA7Hjx/nF7/4BdeuXaNer2PbNq1Wi2q1SiAQIJlMumufCCGE+HISPAshHiqfXvzuhRdeIBAIcP78ec6ePcvm5iYej4darcbCwgK6rvP8889z+PBhRkZGCAaD7nY8Hg/hcJhMJkM6naZQKPDRRx9x6dIlNjc3WV1dpVarMTAwwNNPP82+ffvcXsyhUIjDhw9TqVQ4ceIEKysr/OY3vyEYDKJpGqurq5RKJcbGxjh48CD79u0jkUig6zqpVIrJyUleeuklLl68yNLSEh988AE3b950+0dvbW1RqVTw+/0Eg0F31WxN0/D5fAQCARRF+dye1Z8WCoUYGhqit7eXRCLB4OAgw8PDRCKRHY/d3lY6nea5555DURT3GL7++uskEgm8Xq9bCV4qldye14ZhEA6HGR4e5vDhw8zPz1Mqlfj444/J5/P4/X4sy2JhYQFFUThw4ABPPfUUyWQSwzC+tu8TcXds28axbRwcZIHyh9P2HSFftJipEEII8bDb3NxkaWmJU6dOcfr0aXe9FlVV3XVMZmdnuXjxIrt27SIWi33l9bYQQjzq5FVSCPHQ0TSN3t5efv7zn9PT00Oz2eTy5cucOHECAL/fTyqV4plnnuGVV15h3759dHV17QhbthfQO3ToEAMDAywuLjIzM8OFCxdoNpsYhsHk5CRHjx7l5ZdfZnx83L3w9Pv9PPfccyQSCRzH4eTJk7z22mvYtu0u1Ldr1y6+853v8OKLL3Lw4EG3tUQgEGDv3r0EAgF+/etf88tf/pJz586xubmJoih4vV5CoRBHjx7lmWee4cCBA2SzWVRVxTAMgsEg0WgUr9f7lcFtIBAgl8vR399PLpdjcnKSiYmJHQH8p6XTaV5++WUikQimafLRRx/x9ttvu21MdF1ncHCQyclJnnrqKZ555hkSiQQej4fe3l6ee+45YrEY//Vf/8V7773H+fPnabVaOI5Db28v4+PjvPLKKzzzzDO3nQ/xzXEcB8uyMNvtzpsuJHl+GKmqiq53PjyTf3tCCCEeRQsLC7z11lt89NFHzM3NEY/H3cXD6/U6lUqFU6dO0Wg0eOyxx8hms/JzUwghvoIEz0KIh5LH4yGVSvH4448TDAZZXV2lUChgWRYej4dYLMbg4CDj4+Mkk8nbbpV7/PHH+bu/+zt6e3uJRCKUSiXW19dZXl7Gtm0Mw6Cnp4eBgQFyuRxer9e96FRVlXA4zNjYGD/72c84cuQIq6urNBoNbNsmHA6TTqcZGBhgcHDwturiUCjE4OAg3/ve9xgcHGRzc5NKpYJpmm7wvB0Yf7q3XH9/Pz/84Q85dOgQpmkyMjLypcdou7Lx6NGjeDwe0uk02WyWaDT6ueN1XScQCLBnzx50XefYsWOsr69TrVYBCAaDJJNJ0uk0Y2NjbhXI9n56eno4dOgQwWCQp59+mlKpRLvdRlEUEokE3d3dTE5Okk6n3X7Y4pth2zbtVptGs0HjVk9yy7JwHAckeH4oKYrqfoDl8XjwBwJ4PB6pgBZCCPHQazablMtlpqen+e///m9WV1eJxWJ0d3fT3d1NV1cXgUAAv99POBxmcHCQ/v5+DMOQn5FCCPEVJHgWQjyUtlteTE5OMjk5iWma7q/tquMv68s2NTXF1NTUjq+Zpkmr1XJvSdd1HU3Tbnusoij4fD5yuRy5XM6tGK3VapimSSgU+tJg1efz4fP5SKfTPPnkk7TbbXdRQcMw3FYan5XNZslms3dxlDr279/P/v37v3KcoigYhsHg4CCDg4MAWJbF1tYWwG0tOj5ru2pkfHwcy7LcIF5VVTwej7TW+DZwOhXOpmlSq9Uol8uUSltYloljS+D8KPB4PO6in9uvc/KmWgghxMOs3W5TKBRYWFjg6tWrRCIRenp6yGaz9Pb2ksvlyGQyZDIZstksqVQKn8/3ue8DhBBC7CTBsxDikbB9G9x2MHovQYqmaXi9Xvfxd7MNTdPcMOdue8FpmrYjAPo2hUCqqhIKhQDu6uJbVVW8Xi+O47hBvvh2aDVb1KpVtopFavUatlvpLB4F2x86OEDbNInFYu7rnhBCCPEw2i6CePbZZxkaGiIYDLoVzn6/f8ef/X6/LCwohBB3QYJnIcQjYXvxvW9iG9tB8b1W9G5f2H4bqyoURbmnthh3svih+CY4NJsNKpUKtVqVVqv1TU9IPGC2bXcWk6zVAAj4/V94d4cQQgjxMNA0jWAwyMTEBPv377+jtVKEEELcGXnXL4QQQggAHAd38RzTsr7p6YhvkGWatJpNGs0mumHg8/m+VXdbCCGEEPfL9vovgNyJJ4QQ95kEz0IIIYS4xcFst2m3Wji2/U1PRnyDtnvTt5stTK+J43UkeBZCCPFQkjvxhBDi6yOvrkIIIYRwWbaNJdXOgk743G63MNttkDbfQgghhBBCiLsk95AIIYQQQojPZdsOtmPjSPIshBBCCCGEuEsSPAshhBBCiNs4joPj2DiOhM5CCCGEEEKIuyfBsxBCCCGEEEIIIYQQQoj7SoJnIYQQQgghhBBCCCGEEPeVBM9CCCGEEEIIIYQQQggh7iv9fm7sjUv/3/3cnBCPrJAvStSfpDuaI+KLf9PTEUKIb4yqqmiqjqbqKIpC22xh2ebX2ndYURQM3XtrnwCK+3eOY9M229i2ie3YX9schBBCCCGEEOKP3X0Nnn955v+5n5sT4pHVGx9iKLUbj+6V4FkI8VBRFRVV1W79n4NlW18aImuqjs8TwOsJoKs6pVqRRquK49jA1xM+q4pKwBvC5w2iKuqnYmewbIt6s0qzXce02ti29QcH0IqioCgqOE5nQb+v6XkJIYQQQgghxIN0X4NnIYQQQogvM9q3j/3DT+D3BCjVirx34besFha+cHwinGYku4eR7B7ioSRvTf+KK4vnaLSq2Lb1tczR7w3y5ORLjPXtx+8JoLlBOdiOTdtsUaoVWSsucnXxHFcWzmBZFrZzd/NRFAVdM4iHuxjqmaBS32J2dYZmu07bbN7vpyWEEEIIIYQQD5QEz0IIIYR4YLKJAZ7Y/SIRf5y14iIXZj/80uDZ5wmQimYY7pkgHcty9sYH6JqOsqMO+f7y6D4m+qZ4cvIlQv4IbbNFtVEGOmGxpurUW1XWt1bxegJsVTcplNepNkp3tR9VUQkHYuS6Rnhs9FmW8jdZLS5j2m0JnoUQQgghhBB/9CR4FkIIIcS3Vrm+xY3VK5hWm3AgxuLGTVrt5q1WG18vy7ZoturcXLvK9I0PAAdD85CMdJOOZelNDmDtOoau6nxw6X+5unj2rrZv6B4GuseZGn6SqeGjKIpyq7XH1xeqCyGEEEIIIcSDIsGzEEIIcReWlpY4ffo0tm3j9XoJh8OEw2GCwSCBQAC/34/X68Xj8XzTU30oOI6DbVuYtolptbAdm6AvTF/XEIZm4OCwWlikUF4HwKN7CfjCRIMJosE4G1srbFU3aZlNfJ4giXAXYX+UgDeE7dg023UKlTylWoFyrbCj37Tj2LTMFsv5WT688iYOYGgG8VCK0b59JMJdpGNZDow8yY2Vi1xfuYhtd+aXCKcJBzr7URQVx7FpthtsVTfZ2FrBwSHkjzLcM8Fo7z664330V/LsGTjE7OpVVgsLWI5FwBMkGe0h6A3hNXw4joNptak2yxQrefKlVUzL5Ovqdy2EEEIIIYQQ90qCZyGEEOIunD17lr//+7+n0WjQ1dXFyMgIw8PD9Pf309vbSyaTIZVKSfB8n/g8fpKRNIPpURKRNHOrV/HoHo5OvEA4EMdxbN6c/qUbPPu9QfpSQ+weOMRE7gAnLv2ei3MfsVXZpDvey4FdxxjJ7KY3OUjbarGxtcLZmye5sjBNtb6F9ak+zbZj41htNkqrXJo/DY4DioKmaBQrebLJAQbTY4xkdpMIp/HoXtpmm1Q0w6HRZxjJ7KYvNYSm6rStFoXyOhfmPuaDS/+LjUMsmGQ4M8lAehde3Ueua4TvH/4/vHPuN7TtNq12g0yinyMTL9CXGiIV6cayTCqNEnPrM5y/+SGnrryJZVe/dIFGIYQQQgghhPgmSPAsxCPONE1mZ2eZnZ3l5s2bVKtV9++8Xi8TExMMDg7S3d2N1+sF4MqVK8zMzLCysrJjvKqqTExMMDw8THd3N4FAAIAbN25w5coVVldX2dra2rH/Xbt2MTo6Snd3N+FwGICFhQUuX77MysoKm5ubO8YPDAwwPj5Od3c3sVgMgNXVVS5fvszS0hLr6+s7xmcyGSYmJshkMiSTSQAKhQKXL19mfn6e1dXVHYFNKpViYmKC3t5e0uk0AJVKhcuXLzM3N8fKygqmabrjo9Eo4+Pj5HI5enp6UFWVZrPJ5cuXuXnzJisrKzSbn/Rq9fv9TExMMDAwQE9PD4Zh4DgOly5d4vr166ysrFCr1dzxuq4zMTHB0NAQ3d3d+P1+AC5cuMCFCxcoFovU6/Udz3nfvn1MTEwQi8Xw+XwAzMzMMD09TbFY3HHOAMbHx9m7dy+xWMw9Z3Nzc0xPT7OxsUG5XN4xfmhoiKmpKeLxOKFQyD0HZ86cYWVl5bZznM1mmZqaIp1OE4lE3HNw5swZFhcXKRaL2PYnbRNSqRRTU1Nks1mi0SiKolCtVpmenubmzZsUi8Ud5yAcDnPgwAFyuRyxWAxN0zBNkzNnzjAzM0OxWKTVarnjvV4vU1NTDA8PE4vFMAwD6ATKly5dolgs0mg03PGKojA1NcXY2BixWIxWq0U+nyefz7O+vk4+n+fGjRskEgnC4TCBQIBoNEoqlWJ0dJShoSH6+voIBAIoirRQuFse3Us0EKc73ks6liXoi1Bv1XCARLiLTCLHzNI5ri9foNGqEwnEGc8dYDS7j0yiH1VRsW2bkewkY337OTDyJI7jsF5aQVNUvB4/h3Y9TcgXptGqki+t7di/g4Nlm7TbTZxPVRVvVTdZzs+TivSQjHQTCcRJRjOoisKu3r0c2nUMTdMpVPNYlomhe+iO96EoKrZtMb9xnXqzurOphnLrNwV8hp+h7nGGM7sZze7BtEzm1q/h9wTwGn52ZfcCCmvFJVY25yhWNr7+kyGEEEIIIYQQd0GCZyEecZZlcfPmTd555x3eeeedHcFtJBLhRz/6EYZhEI/H3eB5ZmaG119/nbNnz7K29klIo2kaP/7xj9F1nUgksiPEfOONNzh79iwLCzsXEXvppZfQdZ1gMOgGz8vLy7z99ttMT09z/fr1HeOPHTuGpmn4fD43eN7Y2OD999/no48+4tKlSzvGHzhwAOiEjdvBc7FY5NSpU3zwwQecPXt2R/A8NjbGj3/8Yzwejxs8V6tVzpw5w/Hjxzl79uyOILmvr48f/ehH7nhVVWm1Wly4cIG33nqLs2fP7ghuE4mEe0yTySSGYWDbNlevXuX3v/8909PT5PN5d7zX63WPaSwWc4Pny5cv8+qrrzI3N0ehUNjxnP/0T/+UZDKJ3+93g+cbN27wq1/9irm5udvC+Zdffpmuri68Xq97zhYXF3nttde4evUqy8vLO8Y/++yzbkXvdvC8vr7unuP5+fkd4w8dOkQ0GsXv97vB89bWFsePH+fkyZPMzc1hWZ9UmY6NjeH3+wkGg0SjUQDq9TonT57k7bffZm5ubsc5yGQy6LpOKBQiHA67wfP09DSvvfYac3NzO8L2cDiMZVlEo1GCwaAbPF+6dIlXX32V2dnZHeG5oij82Z/9GfF43D3+22F4oVBgY2MDwzDQNK3TBsE0CYVCdHd384Mf/IDnn3+eRCKB3++X4Pke6JpB0BclEU6Tjvbi9waxbItSrYChexjJTJJNDBILdbFZWiUaTLA7d5C+riF8ngDNdh3TajOeO8ChXU8x1refC7Mfcmn+NH5vkGyin4Mjxwj6wixvzmNaJvVm9Svn1WzXWSsuUa5toakaQV+EZLgbj+EllxpmuGeCufUZri2dp96qkQh3MZDeRSQQw2v4aJkNri6eo96q0mjXO20/Wg02y+vUGhU0RWOwe4xd2T0kwl1cW7rAmWvvk45lyXUNs2/wCLqqc335EvVmRYJnIYQQQgghxLeOBM9CPOJ0XWf37t0kEgmOHj26o9LTMAy3knc7wATYv38/qVSKl1566bbK0FwuRzabdQNJ6FTUBoNBXnjhhduqbbPZLL29vW7ACJ2K2p/+9Kc888wzt1XbptNpcrkc8Xh8xzZ++MMf8vjjj99WbZtMJsnlciQSCfdrqVSKF154gf37999WUR2NRsnlcm5IDZ0A/umnn2ZsbIxCobAjJA0Gg+RyObq6ulBVFQCfz8eRI0fo7++nUCjQbrfd8V6vl1wuR3d3t9uKQVVVDhw4QHd3N9/73vd2hKqaprnnYDsUhk6Ym0wmqVQqO6p5t49fX1+fG5IC7Nmzh7/6q7+iUqnsOGfQCc/7+/t3nLORkRH+7M/+jFKptKMCG6Cnp4fh4WH3gwKA3t5efvazn/H888/fdo6TySQjIyM7znEqleJHP/oRR48epVKp7Aj/I5EIIyMjO85BKBTiu9/9Lnv37qVare44B4FAgOHhYdLpNLre+bFmGAbHjh1jaGiISqWyo0LaMAxGRkbIZDI72mEcPnyYdDpNtVq97ZiOjIzQ29u745hucxwHx3FQFIWenh5GRkbYu3cve/bsYXR0lFwuRzgcltD5PqrUS1xdPEc2MYCDQ3eij13ZPVxTFGKhFNlkP5ZtcnlhmmIlj8fw0p8eIRZKsVZc4sbKZS7Pn0HTdErVAsM9uwl4Q4xkJ9kordxR8Ozg4Dj2jiroltlgY2uZcnWTxfwN2maLeqtOwBci5ItgWiYe3YOhe2i2G2yW11hYv05PPEci1MXy5hzHL7zG/No1ipUNjl94jUvzp4mHUrTMFvVmhaA/jGm1cbBRFRVDM1BV7es83EIIIYQQQghxTyR4FuIRp2ka2WyWbDZ7x4/p6+ujr6/vjsf39PTQ09Nzx+NTqRSpVOqOx8fj8R1B9FcJh8NMTk7e8Xi/38/Y2BhjY2N3NN4wDIaHhxkeHr6j8Yqi0N/fT39//x3PaWBggIGBgTsef7fnOJ1OuxXfdyIej3P48OE7Hh8KhZiamrrj8T6fj8nJyTs+b5qm3dU5g05gPzQ09JXjOovd2Xg8HgKBAMlkklgsRjgcZnh4mKmpKQ4ePMjevXsJBoPS6/lr0GhVWdwosVKYp1ovkQh3Mdq3j3q7TiraQyKSZmH9OpcXzlCsbGBoBl2R7luLDXba63iMzh0cjuPQNltuK4yQL/wVe+9QFBVNM1AVDYdOP+i22aLaKNFs11FUlZAvSsDXWRTQ0D3gdGJqTdWwrDbVeonN8jrF6iam3WarusnVxXOUq5s023V3QULTMjvhtT+GR/N8ag4KqqqhKurXcJSFEEIIIYQQ4g8jwbMQQghxF7bbaUSjUQYGBjh69KjbMzqVSrktP0KhkFsFL+4v0zKpNctsbC1zc+0qAU+Qib4pmu0GYX8Uj+4lX17j4tzHFCsbJMJpdM0g5IugqTqPj3+HkWznQwyv4SfgC1NtlDtV6XdYma5rBmF/BJ/HBzi0zSaWbRENJhjO7ObYnu8TDsTQFI3NyjqaquMxfDsqpL+M1/Czq3cPkwOHmRp+AlXRqDcrVBtlPIYPVZEqZyGEEEIIIcS3mwTPQgghxF3IZrO8/PJl4SQeAAAgAElEQVTLeDwecrkce/bsYdeuXWSz2R3tUMTXx3EcTKvNxtYKl+ZOs7v/IJlEPy2z06am1qyyvrXMyuYctWaVeNjBsi1My8S02myW17m5egUFBa/Hz1Ztk2qjzPLmHFvVwpfuW1U1/J4AyXCaTKKfgDdMrVGhXN/CtFr0p3cx0X+QidwB1oqLXF++SL60it8bItc1jNfwfen2t/k8fsb7ppjsP0Q8lGKlMM+15QuYlkk0lHSfqxBCCCGEEEJ8W0nwLIQQQtyFyclJ/vZv/9ZdLFHTNDRNk+rmb8BGaZXpGyfo6xpiom+KgDdEuV5ks7zGWmGRYiXfaW9xq2VFpb7FVq3A+xd/x2un/l9UTSMRTrN74BCWZbKYn2W1MM+X1Tzrqk4s3EVvaojhngmC/gjF6iaF8jpts8lIZpKJvinioRRvn/1v/uWN/5uW2WCoZ4KJvim6Ytk7qnn2eQLs7j9If3oXc+vXePf8a7xx5hdkkgNMDjzG1NDR+3UYhRBCCCGEEOJrIcGzEEIIcRe8Xq+7kKH0b75XnUrjXNcIP33yL9ksr902olDZ4NzsKUK+6BcuzFiuFbm5eoV8aZWm2cDQPbTMJlcXz7FSmMdxbADqzRpXl87h9fjJxHNMDjxG22qjqTrRYJzB7nGWC/OsFpdQFdV9nKbq+Dw+Do4cQ/+BAThoqk7QFyYd7yPkjzK/fo3pGydYyt+81QKkQqNVB6AvNczRyRdRFaWzgGAkjcfw4tW9aKqOg4Nlm1h2G8eB/vQuvn/4/3Bp7mPqrRqqqqNrOulohl3ZPWxV8/SmhhnO7Cbsj2Land7Phu79ek6TEEIIIYQQQvwBJHgWQggh7oKu6+i6/Pi8V6ZtugvnxUNdPLPv5c8dN7t6lXK9RL1VxbTaNNuNW3823T7JtWaFeqvGamGRfGmVcCBGsZLnyuJZVguL7rZqzQqXF6YJ+2NkEwMMZ3YTCyVvBcsB4qEktmOhqzoKCrbj0DKbtM0mPsPHcGY3w5ndt7bWWVyyZTapt2rMLJ3n3fOvsb61hKoo5EtrbJRWqDRKdMWyPDHxIpqmEfCGMHQPbbOF43Tm7zgOjXadSqNMvVkhGUlzbPJ7WJbJzdUrVOolKvUy4UCUoZ5xHMchFe2hK5pBURRMs4VH96Jr8v0ohBBCCCGE+PaRdypCCCGEeGDypVUuzH3MyuYiYX/kC8etbS2xvrVEs93EcRz8ngBL+VnWt5Ywb4W3nQDX4srCNIbuIRnpZq24zMziuR1V1PVWlasLZ2m26myUVoiHugj5IzhAq92gUF7nxsol5tauUq2XMHSD6yuX0HUPfk8QTf1kIT/Ltqg0ShQq66wXl1lYv8ZqYYFmu4aCwsW5jzCtFo12HZ/hx3Fs8uU1as0Kumrg8wQI+sJs1QrYjs382jV0zcCn+4gEEzg45MtrbGwt8865X3Nj5RLDmYlOj2rb5NzNU7StFr3JAdpWm3xp1a2wFkIIIYQQQohvEwmehRBCCPHA5MtrXJz7mKA39KUL7VXqJdaLS5i2SaNVo9luEPAGWS8u0ba2q4YdHAfm16/RbDeIhVJU6lusFOapN6vuttpmi42tZZrtOsXqJj2JHOloBttxqDZKLG3cZH1rmUJ5/VabDYebq5epNsoYuhf1U60+TMukXN+iUFlno7hMvVn51EJ/CquFBWzHxrRMYqEkfk+A1WKn37RpdVpjJMJpNrZWsG3bDch11SAajGPoHpY2brJ5q3J6pbBAobKBz/BjOzazq1fYqhVY2riJrhnUW1Uq9eLXcKaEEEIIIYQQ4g8jwbMQQgghHpjN0hrV+haqoqEoX7wgo21bNM06jgNFdYP14iKqotJo12ibbbcPM8BmeY1yrYiuGVi2RaNVxbbt27ZZa1RY2rjBenERQ+v057Zsi5bZ2LHNltni5splFtdvfM4cnU71sdWmbbU+s59OEF4or3GuWUFTdVRFpW21sG61CFEVDV0zaLbrWHYbUNgsrzJ9vYKmdo5Jo12n3W7iANV6iY2tJXcezXYdyzLZLK2iKAq2bdEyW/dyKoQQQgghhBDiayXBsxBCCCEemPat3sl3q8kXt5Nomy3adxC+WraJ1epUUH8Zx7GpN6vUqX7puC949B3P507Gm1brc+fbbDfuYW5CCCGEEEII8eB8camREEIIIYQQQgghhBBCCHEPpOL5AVAVFUP3oimfLE7k0Kn6Mu32Vz5eU3UMzYOiqGx3mbQci7bZwmcECPmixPwpvEaASrNIqb5JsbaBZZtfzxMSQgghhBDia2TbNrZto6oqqiq1Ml9EUcCjK6iq8pVjLcvBtLm1OOsDmNxDRFHA71UI+1TiYQ1FgUbLYbNssVW9vbWTEEIIITokeH4ANFUn5k/h94RQFRUUBcexKVTXqDS2sBzz1iJJt1MUlaA3TDzYjaqonR6PjkO9XWWzskrYF6M3PkI2NkjYFydfXWGhcK2zXQmehRBCCHGvFAUUBUX56kBLiPutUCiwsbFBMBgkGAzi8/kwDANdl7cvn6ZrCvGQht/71f9OW6ZDq+3QtqBtOrRMB8tysCWE/kqqApGARiahMdBloKpQqTvMLLUo12wcp1NYtP1y+emXzVtr4SKHWQghxKNIrtweAL8nxO7sYfoSIwQ9EVRFxbTbnJl7l5m1s5QbBdrW7b0dVUVF1zwMJCc4OvISumoAnYWQFgrXOHHtNboivUz1P0XM30XAE6I3PoRX9zGfv0rLbODIJY4QQggh7oECaFqn2lTCZ/Ggvf322/zzP/8zExMTTExMsGfPHnp7e4nFYlIB/SkBr8LBXV56k1/9ts6yO+HzVtVirWgxt26yVbVoNOUdw1dRVYVsQmc0a9AT1/EYYFpQadgsF0xapoNtg6YqaFrnAwHohM6m5WDZDrYl4bMQQohHjwTPD4CqaAQ8YVKhLD2RHLpm0LZarJeXyFdXaLSrnxs866pB2BejJ5pjpGsvumbgODaVZolyo4Cqang0LxFfnKg/QcAbpmU2CHk74bYQQghxt1RFQVVVbFtuHX7UKYqCpulomvbVg4W4z2ZnZ/n973/P/Pw8s7OzLCws0N/fT3d3N6lUimQySSQSwefzPdJBtKErZOI6wz3GV461HbBsh62qRjxk4fMoLGwoLOVN2qaDJS/7X0gBvIZC0KcSCah4DQXTdvB5OneFKICuQcCnEA9qJG6142ibDvmyRalmU23YOHKMhRBCPGIkeH4ATLvFRmWZrmqGrnAGHQNFUYj44ySC3WyUlz73cYbuJRnsIeJPdtpsoNC2TTara+QrK7TMBrVWmXxlFb8Rwmv4KTcKlJudNhtSuyCEEOJuqZqGpmm3eoDKz5FHmaIondYGhiEVz+IbYZomV69e5ebNm7z11lvE43G6u7s5evQoTzzxBBMTE2QymU7wJ9+jX0lVQFEVYkGVoE+lO6YRCbQo123KNRurJa/5X8RxoFK3KdVsuuMOqgXVpkO96dA2HWzbwe9VSUU1xns97On3oihQa9icm2tyfblNo9UZJ4QQQjxKJHh+ANpWm43yEvlwL5ZtAaCiEvWnSIUy3NAufO7jPLqPZDhD1J/o9HYGLMskX1lho7KMabXIV1Y4v3iC1dI8QW+EUn2T5eJNWlbzgT0/IYQQDwsFn89HMBikUq1itr96AVzxcNJ0DY/Xg9fnxTC+upJSfHOKxSILCwvMz8+ztPT5xQwPUq1h8cHJIrWGzb+YMbri9/b988EHH2DbNvV6HdPsrFuysbHB8vIylUqF2dlZBgYGGB0dZf/+/WSzWWKx2CMfQNebDpWGTb5sUa53ymsVQFUhGtSIhzSCXgWfoeDRNbpjOgNpg/m1No2W9c1O/lvMchzWtywUpRPUq2rnWC9tmliW4/Z3NjQFv7cT7itKpwra51HRNYVH/FtTCCHEI0qC5wfAtDoVz/nqKqbdBhwURSUWSJEMZ/Do3s99nEfzkgp1Kp63r1NMu02+ssxGeRnTbrNRXiZfWcHnCaKrxq22HW2cL7iPS2G7ImT74keB7dpo59P//eTT+M7tY8qtsXTGf2ZMZ5x6a1xni7fPQUF1r7i29ysVdUII8W2hKAqBYJBwJEKz2cQyv3jxW/Hw2q509vp8eL0+CZ6/5fL5PCdPnuSNN97gvffe+6ang2U7FMsmlg2XP9Ax9HtL26rVKrZtY1mWGzyXy2UqlQpra2ucOHGCcDjM1NQUf/mXf4lhGESj0Uc+eK40bBbzJhfmWixsdI6bqoCmwXDGYDTrIZvQ8RoKmgKxkMpIxqBct1kt3h48K8qtdwDKJ+8E4Fav4lsL5n3ejwnl88Zv/91ntre9MN+dLMB3r/O52218di62DatFk42SxbXlNg6O29fZdjrbVJXbn/f28/3033/p8bqH5/Wlx1r5nC9+ZuydnL8vGyuEEEJ8GQmeHwDbsWm0q5Trm2xW19BVHb8nhN8IEPHFCHgjeHUfLbPphrmqouIzAiRDPUR8cVAUTLtNo11js7JGsbaOZZvEginSkT6Cngge3UejXadQXWWpeGNH32hFUdAUnYg/QTrSSzSQIuyLoSk6DjZNs0Gpvkmhus5mdZVSfRMAnxEgHkwT8SUI+2I4ODTaVebyVyk3Cre2raKrOn2JXSSDPQAUamssFK7RNpvYtwLooDdCLjFCwBtBRaXa3KLUKLJZXaXeqjzIUyKEEOILGLqBPxAglkhQq1So1WpYliU9nx8BbuDs9RIMhwgGgxI6/xHo6uriySefZGBggO9///vf9HSoNWx++36BWt3iu0/E77ni+be//S2/+MUvCIVCOz4AUxSFwcFBRkdHGRsbY3JykqmpKdLp9CMfOgM4joNpOTTbDrXmrYrnW6Hn7KpJveHgNzoVuQAeXSES0PB9zgcEPo9CyKeSjGjEQip+j4qudcLHesuh2rBZ37IoVCxa7U96RPu9nV7IibBGyNvZbrluky/bxEKdrwe9Crqm4DhQqtnkKxabpU4v5M8LNzW1UzncFe3MJexX8egKqtrpo1xvOWxVbQrlTrW3ZTu3bacTwCukIhrJiErYr+HzKOhaJ1g2LYdy3aZY7TyvWsN2n5OqQiKsEQt2ejxrqoJtOyzmTTZKNl1Rje64RiahkwhrbmqrawrpmIZtGyRDGot5k8W8uWNefq9CPNR5XrGgitdQ3Tk1to9zyWKzZNMyOwsVflpvUicd7fTib7QdtmqdimyfoZAIa/g8KtW6jWk5bqDsAPW2Q6Vus160aLY/2aauKXRFNaJB1f2AAmBp02S9ZGN/zrEVQgghvogEzw+A49i0zCaV5hYb5WUCnhABTxiP7iPgiRDxxfF7QrStFo7jdN74aV78nhCxQIqgN4yCQstsUG4U2arnqTRLOI5NxJ9gKDVJxJ/AZwRotuvMbV5lrbTgBs+KouLRfUT9SbKxQQZT43SFe4kHuzE0A9uxqbcq5CsrrBTnmNu8CjjUW1U8upd4ME1fbJhsfBjHsdmq59mq5ak2S9iOha4aBDwhBpLjDKZ2AzC/eZVibYOyU6RlNlAVjbAvxq7u/SSC3aiKyurWPEvFG1SbWxI8CyHEt4HSabHg8/luLSyndT74bLexrE4lnLzXfDh1KvIUvD4fgUCAUCiEP+CXIO+PQCQSIRKJMDEx8U1PBYCtsskGyxRKJq/8XxmGen33tJ319XVeffVVQqHOhyCBQACfz4fX62X//v0cOnSI/fv3MzAwQDAYRNflbQ10qm9tuxPGtto7X7GbLZNq3Way34Nzq0pXVxWCHgX9U8GzpnYC6UREoyeuk012WnKEfCqGruDQ6Xdc/P/Zu7dfOc7zzvfft85Vfe5eJ3ItiqRESZYsO8kk40lsJJlgNmYj2QPM9c4fkn8pmIu53EAuAgQTxBMge8fxQY5kShTP67z6XFVdp/fdF2+vRVIkJUqmRFl6PgANe7G7urp7Se7+9dO/Z9nQimoCT3E2b8gKG9SGgQ2Xr2/7bPZswD1eaJKzmu2Bx6WhRy9RBL5CazibN+xPau66Cm1q8sKG5/AoNO8mNgC/uuWzPbDL+0Jf4TlQVIZlbjiZN+yf1Shlg+6seBRiKwXJejHga1seeyMbENv7BI2GsobxouF4WuO7ipOZDcIbbXCUot922dvw2OzaQBZs0DtZajb7Lq9t+Wz3Xfot92Ja2HNgo+MS+Yrtvg2Nz4Pn8zB9o+uyu+mx03fZ6rskoYPvKhoN6coG4e3TCt+rmSwa0hVPBOs7A4/vXbEf8KQrw/GswXOhHTvsDDyS0OFkWlPWBt9VuI59PJYrw9G0ZpHpTwXPcGlo72srtJUhWtug+nQhH0ILIYT4YuQV2tcoL1MOZ/foJyO2OrsA+F7AsL3NWXrIYjUFo1HKoR316MVDAi/CUfYT7Hk+4Xj+gFWVXkx+JEGH7e4VRu1tkqBDXqYsixmuc/7UKnw3YNTa4Q+u/ilXhjcYJJuEfozvhjjKwWBIgjbdaMCl3jU2u7vcPdvhN4f/RlkXODh04yFXR29igPHyiI+PfsU4PWZVpSRBm83uLruD61wdvQmANg370ztoo6maktCP6ScbXBncYLOzi1KwqjIOZ/cu6jmEEEJ8MyilCIIA13VJksROPDfN+mu2Ej1/GzlK4TgOrufhui6e511UcwnxKlRVxWq1Ym9vj7feeov33nuPN954g6tXrzIYDOj1enS7XeI4th+Sic+lDTQG6sYGl65j//nWn+qViAOHSyOP13d83tz1iQNlJ18dxfoqxIGd/t3ouuyOPH55u2B/bIPtwIVWrNge2L8D2Oobrmx6xKFDEip81x7LYCerR12XbuzQjhw+OSyZLu0JuY4iDBTfuxJy47LPoG0XI/qunXZWCqIA2rFh0HHZ6rlcHnl8eL/k1kFFow0KO+m8O/L44esho45LL7Ehuuc+qr8wBlqRnYjeGXp8clDxyzsF2cpeph0pNtf3N15Pct86qHGcil5ip7FHHffi787Pv5M4JKHzROgMNnR+c9fn6pbPlU0bEIeeYv2ZLxiIQzt5vNF1uLrl86s7BfeOK5a5oV43o/TbDlc2bfBcVobNnovvKfu8BYqmgaln33Gdn0scKIraEAWKu0c2fNbGhvyBZx+rG5cDAk9RVnbq2neV7bOWlwFCCCG+AAmev0Z5lXE4v8fl/rWLn/luwKi9w8niIfuT2zSAo1y68YhBa4vADS6mjWb5GYeze+RVxvmrQ389bdwOe7TCLq7jEfnJxXUcpRi1d7i68TbXN95lp3eF0IvJygXT7ISyLlDKoRV0iIMW3XiA63p4rs/Z8pCTxQGrKsNg6EQDwHZWd+IBcdCiqHOSsMNWd49BsnlxmUGyyXZ3j8Vqwiw7I/btsbvxkG48uLj/WbWkMU9+3UwIIcSrdT7t7LouQRBgjEFrLaHzt5haB88y4Sy+Ka5fv85//a//lRs3bnDjxg3efvttrl27xt7engTNX1ISKoYdhzB49M953RiywlCtaxg8V9FvO7y+43N9x+fy0LPVHTVMU01VGxwHktChEymS0E4ezzNb5XC3sH/vu4okVHRiO/EcBYY4UGSlYbq0U7OBr+jGDkng0I7O+4MV40VDurJTz53EYXvgcnXb47VNjyhwqBu7QLGobPgaB3ahXzexgWondliuNPPMTmU3xk5MXxp6XN/2SUIbeo8XmsVKU5SG0Lfn22vZyepWpKhqw9HUTkDnhZ0WjgNFO1Ik0XlViT3vrLBVH5GvcJSDH69DfWOXEGaFPd90Ze97HCo2ei7Xtn2ubfmMui5aG4raMFtoqho8D/vYxA6tyN6vdGUf5zuH1cVUeOg/epyb0E52O+vnsqoNeW0rOqra4JWGdrwOoLU9707sMF0qVpUh8BXtxKHfdhm0HRxHMV02ZKX9HZGXAUIIIb4oCZ6/Rqsq5Wh2j/lqfPEz3w3YaF+in2yilH3B4CqHQWuTUXsHzw0uLjvNTtmf3WFVpi98m47j8trwLb536Q8ZtbcJPfu12dPlPrdPP2CWjXEdjyvDG+z0XiP09ujHGzgo7nQ/ZFnMma/GpMX80TGVSyvskAQd5vmYVthlu7tHHLQvLhP5CVudXTvRrBRx0KYV9nCdR28U0mLBOD2mqIsv9XgKIYT4elzUbpiLdbTiW0YCZ/FN82d/9me8/fbbDAYDOp0Ovu/j+76Ezr+FYcfl+o5PL3FwXTsBW6yrIlalDZ6T0GGz7/HWbsBG1743KSrDeKm5dVAxzxp8T/Hapsfr2z6+p2jHDjcu+5SVeaq/+Fyzrmq4d1zxcGwvM2y7vHU5sF3Cju0jBrh95DBeKpa5YbPr8oNrIZcGdlraUTBdau4c15zNG5Yrzc66W/nSwE5m+57LlQ2PVWm4+cD2XV8aeGz1XTqxPUa60nz4sOT2YcXprGHQcdjb9Hh3L2RvwyEO7TT3tS3PhrfF8wdlqhrunVSsSsNs6XF1y6MVOyhs5cnDs5r9s5qzRcPhpEEpGHRslcWVDY9R18V1bE3G2aLhzlFl6zVih92hx+uXfBt6h/DGjo8xcDRpyMvmqSDYXXc7N9oGzfNcM1naypBVaZhlNmTfWN9m6Cu6LYfW0qGoGpJ1N3ccqIuJ+OXK8OCsZpFLzYYQQogvToLnr1GtK7JyYZf4ZSckQQfP8eknG3SjAb7rUzUljnIZxBuMWtv4TkCja+qmYpadcbY8pKhXL3R7ruMRegkbnUvs9K4Q+QmrOmOeT7h98gEfHv6MvMxwHZdpdkJR5QySLTzXJ/RjRu0dzpaHPJzcIi0W5FWK74a4jkcnGtCO+jjz+7TCLlvdPSK/dXHbkZ+w2blMO+ziKId22LPLDB2PRtdUTUlazElXM+rHliAKIYT4BlNIPZIQ4mvR6/WI45gwDGXJ5ReQhA5bfZfvXw3YGdgg1/YkK0Zdh82eR6/lgIFKGyZpw+2jimna4Dp2Inqz+2j5H8DDs5pbBxUH45p0ZXBdaBpbI7Ez8OjEdineowWET///xDzVfHJUcf+k4nBiOyLOJ5+vbtqqifMgtN9y6bca6trWSOyOPNqxg9aG+coGub95UDJLGzshnNpgNXAVo56dwB51XVal4cFJTd1o4tCG0o5jC4QaA2mumS7tZHTVrCeClboIWGeZZpppivqzP3DVxrDINJ7TEIeKzdJ+UIuyf7dc2YWHh+Oaea5R2ND90tC9mE5uNByMaz68X3IytxPfoa8oSoPnwlbPpddyaccOw47DoONcLB58XKPtBwUH45q7xxXZeto6XdkqjcBTjDrOxeUDD0Zdl8miYbJo6EQOWz27dPFcttLsn9UsJXgWQgjxJUjw/DXSuqHQObPsjOP5Q3Z6V+hGQzrRgE40IPAiyrrAdTx6yQaDlg2B68YG1rN8zCw7feHb8xyfOGgxbG0xam0DsFhNOZrf5/7kFndPfwPY5YMn84ckQYfv7/0nXMfFdTyGrS36yQZ3zz4kKxekxZx22LPnt67McB2fVtBhs32ZyI8vvoYdejEb7UsX9R/tqEcnGuA63qPQuZiRlYuX/0ALIYQQQojfaUEQEATB519QPKEVORcTrbW2r8ud9RJB37N/jIFqXbFxMmu4fVjaQNmxU9Eb647g8y9CHIwbPrxfkq5sBQTY0Dnw7bRzv2V7lzuxQxKpZwbPs0zz0cOKw3HNZGmD53nqUNY2DL2y6a2PC72WrXpIV4ZuYoNQgFVpGC8a7p/WfLxfsirt/TueNCwyzU7fI4kUoWc7nM3IIwkVy5WtnTif4AXA2BoMsMv0VqVZB+I2+DUGitqQF0+Hu59mjL3+Ite2AqR+dHlt7ALCRa6ZpJqyso/zoO2w3fcIPYU2jyajf/5JQd0YmvUhytoGz75nlxue12oM2y6LzJB96tzqxpDmmo/3K/75w5y6Mej1RQLPVoRc27YhtFL2uBtdl9OZizqu6cTKBs++c3H+6UpzOLF1I0IIIcQXJcHzK7BYTdmf3qYT9enFI1wckqDNRmeXwI1wHJd22CXyExzlkpZj9qd3WBbTL3Q7oR/TjYb4bnjxM8/1SYIOV0dvE3kJYL9eq1BcGb6Js677cJQ9p1bQwVEuebnkZP4Qt+eShJ318sMR7bhPK+wRB20aXbGsZwC4jkvox7TCHt14QC8e0o5saL2qck6Xh+RfoDJECCGEEEK8PFprmqbBdV0cx/n8K4jfCefdvo4DgbFBq2I99ezYkHORaY5ndtL5/nFFtu5TjnzbJdyK7PXPbfZc3toNbIi5zh57LYeNnkvy2GSs6yriwEE949fJ7gowT9Q1VbVhsmiemKR1HHXR09yObYh+rtaGaWonlPWnsuCqgfGyYdhx6SU2GPddRRQ4QMN40TDLGoz2QdmO5R9cC7k89Jil2obGuabWhuX6v69KQ62hql5+4BqHNqj3XPshwCLXZIV54jEGWJX2udrbeHSHXccG/lGgntr/WtWGWabJCtsF/XgVR63t9PM81UwWDe3YsVPi62WLjrIfXGx0bcBd1eaiK3u1PjchhBDii5Lg+RVYrKYcTO9wZXgDMCjlEAdttjq7BG6IMZok7OCv+53TYs7D6ScsV7MvdDu+G9KOuhfHsT8L6EQ9rgzeYKN96YnLd+MhjrJrlJVxCL2IwItwlENepRwvHtJLRrZmI+wxSDYZJJu0ox6BGzApZqSFnWBOwg6DZIN22GWQbNFvbdIJe7jKo6gyzpYHZNXyt3sghRBCCCHEC9NaUxQF8/mcxWLBfD5nd3eX7e3tV31q4iXRxk692sV7trc58NRFP7LWdpJ3smy4tV9yPGso1sGqUnbhX+jb5XvnRh0HRz1ZdxL6NiB+vJLBUeB7PHcTgDY8GYQ25iLgXTdToLDnG62P7z82Pd1oO32bFfqpbuOmMaQrQ1ZqzPpcXMcu6DPAeKk5mTWczBpakT3vvZHHVs9lkWtmqf0zWTaMlw1lZaedV4WdDvafMcX9ZSmlCD27ENF1FEWlyUs7Dd18KlAvK7u0sHgs/M0LZ28AACAASURBVHYdiAJF8Ix38o22YXVRmafCea2h1IZ5pjmdN3iuDbB7iUNvPbXebTn0Wi6+t+72XmimqV1OKIsFhRBCfBkSPL8Cy2LG4eweWbnAGPuCMPZbbHevEPstGlM/0ZecFnMejG8xX02+0O14647nxxf6hV7EINmkGw3RpvnU5X18N0ApRcOTr1Tycsnx4iG7gzdwHJdW2GXQ2mKru0cn7GEwTLMzThb7KKXYaO9cTDlv966w0b5ENx7aiec643RxSF5K8CyEEEII8XUwxlCWJQcHB/zsZz/j17/+Nb/5zW/467/+a/7bf/tvr/r0xEuSlzZAPZzUTFONo2C773Hjkl0EiILQUwSeotZQf05/MdhFeO34yTFmx1EX09VfljZgGkOjnzwHBTjOo8ntc8ZAo22g+umzNtjw+dNhK9gp4GyluX1ou6mv7/jsjTxakQ25z0PXrb6hbrxHFSRHFR/cK8nLl99t7Dq2/uS8zsSYZwf22tjn6NOBtLv+xuqXsVxpDqcNvZZDN3EIfMWg7bK36THq2H5nR0FRaQ6n9UUXtxBCCPFlSPD8CpT1isVqwjwfsyxmxEGbOEjY7u6RBG2qpiDyE7TR1E3Fophyutj/wkGtNppG1xe9ywBVU7Is5mTFnOwzqi4aXTPPx5ws9qmaEmMMp4sDVlWKUorADeknI64MbtBvbWKMYZafcTi/h0LhOT57A00vHnFleINBsknoRTiOw6rKOEsPpGpDCCGEEOIrdF6ncXR0xMHBAQ8ePODOnTvcvHmTjz76iI8//pi/+Iu/eNWnKV6isjLMU83D05qDSYOjbP9wf92bHAd2orkd2dBxkTmkq8cmiNcB6MX/NFxMA39eRG2XD2oC/8UCUUeB59mp38evoY2dzm30k7UT53Uh5wsCH6ewVR/u40H1+vy1tl3Jk4V9b1VUhumyoRM7F0sHk9AhiRySUNFN7JLGRsN40XA646JP+mXR6xDddeyHAUo9CqEf5yi1fow+fX3zuc/H8yxyzdGk5srGk73ab1zyGXXdi9sqKsPJtGGaNs8fYxdCCCE+hwTPr0Cja4o6Z5KecrY8ZrsXEPkttrp7JGGHosqJ/JhG1+TVkkU+YZqdUDfVF7qdSpdk1YJaP7peWsy5f/YRDya3OJzff+51jdFUdcGymFHWKypVcro8YFVlKBSu49GNBlzfeIfQizDGMM/HHM3sMdthD200w9YWSdAmWS8ZBFhVme14lqoNIYQQQoivTNM05HnOr3/9a/7X//pf/PSnP+XOnTu4rkuWZUynU9JUBgG+Tc57eY+nDQ9O7HsAo2HYdnEcSEKP0LdTvtsD11ZXrB6FytrYy8N6CtfAJ4cVv3lQfm7VQlZoJkvNoP1ineGuq0jWwe85AzTGdjYX9ZO9wue1Ib77dLex49jj+N6Tf2EeWyKYl5pVpRnPGz64z0XNxLDrcmnosTfy6LdcWpGi31ZcHrpMU5+msaH6y2KMoWoMZW1srQkKz+WJepNzngtJ5Dxxv4yBuuGpSfEXtcw1h5OG7LFlgb2Ww1u7AdH6uTAGigpOZg2z7PM/dBBCCCGeR4LnV0RrzTg95njxgEFrkzCKL5YJNkFF6EWU9Yrj+UOm2QnaNHzRz7WLKmeWnbGqcrTRKKXw3ZBePOL++GMmyyNqXdGsKzc8xyfwIlpBB88NWBZzFqspja5RymFVpqTFnKxcEnoRnuPTCjuAotIl83zC6fIAgM3OZapmReglJGEX3/HRpqGsS7JySVrMqeryZT+sQgghhBDfeWVZMpvNeP/99/mnf/onbt68ya1bt7hz5w7T6RTXdWmahrqu+Yd/+Afq+uWFaqtC89NfzMhXGvesx7D36t5u9Pt9Xn/9da5fv87169df2Xl8nS6mfA0X9QzTtOHj/ZIkUmz1PRSQhIrr2z6rwnA0aTCNXf63zO2ivVHXvegQ9j2F68J4rp+onVAo+h27AHCRadKV7Rb+dC0E2NqMVqwIlo8C1MBTbHQ9usmjoFprW4sxzxoW2XrBX2MulgVudF1OOy53j+uL5XneOsAedewUt1J2wjldGValJgoUr++EtCNF4CvywobzJ7OG41nDIrfT0PtnNb//esj1yMdZh9yd6MkFh1+GUjw1zbzMbXfysKPwPejG9tzbsXNxn8FOXl8auLSjR49R1WAXCK6e08/xOarGkK40s9SGyu1I4TmKJLSLC7VZn9/ShtMv8V8PQgghvoMkeH5FtNFMsmOO5w+5vvEOjnJw3OCJRYCL1Yzj+X0m6ckTdRkvqqxz5vmEtJhTVDmBFxF6McO2nUIGW71R1YX9ipffwlUerbBH7CecLQ8o69xuoTY1jW7IigVpMcN1XEIvJnBcqqakKHMWqwnT9GR97hPyKiX0YkIvuritvFySFQtWVfrEJLYQQgghhHg56rpmOp3y/vvv8z//5//k+PiY5XJJURQ0TYPjOBevLX/+859zcHDw8m67MRydldTaML4XEAUvNv36Vdjb2+PHP/4xcRx/Z4LnZ1muDLePa3ZGHjcqje8posDhtQ2f6VLzwf2SvLCTxrNMM0kb9hoPY2z9QztS9Fsuk4UNlo05r7aAOFB0Yoe8sP3KTWPQz3jfEq57hOepZpnbZLqbOOwMXfptu4/GYMPyxTqUXWbn4bEh9MF3YaPjstVz6SbnyxINUWhrREY9l05sg+e8NMxSG5xGvuLGZZ9LQ49uotYd2A15UXAwqcmLhumy4XCiuLblw3rXpuNA4PNUzcVnOZ8SP3exLDFwiAN1Uf0xz+2Cv3bkECUO7dg+Phs9l1mqyQuNUtBvO+yOHoXzjbbdy9NlQ1p8uUnkpoGiNExTzXSpCX2XOIBgPXJdN4ZZZpcsFqX+0pPVQgghBEjw/MoYNLPslNPlPqsqQ5sGR7lPXKaocw7n9xlnx1942hlsuF01BQfTOwxam7w2fJM4aJGoNm9f+gN6yYhJekJepbjKpRMPGLa2iIM2TVNRNSWNrpllZ+uQ2LAsZozTE+KgTejFgK3vOJzfJyuXmPV38/JyydH8AZ7jM3wseJ5kJyyK6ZcK0oUQQgghxOcLgoCdnR3+9E//lHa7zb/927/xi1/8gnv37pGmKb1ejzzPOTk54S//8i/57//9v7+0217mDf/PP56xzBr+rz8bsTMKPv9KX5EkSdjc3GRzc/OVncM3QaMNZQVn84Z7xzU7Q49urAh8G2xe3fI5GNdMlw0n04ZO5HB9SxP6dgnhzsAjChy2zkPRUhP5Dq3YYdR1iHzFeKG5fVjxyzvFM89h0Hb5/pWAYdthb90t3Ikd9jb8i2qOpjHkheZs3jBeNFSNYbJo+OSwYnfkMey4JBFc3fLxXJimmqwwDNoOG12XUcfFc21f9Mms4dZhxTK34ew802x0DUno4rv2fq1KQ69tO64jX9FvOQw7T04WL3JDUb3Y+5ZGG7JCP3H5wFNc2fCIfMV23+X+Sc2D04rxvOH+Sc12z6MT24noK5sevhdzNm/ICvv4b3Rd9jY8WpHtnJ6mdkp7mmpWxZd/P6UNTJaak3nNsGND8Uf3A87mdiK8aj7jIEIIIcQLkOD5FTHGkJVLZtkZi9WEVbVN7LdRSmEwNE1NViw4XR6yyKef26n2vNuom4r92R2iICHyE7Y6u8RBm53uFQbJFtPshLzK8ByPVtiln2ygdcM0PyPyE9vL/Nh3w5bFjEl2zGbnMoTnP5tzNFsHz+uAPC9TjucP6cUjhi07NlA1JZP0mEU+RTZUCCGEEEJ8NTzPo9Pp8NZbb7G9vc329jabm5t89NFHHB8fY4zh+PiYNE157733+Mu//MuXdtuzRc2t6QGTec1//otLXN+NXtqxxZdjO4ENZ/OGu8c17dihGzu4jp1kvr7jsyo1k2VjF89Na+6f2n6FUdfWPLTWywjTlZ3GjQJbCxEFat0J3XC0Xmb4LKGvGHVcgnWYChAFNuj11vUOs1RzNG0YLzTpyqAbw2TZ8PF+he8qosBODo+6Dq04YJHby/Vb9lwCV1E1hkVmODiruXdckxUGx4HjaU2vZcPzMFCMui7Xa+i2HBa5Jg4U/cSh33LRGlbrqeKTWUO6ekZ3yDM0DaQrQ7YyFLXBdxWea+93EjoMOy51A4eTmnluqz0OR7Wt9Ejsc9GO7P0rSkPoO7QiO1Fea1sP8vCs5sFJzTLXVM2Xfz9ljFnfP4fr2/YdnMK+Q6u1sUsV1+G/EEII8duQ4PkV0rphVaWcLA7oJRuE3QRXuRhjSMsFs9WY5WrCqsr4skGtMZrD2V2qpsBzfBpdc3X0Fq7jE/sufucy2mhA4TounuMzzsccze9zujxgnk/Q+lGx17KYMUlPqJpH0wxpMedofp+8fLQscFVlnCwecql39eJnVVNwlh4xX41l4lkIIYQQ4isWRRGe5/Enf/InvPvuuxweHnLz5k3+5V/+hbqumc1mhGH4qk9TfE3GC42jKq5seuwMDI5S9BKHty77nM5sUNtow3ih+fmtgqww/NBXJJFD6CnakSIJXBrj4ihbQaENzAvN3eOK/XFN85wJ2bqxtRmhr+jE9i2oo8BzbP1ErQ33Tmo+vF8yWTZobcPQyVJT1CWhr3Bdxe7I9h7HgZ1aHrRs5Ye7HpSZpZo7RxV3jiqOJrYHWim4c1zhOopWqLg09Bi0XbYHLqOunSR2lF126Lu2H/p42nDvxB5nkb9Y8Fw3hkVmu5PnqaaT2PP0PYXrQBy4PEgcHKUoSlu18et7JUVteOdKYOsu1gG9NutzcmzdSboyHE0bPrxfcueoYlX+du+ltIHpsuF05rCqbL+3u34uqto+7pOFfmK5oxBCCPFlSPD8ChkMqyrjweTj9QuKGa7j0ZiGeT7mweQTsmKJNs//jtOymPNwepu0mBMFrXXgu0+zDosNhqLKmSyPuXX8PnmVMk6PaId94sB2OiulLmo5VlXG6WKfw5kNnqtm9URIvFhNOZzd487phyxXMwDund20wXP1aCt6XqUczR9wb/zRRcfzOD3mYHqHeT75UtUhQgghhBDixTmOQxAEBEFAr9djOBwyGAxot9u88cYb7O/v89Zbb73q0xS/hao2HIxr1LohYrJoOJk3zwwmi8owXjbcPbZ7VnwPMIpGG4rKLulrDKxKzfEMXLdEa0Ov5dCJHQLfLqEDWytRNXYJ3WTRcPek5mzR0DxnuGSeae4e1wSenXQO/UeL7LJCs8g0nxza8DovzMW3Pc8nmO+dVLZ6Y+nRa9l6j/NQVhtDWUNeGE5mNftnNUfT5onKi2ZlHyfXgbOFXZ4Y+TYUdtSjhYyr0i5XPJo07I9r5pm+WG64yDWHkxptIFxXU0zTR6G0NmAaG1r/8nbBRs+l17IT3fY8bYd23RjqxgbV++Pann9lH+dW5OC563NaP79FZThbNBxPGx6e1iwyjX4sCz+b21oRgHSlOZk2LD9nStsY+/uQFbayo2psp3VeaKZpwzLXFKX+Ut+6FUIIIR4nwfMrtqoy7p79hlk2Zr91B0e5aNOwKGbMstMnwtxnmWQn3Dz8OZGf4LsBVVMxyU6omvKJy+VVyu3TD9if3qYVdtns7rLZ2SVwQxzlUuuKRT5hnB4xTo+Z52OM0U8FxIt8itafYIyhHfYAOFk85Hj2gPKxKei8Sjma3cdBMc/GAKTlnP3pHZYr6XgWQgghhPg6OY5Dp9Oh3W5z48YN0jRlPp/T6/Ve9amJ30JRGT4+KDma2aGTvLSTxc8KHuvG1kDcfFByNG2IAnWxOG+81HieraqoGshWmtuHmnvHFcOOy7BjlwDGvg1RV5UhXWmOpw2TZUNZ2eWCz3uFP1k2/PpugTbge4pByyH0FbUxnM5soLoqDWVtngg7jbFLDx+c2jD51mHFsO2w0fXsFLRjJ5QX63OZp5qseDowNQZO5w1n84ZOUtFr2WO0Ywfftb3GVWM4mdmleotMU1aPzkUbw+m8odJwOGvw1o/b0bR+6nYOxg3Hs5zdkcfWwPY7O2odNJ/ZQFxrY3uWF/ac7xxWbPRcNvsuSeAQeIrGGBa5WU8fN8yWDQaeum8PzmrK9WRyVUNaaCbLz5/SbjSUFWSFoSwNoadYroPrrNA0LzboLYQQQnwmCZ5fsUY3pMWCuqlYFlMUtuO5qguKerVe6vd8WbngaH4fz/EuQutVndPop6ekzXqqeVnM0DPNPB8/MfFc1itWVXax7PDZ51uTl0sOZ3fxXbssJq9SyqZ44jrGaGpdMk6P11UhUDcVWTG/mMYWQgghhBBfH6UUal1JkCQJnufh+/4rPivx26hqG5aeT942jQ1Qn7cQTxs7fVxUBtdVF6tcitKwqgyNfnQ9rW3IOc80ZQ3TpcZ1bRdw00DZ2InZsrIh6ueNlWgDi9xefrJQeK79WV4YssLe9vNmU4yBujYsc01d20DWc+wqmkbbxyErzDrUff4xDPb2Gq3Jy4rAVTjOOuDWkJeaVWmonhGApyvbqzxbPnrcntX/rI3B1HYSOS8Mnvvo/qcrfVEjcn7c84nz8cLetv/YOZW1fV5WpX2Mn2W6fLTQUOvPfv7PKQWt0GHQdugmtj8bZatKDiY1+W9Z5SGEEEKck+D5FdOmoagyiipjno+/8PWLKqeo8he+fKMbGm2vM/nsYepn0qahqHOK+rNv0xiDMQ2L1YTFavLFb0gIIYQQQnxlPM/D8+StwO+6Rtvg8UUZYydcs+LFgkWzDobz4vnVf19EXmhm6ZcbpdXGBuRFab70McCGuWVtWL74W6jHHofPf9zOA+55pplnn3+e51Pdy1x/oXM696LXU9jAOfAVcegwbDvsDD26iYPv2X7nWaY5nDQSPAshhHhp5NWmEEIIIYQQQgjxLea4EHiKG5cD3t71aUcO3cSlHTk02vZkz5aa01lDIcGzEEKIl0SCZyGEEEIIIYQQ4lvMUQrPVWz1XN7eCwg8hevaLYbzTHM8s4sp05UsFRRCCPHySPAshBBCCCGEEEJ8yyml8D1FHDgomzlTa8PxrOHfPllxMK4ldBZCCPFSSfAshBBCCCGEEOKlyAvD6azhw/sVx1PbcXw0qS+WFIpX43xB48ms4eZ+CUDd2IWHB+Oah6c1y/zLd2cLIYQQzyLBsxBCCCGEEEKIl2KZa1al4Xja4LkKgKo2FJVBaxmnfVXOe5wfnNYXywOLyjBe2HqNqjLIsyOEEOJlk+BZCCGEEEIIIcRLoQ3UjUEbGzif/0xrCTZfKWPD53mmL56XRhtWpaFpkOdGCCHEV0KCZyGEEEIIIYQQL4Ux0KxDTvHNYdb/kReavHjVZyOEEOK7wnnVJyCEEEIIIYQQQgghhBDi20WCZyGEEEIIIYQQQgghhBAvlQTPQgghhBBCCCGEEEIIIV4qCZ6FEEIIIYQQQgghhBBCvFSyXFAIIYT4Auq6pigKjDEopXAc54k/SqmLP0IIIYQQQgghxHeVBM9CCCHEF/CrX/2Kv/3bv6UsSzqdDpcuXWJnZ4fNzU1GoxGDwYBut0ur1XrVpyqEEEIIIYQQQrwyEjwL8R2ntWaxWFz8qev6VZ+SEN9o//RP/8T/+B//gzzPGQwGXLt2jddee40rV66wvb3NxsYGo9GI4XBIv9+/CKF933/Vpy6EEEIIIYQQQnxtJHgW4juurms++OADfvazn/Gv//qvTCaTV31KQnyjHR4eMp1OKcuSLMuYTqd89NFHtFotPM/+32q73WZjY4Of/OQn/OhHP+K9996j3+/jOLJaQQghhBBCCCHEd4MEz0J8xymlSJKE0WjE3t4e3W73VZ+SEN9oWmtu3rxJlmWsVivKsmSxWOD7Pu12m8FgQKvVYnt7m+Fw+EQgLYQQQgghhBBCfFfIO2EhvuM8z+Odd97hzTff5K/+6q/QWr/qUxLiG+3v/u7veP/991ksFhfLBV3XxXVd9vb2+OM//mN+/OMf80d/9EcMh0Pa7Tae58myQSGEEEIIIYQQ3ykvNXiOfVmkJMTLEHoxnhviOu5XfltKKXzfl/5ZIV5QHMdoren1eoxGI27cuMG1a9fY3t5md3eX1157jddee42dnR3CMJRp509RSuEoB9fxL/4dZwyAodYVdVN99vVROI6L5wY4j4X52hiqpiDyYobtHRK/je+FTLMTZvmYVZlS688+9jeFUg6OcvAc/6l6lrqp0aZGa43BfO6xPMfHdewHH+cffpw/3lVT0uhX0+u/2bnM5f514qBN4EUAnC72+fj4l5R18dJuZ6f3GldHb+O5AQrIq5TT5SEPJ59QN+VLux0hhBBCCCHE017qu+FRe+dlHk6I76xePKIVdnAdCYOF+KbxPI9ut8vGxgbf+973+MlPfsIf/uEf8tZbb0lVzQs4D507UZ/Ib6EUGGPQRrNcTVk00+deV6FwHY/QT+hEfTzXvozRWlM1JYvVhHbU5/rGOwxb27TCDndOf8ODyS1Omge/M8Gz67gEbkQ76hF44cXPjbHB6apMKer8BUJjRRy0aIU9HMe9COq10WijmedjsmLxFd6T59voXOaHV37MsLVNJ+oD8MH+/8e9s5svPXj+0ev/x/p3TTFeHnHz6Occz+5L8CyEEEIIIcRX7KUGz//ne//3yzycEN9ZkZ+QhG268ehVn4oQ4lPeffdd/uZv/oYoitja2mJra4vRaEQcx6/61H4nKOUQeBHv7f4n3th6D1AYDFo3/PLB/+aX9/832jQY8/Q0r+O49Fub7A3e4HuX/gOtoAPAbDXmdHHAR0e/pBcPeOfSH9JPNnAdj8hPiIMWaTEjr9Kv+d5+OUnQYbOzy/d3/yOb7csXP9cYDqZ3eDj5hDunH7JYPX8ZrFIOruPy1s7v8+7lH+E5Ho6y09NlU1LUOf929x/56OgXX/n9eRZv/dwkQZtk/TwGfvzSK2k8xyfyWyRBG6UUebDEd0OQ6hshhBBCCCG+ci81eH7n8h+9zMMJIYQQ3ziXL1/mr/7qrwiCgCRJXvXp/O4xoLDfkrq+8Q6BF+MohTaa0+U+Hx/9klWVUT1jGtV1PAbJJnvDN3hr5/fpRgMAHkxuUdUFoR8R+QnD9jaDZBNHOZRNwSQ9wXN/d75B4rsh3XjI9Y13uDJ88+Lnxmi60QDX8TieP/jM4Nl3A5Kgzd7gBu9e/o+4jnsRPBdVTlouuH3y71/5fXkeR7n4boDvBhdT3f5X8C0fx3EvbkOh8J0Az/GQ2FkIIYQQQoivnvP5FxFCCCHEOd/3abfbRFH0qk/ld1Jjaop6xSQ75Sw9omqKdaexSzvsMWrvEPrPnh53lUs/2WDY2sJ7LKScZicczO6yXM3Iq4x5PmVV5RgM83xib6f+FtQqKMUg2WS7e4XQj1Hq+S/j4qDNdu81uvHgiWlnIYQQQgghhPi6yMYjIYQQ4gtQSsnCwN+CMYZG10zSY47nD+lGAyI/QSlFO+qz1d1jWcxZrmZPXdd1XAatzXXw7MF6vd4sO+N4/oCsXKBSxfsP/5kHk00iP2F/cpv96W1WvyM1G59FoYj8hG40oBePOAsOycolxuinLpsEbS71rtGJ+i+9vkIIIYQQQgghXoS8cxZCCCHE18oYwyQ74Wj+gCvDGxc/70R9drqvcTC9+8zrOeuqjWFrC8/1Mdj6iVk+5njx0FZIFHNOFwd4jo/nBlTNirqp0M/ojP5d5Lk+cdBi0NqiuzxgVWU0zwyeO1zqX6W9XtwnhBBCCCGEEF83CZ6FEEII8bUyaGbZKaeLfYoqQxuNoxxaYZfNzmUi/+nu7Dho0U82aIVdAjdC4ZCVS+b5mHk+pqxXaKPpJ5u8vvEuUZCgcJjlZ0yzE04WB09MPSuliLyEdtRns3OZTjywC+hQGGwP8nI15XR5yHw1ZrmaAhB6MbuD1xkkm/heSFmvyMolh7N7TLMTAAIvJPbbbHV32WhfomwK5vmEB5Nb5OXSXsYNicMOe/3X6SZDwE5unyz2CZ9x/xvd0Ogaz/HwvZCt7i7j9Iiz5QGNrh+7Xw6e49kQv3eFdtjFYKibCjBPVJQ8S+CFRH6Lzc5lBskWSdDGc32UUpR1warKmGQnTLNTZtkZVVM8dQzHcQnckEFri+3uFVphh9BL0KYhK5dM0mOGre3P/iU5P5Zy8b2QXjxks3OZdthbLwp00KahqFbMclvbssinZOXihY4rhBBCCCGE+OpJ8CyEEOK5FosFaZri+/7FMj3XdV/1aYnfccYYFqsp4/SItFxQNSWBF5IEHUbtHeKgheu4aK3XZRp2gnfQ2iIJOnhuAEBWLNif3mW+mqyDVegnG/zwyp/QjvoYYzic3eP+5CMWq+lF8GzDzIBBa4tL/atc3/w+W53L9JINHOVijF5PTu9z5+wmD9fLC2tdEXghe8MbXB29TTfqk5VLxtkJqyp7LHiOGbS2eWPrB9zY+gF5lbI/uc0kPWZVpRhjCPyYQbLJ25f+gN3B6wDcO/uIsimfWZ1RNQWrKiUOOgRuyFZnl5PFPq7ygEfhr6tcIr9FNx4wau0QeBFaNxRVhsGQBJ1nPieOcnAcj240ZNS5xPWNd9kbvkE/Htk+aRzycsliNeXh9BMeTj6BdYd2WRewfp6UUoRexCDZ4urG93hz+/cYtjZphT0aXTPNTnkwuUUr7OI5Po56/r9PHMcl8mL6ySa7g9e5vvkuG+0devEIx3Gpm5q0mHE4u8e98UfsT2/TLGqqukSb5sV/IYUQQgghhBBfCQmehRBCPNc///M/84//+I/s7Ozw5ptv8qMf/YjBYPCqT0t8C2jTUNQ5Z8tD+skmG+1L+I5PHLTpRkPaUZ90NafWNlDurCeTH188uCzm7E9vkxbzi58FbsSgtU0vHmGMJq9SztIjXOfRS55W2GXU3uH7uz/i2sbbdNY904EbglJgDJGf0A57bHb32OxcIvRjjuf3qZoKbRo812fQ2qKXjGhHfW4d/eri+JGfsN3bY6u7x2bnMo2uMcbQjvp2OrspiX1blzFqX2KjfRmA4/lD8nKJtaCSEgAAIABJREFU5z49lbwsZhzNH3C5f5VONGDU3mGYbOG5AU6do9dhte8FbHR26CcbOI6L1naZ4zQ/BRSh9+zFjaEX029tcmPrB7xz+Y/oRP31dHmIo1yUgtCPaEc9+smInd5rDNvb3Dn9kLunH9LoGoXCcwI2O5f5g6t/zl7/dQatLQIvstUoxhB5Md14gOt4hF703PNRyqEVdLnUv8p7u3/Mpf5VuvGQ0Ivw3XA9ma5JghadqM/lwXVuHf+KW8e/5uHkExaryQv+JgohhBBCCCG+KhI8CyHEd4wxhqZpmM/nHB8fEwQBnU6HTqdDFEVPXPbjjz/m7//+73njjTcA+OEPf/gqTll8CxljKKqck8U+w9Y2w9YWvhsQuCHdZEgv3qCo8ieC563OLpEXYzAYY1gWs6eCZ8/1SIIWrbCDNprIbxG4AUo5gEIpxai9zY3tH/DG1ntc7l8H7LmM0xO0aVBK0Qq7tKKuDXCVgzaauqk4nj+gqHPqpiTyEzzXJ3AjkrCN63ho0xD7Lba6ewxbW7TCLgD9Yk4vHjFJj6lWY5KgzaC1SSfqkwRttGkwGNJy/syp5LSYczi7Ry8e0o1HtMIu3XhINx5S65K8tNPcgRux1dlj0NrCUXZKeZ5PSIslgRtgntF1rZRDO+pxbeN73Nj+Ia9vfh+FotE1y2JKUa/QuiEOWiRBh6S9Qzvq47shWjeMl4ekxQJtGnrJiEv967yx+X02OpcJ3JBVlZEVC1ZVijbG1nl4MUnQtkH/M7jKZau7x+ub73Fj+wcMW9s4yiEt5kzSY7RpcB2fVtihGw8ZtXfO7w3LYkZWLtBapp6FEEIIIYR4lSR4FkKI7xitNXmec/PmTf7+7/+ezc1N3n77bd5++20uXbr0xGWXyyVHR0f0ej3m8zl1XT/nqEJ8cVVTcDx/wEbnMtfNO4ANQfvxBqPWNuP0CKoMYN3FvEvox/bDE12zXE05nN5ltb7M51FK4SqX3cHr/P6Vn9CNRyigrAsOZ3e5efRLynqF63i8vvV9LvWu0on6jNo7JEGb08UBZ8sDFqsp83xMoxtCPybwIyI/IfRjiiq3E8+dPdrho8V+vhswbG0xTo9YrKbEQZt+vEHghmjTUNYr8nLBcjXFd4Knzj0rl5ws9tkbvIHWDa7j0g677PReo2qKi+A59CN2+lfZaO/gKIdpdsbh/B5J0KEddlFKPRE+K+xjMmht8YP1ZLGrXBrTsCxm3Dz8BafLA1Z1xl7/da5ufI9ePCLyE64M3yCvbL/10fweWbHkcv86V0dv22B6fT+m+RkH07s8nH5C3ZQMW1u8NnyTaxvvPPt5QuG5Aa9vvsu7l/+QbjREoah1xcPJJ9w+/YBVldEKO1zffJfN9mX6yYjt7h6Ocngw/phxesSqTJ95fCGEEEIIIcTXQ4JnIYT4jjHGUJYl+/v7/PSnP+Xq1avEcczu7u5Tl/293/s9/vqv//qiaqPdbr+CMxbfVlVTMk6PmKYnVE2F74Y4jkMvGTFsb+OfBbiOh+f6dKIBvWSE74ZUTbleGnhKXi1pXnCyNfQiOtGAYWubQWsLzwko6oz96R1un/w7t47fp2oKXMen1hVVU/Lm1g+I/TZe5DNobdCO+uRlynw1sdPRKBzlEgdtOtFgvSSxQz/ZIA4eLQn03YBhe5vu4gH7U0UStOknG/heSN1UzPIxy2JOo+uL2ozHnYft83zMOD22xw87XOpfY5adcTx/uJ727jBqbdOJBuvlimMOpnfZG7yOSjYAxXkfM9ge5fOJ4eG6QxvgdLHPg8ktPj7+FWfLQ6qmJF3NWRZz3rn8R1zuXyP0bE/13vAN8nJJUeVstHfY6uwSehHaaJqm4sH4Yz48+Bnj9IhG1xzPH6BQDNs7jypOHn+e/Jh+MmLU3llXdQSkxZyTxQGfnPw7t45/RdWUxEGbVZVTb5X04hGBF9GJ+gzb2/QWI6r66cWHQgghhBBCiK+PBM9CiG+dT3+VXD3nq9wv+7qPX/+LXu9l3/5nXV9rTVVVHB0d8bOf/Yw0Tbl27RpZ9vTU6H/5L/+FP//zP8f3/RdaKvjbnv9vc4yXcdvi61Xrikl6wjQ7oWoKtElwHpt49t0Az/FJgg6dqE83sv3i89WEk8VDptnpxVLBFxH5LbZ6e/STzYtu4bxMuX3673x09Evujz9aTxN7ZOUcbTRXBjdIgg6uculEQ/rJBifzfeb55CLwVkAStOnFIwBaYY9ONHiiv/h84rkbD1FK2YnnxE48l03BJDthuZo9ngk/wVEOnuMxy884nt8nCVokfpvLvWvsT26jFAReRCvsMkg2aYc9+1jlZxzO7jFqbT/zuJ7jX3RNR0Hroi7k4fQ2/77//3L75IOLvuRxesTh7B6bnctc6r1me5jDHleGb3E0f8BZerQ+1g6e49PoirxMuXPyAb+8/78x5vFlkW2uDN9k1N55KnhOgjaj9g7deEjst9b3Y8JHx7/g1sn73Du7ac/dDThbHhJ4EW9f+g84OHiOv65u2WaSHr/w74YQQgghhBDi5ZPgWQjxSlVVRVEUTKdTmqah0+mQJMlF17AxBq01aZpydnaG53m0Wi1arRZh+GRYkWUZi8WC09NTlsulnZzs9dja2iKO46cu/+nzOD4+ZjqdkmUZSil832dnZ4fBYIDneTiOc3F5rTXHx8fkeU6r1bo4xmw2Y7VaceXKFYbDIY7jvFAAWtc1WZZxeHjIYrGgrmuiKCJJEra3t+l2u8+9btM05HnOZDLh5OSEprEdtZ1Oh36/z2g0wvPsv+7n8znT6ZTDw8OLy+Z5zunpKffu3WMwGLC1tXXx+E8mE8bjMUmS0Gq16Ha7F8f69GN/enrKfD4nTVM8zyNJEnZ2dmi323ie98TjUNc1aZqSZRlpmtLr9eh2u0ynU2azGYvFgv+fvTv/jerO83//PHvti6vs8m7jFWMCgRAIIYSETNKZTrpH6dbtUUYajUbzy9X8MfPrHen2zKjV0/ND91eTqygtdRM6GyGExARIDA4YG4P3pfb9rPeHsgvckBWmCcPnIaWXpKrOqVPEKr/qXa+3LMsEAgFaW1tpaWn5yudvmiYbGxvk83lKpRKSJKHrOu3t7cRisTteO+GHw/M8XBzKZpHl3A2IQcyfbPb2BvQQHh6JYDtB41bvcd2qslpYIF9Nf6fjaYpO2BfD0G51mWuqQTLUidvm0hJM4Xkukizj10J0RHvR1Vs/NwzVh08L4noOVbNEqZ7DrwfQZJ2gHiERSmGoPqL+xr/7pXqecr1IxB9HUw1aQili/gSqrOHXAoR9UVRFo2qVyJRXKdVz33i9tsLUjlg/EV+c1kgn0UALPi1Aa7iTtkg3uurDdizqdpV8NUO+soHtWs0lgbd/RiPLMgEjTEAPIUtK8zilWp5sZQPbNZu3dVyLmlWmWMtRqhUIGCF0xSDqb8Gn+pGQGgsDNT+yJFOxa2QrG9TsyrbQeesYf/73mtdZCxDxt2wLpA3NTyLYzlCbSzLYvnnuCqqi0x7pYeuniyzJ+LQAPq3xIYYgCIIgCIIgCA+OCJ4FQXig6vU66XSaqakp6vU6AwMDtLe3bwueTdNkbW2NCxcuEAwG6erqoqurqxkkm6ZJpVJhcXGRGzduMD8/TzabRZZl2tra2LFjB93d3aRSKXw+37bg1PM8crkca2trTE9Ps7S0RD6fR5IkDMNgeHiYHTt2kEqlCIVCKIqCJEnYts21a9dYXFwkmUzieR7lcpnV1VVqtRrHjh0jFAphGMbXBs+2bTef3+LiIteuXSOdTmOaJsFgkFgsxujoKH19fcTjcXRd33butVqNXC7H0tISN2/eZG5uDsuykGWZRCJBV1cXQ0NDJJNJwuEw6+vrXL9+nbm5OWZnZ7Esi0KhwM2bN7l48SKyLHPo0KHm9V9YWODy5cskk0k6Ozu3XT/P87Btm2w2y/LyMteuXWN9fZ1cLoemaUSjUYaGhrZde03Tmq/Z1nNeWFigu7ubjo4Obty4wdLSUvNDhnA4zK5duxgeHiYcDt/x/PP5POvr61y9epWlpaXm6+73+xkeHqa/v59UKkUwGLxrYC48eK7nUq4XWM7NNad1fVqAsC9GyBdDV32kor0ENyd4Pc+lZlVYLyySr3y34FlVNEJ6BEO5FTzrikFrqJOAHqYrPoDnNfbdKbJKyIhuCz81Rd+skHAaAWw1S9iIofkNAkaYlmAKv9aYfJYlhVxtg9XCArLUqA+J+OJEA0mCRoSAEcGvh1AkBdOukymvUazl7xrEQqP3GBp9yZZjUjPLtATbiPpbiPpbCPvitEW6aYt0o6kGdadGrrpBoZqmXG9MbyuyAmz/eSRLMv67BLVVq0SplsN2bvW6O66DadepmCWqZgmf5kdVGgv+NEVvfGCnGM1rZjp1CrUsdbt21+fl4W1PwW97TYJGBFXRmn/PpwZIhjoIGzHMuLnt9olQW3NJoSTJjfBb9W0ulBQEQRAEQRAE4UERv4ULgvBA5fN5pqen+T//5/+Qy+X48Y9/zJNPPkkymUSSpOYivEuXLvHv//7vpFIpnnnmGTRNI5FofK19fX2dCxcu8MEHH3D69GnK5TKmaTa+zu73Ew6H+au/+iteeOEFBgcHSSaTwK1p6g8++ICTJ09y5coV1tfXsazGV/cVRSGVSjE2NsbPf/5zdu/eTSwWQ5Ik6vU6f/zjH3n33Xfp7OzEsizW19epVCoEg0Ha29vp7u5G07SvnbbN5XIsLi7y1ltvcfr0aTY2NqhWq7iui6Io+P1+du3axaFDh3j11Vfp7u5u3teyLObm5jh37hx/+MMfmJubI5/PNysndF2nq6uL/fv3c+zYMZ577jmmpqZ45513uHDhAjMzM1QqFZaWliiVSkxOTnLlyhX6+vqa1+jMmTP853/+J4899hiHDx8mlUoRCDR6a13XJZPJ8NZbb/HRRx9x9epVisViM/g2DINEIsETTzzBq6++yuDgIKlU4+v+5XKZS5cucfr0aT788EN27NhBX18fly5dYnFxsfn6qarKkSNHeOaZZzh8+DC9vb3N185xHD766CPef/99Pv/8c1ZWVpqvnaqqpFIpxsfH+dnPfsbY2BjxeFxMPv9AVcwSC7lZ2iK3esY1RScRTOHh0RnrI2RE8DwPy7GomEU2SsuUal8/IfznFEnB2AxLt+iKQSLcTsxJbutWliQJVdZQlTsX/QHU7TrpyhqRQIKIP05AbwTPts8kFmjdXOy3wc30FVRZ3VwGGCXqb6E3MUIskESRGt8EMJ06mdLq1z4fSZZRFJVyvUDNqlCqFzDterO3ujO2g674IG3hbnTFoFDNMJ++Rr6aaXwLQDHQFGMzjL3ViS0hoyk6mqJzeyjteS6u59wlMPZwXQfHszf/2Vd/sOa6DrZj4n7LDu4tjVoRbVsQ7tMDtEW6cV3njg5sXTWawTxIKLKKIou3uIIgCIIgCILwoIl35YIgPFBbNRtXr15lY2ODJ554gnK5vO02lmWRTqeZnJwkn88zODhIpVJpdhXfvHmTP/3pT5w/f575+Xm6u7vp6urCcRzW19f54osvMAwDRVEIBoPNCoytyomPP/6YU6dOIcsywWCQeDyObdtUq1Xm5+dJp9N0dnZiGAZ79+7F5/PhOA43btxgYmKCRCJBKBTC5/NhGAaxWAxd179VxcbCwgLvvfcep0+f5ssvv6Szs5NkMommaWxsbLC2tsZnn32GZVk89thjRKNRQqFQs37k/PnzvPfee5w/fx5Jkujq6kLTtGYVyPz8PIVCgXA4zM6dO5t1JrFYjGAwiCzLaJrWnK7eqqbYsry8zIULFzAMgx07dmCatyYNV1ZWuHz5Mu+//z4XL17EcRyi0SjJZJJarUahUODq1atUKhX8fj+u69La2ookSc3XdHZ2lgsXLpDNZikUCliW1Xx91tbWmJ2dRVVVXNdlYGCArq4uZFluVq9MTExw6tQpSqUShmHQ2dnZrPGYnZ0lk8nQ0dGBpmns27dv28S08MNRs8qsFRY2e5NtZElGV320hjuRZZW2cDcBPYzrOZTrefKVDUq1HHW7+p2O49H4sMm9bcrWck3ylTRVs4TlmF9zb1jIzmz2UZvIskKmvEpbuAtoLAv0gm24nktADyEhUaxmWdqc5A7oIfx6iIi/hf7kGPFAK0iNnuuaVaFYy1I1y195bFlS0BQd27GomWUy5TUSoXa0YIpYIEl/cied0T5igSSqolGuF1jIzlCoNvqZZVlBkdU7YmJvM0huhMO3roskKY1qjjvu0Qh2VVlDQm4E1O6tygzPc/E8D0mSkCQJWVa+8+SxR2MS/vbedtOuk69sULOrX7s00HTqrBUa/d/fdumkIAiCIAiCIAj/M0TwLAjCQ8t1XUqlElevXuX3v/89mqaxd+9efvGLX7B//35qtRrvvPMO//Ef/8GVK1fIZrOMj48zOjqKJEksLCzw/vvvMzExwfr6Oj/96U85duwY+/bto1KpMD8/z69+9SsmJiZ499138fl8jI6ONmso4FZlRCqV4qWXXqK3t5fu7m7Gx8cJBALfOGE7NTXFf/3Xf1Eul+nt7eUf/uEf2LdvH5FIhDNnznDixAkmJia4dOkSX375Ja2trQwODjYrLt577z0++OADfD4fzz//PK+//jrRaBTLsnj//febU+ATExPs2bOH3t5ehoaGOHLkCCdPnuSXv/wlfX19HD58mMOHD/P4449vm6r+OpcvX+YPf/gDn332GY7j8Pzzz3P06FEOHz7M8vIyk5OT/OY3v2Fubo7f/va3hEIhnnzyybtWXlSrVWzb5qc//Sl79uxB13Xef/99fv3rX7OyssKZM2d4+eWXsSwLXdfZ2NhgcnKS8+fPc/PmTZ555hmeffZZjh07RqlUYmZmhl//+td8/vnn/OlPf8Lv97N7924RPP9A1a0aGWeVYi2HadfQN6sSUtFeNFmnJZRCVw0c1yFTWWOjtELdrt0x+fpNHNemYpWwnFvBZbGW5/OFMyzn5ijUsncsqbxd1SpTNcvUrEaXeLa0RrleQJIkgkZ4c/JWRpYVPDxK9TxrhUUivjgRXwvJcCcRX5zB1t2EfFE8z6Nu1ajUi1TMEqZT+8pjK7KCrvhQZIWKWWetsEA82EYskCARbMdQG/Ukfj2AJMmUzSIL2RmKtezXdh27nkvVqjR7mLdoioau+pCl4rbbS5KET/Xj1xofXFmOje1am6+Fh7s5KS1LymaXdXDbhPm34bg2plPH9W4Fx5nyKpMLH7NWXCT3NRUrnudSt2vUrBLW11xPQRAEQRAEQRD+54ngWRCEh5Zt2+TzedLpNNlslsHBQcbHxxkaGmJgYADLssjlcty8eZPr16/jOE4jKLEsFEVhdXWVjz/+mGKx2KykOHDgAD09PViWRTweZ2xsjBs3brCwsMD169cxTXNbMGUYBm1tbezZs4fjx4+TSqWIxWLE43E0TfvKqeetaW3DMOjq6iIWizEwMMDevXsZGhrC5/ORyWRYWVnhyy+/bC75KxaLuK7LxsYGMzMzLCws4DgOe/fu5cCBA4yOjuL3+3EcB9u2KZVKfPLJJ6yvrzM1NUVLSwudnZ3NxYlbdR6tra309/fT39+/LVj/OjMzM0xMTOA4DoODgzz33HPs37+fnp4eotEouq4zNzcHNAL22dlZrl27Rmdn5x2PNTg4yPPPP8/+/fsZHh5GVVXS6TRPPPEEExMT5HI50uk0hUKBlpYWisUi8/PzZDKNGoGRkRH27t1Lf38/lmURjUa5cuUKkiQRiURQFOV7/AkT/lJcz8VzTAq1DGvFJZKhdgzVT0uwrVGPofqQJQXLq5AurbJRWsb+hunkuzHtOrnKBlXr1mSxKquEfTFWJJl0aQXHvdVprKsGYV8MCbkxmWyWqZklHM/BtGpslFYo1fKbj6NtLu+TGtO51TSlWp6a1ZhOTpdXsB2TgB4m6m9BU3Rcz6VYy1GoZrAc82tDbwlpc3JYwnJM1ouLtIY7cZI7MTQ/iqKiKwae51ExC+SraYrVRr+yXwt89bV3HUq1HMVaDmcz6JUkiXigjfZID1Wz1Jws92tBYsFWQr7Y5gJBhbpVI1tZp2aWcT2PqlWibBYJ6mEM1U882ErIiGKo/sZzxEWSZFRFx1D9d63EqFolsuU16vat4FhTdML+OMv5m2TKK9umrA3V1+jLltVGkG4WqVplXPe7fTAhCIIgCAC1Wg3HcfD5fOI9pCAIwj0SwbMgCA8tx3EoFouUSiUcxyEWi7Fjxw6i0SiapmEYBiMjI/z4xz9mcnKS1dVVQqEQtm3jeR7r6+ucP3++uYjuscceY3BwEGj0IxuGwdDQED09PXz66acsLy9jmua2MMPv9zMwMMD+/ft55plnmv3H38R1XUzTJJlMcujQIXbs2MHAwAD9/f0EAgE8zyORSDAyMkI0GmVjY4NSqUS1Wm2e+5UrV9jY2CAYDHLo0CH27t1LNBpFlmU8z2Pv3r1sbGzQ1tZGvV7n+vXrHDhwgFAoRL1eb05kq6qK3+8nEokQDoe/8dy3wrG5uTkmJyfp7e1l165dHDlyhK6uRkdvPB5ncHCQo0ePUigUuHjxIvPz80xNTREIBJqLIbeMjY3x6quvNkN4gN7eXp588klu3rzZnFjP5XJEo1Gq1Srr6+vUajV0Xae3t5euri5UVSUQCBAIBHj66acJBoOUy2USiYTod/5Ba0SIhWqW5fwNAnqIoBEh6k9su5XtWKRLK6wXl7Ac6zsfpW5XyZbXqdSLuJ7bWCKq+umI9pEprTKzNontWI3JX0nCpwWafc01u0rNquC4jW7jul0jU1qhVG/0qiuygrL5tqriFBudzfU8tmOSq6yTKa1h2SaqrKDqQaARhBdrWfLVzLbA+5vYjslGaZlMeQ3HtTE0/2ZHM9SsCrnKBrlKmopZagT0XxM8O55DoZalWM1iO42fjRISiVA7XfFB1oqLVMwS4BHxt5CK9BLxx9FV3+bxyqwXFimbRTzPoVQvUKrl8KmBZp92NJAg5ItRMYs4ro2qaPj1ID49eNfguVIvsVFaoWqWcT0XWZII6hG6YgOs5G7get7mlLUDSPj1EGFffHMq3qVUy+E49lcuahQEQRCEr1OtVpvfxtuqz5Nl+Y7/FgRBEL6ZCJ4FQXhoaZpGa2srra2t+P1+5ubmOHHiBLquoygK3d3dxONxdu/eTWdnJ9Vqlb6+Pnw+H7IsU61WWV1dpbe3F7/fT6VSIZ2+9RVux3FwXbc5AVyv18nn88Tj8eZttpbofdtO59vv5/P5GB4ebga+fr+fcrlMPp/HNE2WlpZYWlqiUqnccf+tjuN6vY6u67S1tTUXHwLNN8Q7duzg7//+71EUhc7OzrtOG39X9XqdcrlMqVTC8zza2tqaPcq321pu2NHRgaqqlMtl1tbWqFardwTPmqbdMVWyFYirqtpYKmdZWJaF53nE43FGR0c5ffo0MzMzvP3229i2zbFjx+jo6CASiTA+Pk57ezu2bROPx0XNxkMgX02zlJ2lI9p7xz+zHJOqWSJXXqfwHYPaLXW7Rqa8wnpxkfXiIhF/C5pqkAi1M9Z5gIg/TqGWo2aV8akBwv54o2dakrEck/M3T1GzKph2DddzsF2LilkiX03j10MYm2Fs1SqzUpinWMttTiCXKNYyVMwipm2iq41Ffq7nUKhmyFfT3+n5OK5NqZ4nX02Tq6aRZbU51WzaNZbzN0iXlrdVZ3wV17UpVrNslJZZLy42liD6oiSCKeSUhK4a5KtpLMekJZgiFekmGe5oLGf1HHLVNLPrl8iW17Bdm/XCIivBFFF/Ak3VUWSV0fbHCftiZMvruJ5DUI/QGd9ByIigynfWcJhOjWI1y2phnmS4g5ZgCkPzkwi1s6fnadoi3eQ3p8R11SDqT5AItSNJMqVaHtupY9p1zO/YAS4IgiAInudRLpeZnp7mzJkzFAoFWltbaW9vp729nVQqRTKZJB6P3/F+VhAEQbiTCJ4FQXhoqapKLBaju7ub0dFRFhcX+fzzz2lpacF1XcbGxkilUoTDYYaGhvD7/UiShOd52LZNpVIhn89TLpcpFApMTU1tC3ld1+XGjRvNpXeWZVGpVLCsW5OWW8v5vuvX8GRZRpZlWltbicVibGxssLKywuLiIvl8vrl8b3l5mXw+f8f96/U6pVIJ27YJBAJEo1GCweC220iSRHt7Oz/60Y+ARi1IIpG447G+K8uyKJVK1Go1PM8jFovR0tJyxzVQVZVEIkEsFkOWZSqVChsbG9Trdy4GUxQFXde3TY/Istz8EAEaHwQ4jtM85vDwMDt27GB6eprLly83H2doaIiuri6i0SjDw8PNxZLCD1+plmMlf5NyvYjrOkiy3FxuV7Mq5KtpCrUsFbP0rULVP2c7JiXHZCU/z9zGFXpahkiG2gkaEXyan2S4g3w1Q6VeJKCHCBlRwv4YtmNRNotcW/sCRW4s3PM8D8ezqZolspUNFFltBs81q8JaYaERPONh2jXK9SKFapaWYAlNaUGSaATPtSz5ahrb/fYT3K7nUreqFGtZ0qUVfFoAvxbYnMSuspafJ1Ne+1Yd2I2O50YdyHxmGkVW0TerK3yan4AepmKVMO06UX8LsUASCZm6XaNQy7CSv8lS7npjythzGp3W/hY6ov1oio6u+uiM7SARbCdb2cD1HEJGtFkLcvfXyaJqFlnKzRH2xVEkhWggScgXpV/bSXu0l2xlHdOuY2h+wkaMaCBBzaywVlwksFm7wR2LEQVBEATh29mqq7t27RrRaJTe3l527NhBT08PXV1dpFIpOjo66OrqEu8zBUEQvoYIngVBeGhJkoRhGOzatYt/+qd/4uTJk3zwwQe8//77nDt3js7OTsbHxzlw4AC7d+9meHgYWZaxbZtisUi12piG2wp7p6am8Pv9zcf3PI98Pk+hULhr+Hs/bE0Bv/XWW3z44YcsLy9Tr9fRNA0TXRGkAAAgAElEQVTP8zBNk+XlZaLR6Pd6fL/f31wWuBWSf12P7PehKAqKotx14vv2ryRWq1Uymcxdg+fvaqtD+oUXXkCWZc6ePcsnn3zC1NQU3d3d7NixgyNHjrBv3z56e3vvCOWFH6aq2QhAS7UcdbuGofqQ5MYvc4VqhpX8PNXvGTrfbik3S92uYtq1zVqJFKqiE9BD6IqBE2hFkVUUWUGWZHLVDW6mr7JeWNysf7i19K5qlkiXlgkZEcK+Rk1MzaqwVlygVL/1c8O0a6yXlogFk4T9MSQUXNelUP3uVRtbKmaRxewsIaMxoey5LjWrynppmXxlA49vf53ylTRfLHyM5Zj4VD/RQIKAHiLijxM0Iriei6o0eqxtxyJbXmVy8RNm1iYp1nLYjokHbJSW0FWDZKgDSZJIRXtQJBWfFiAZat8MwyWqZolMeZWWYIqQ786fb45rczN9Bcup43kuvYkR2qM9KLKGXw81O7JlSUGRG9+KSJdXuJm5SrayQd2q3vOfE0EQBOHRI0kSyWSSkZER9u3bR7FYZGpqioWFBSYnJzEMA5/Ph9/v56WXXuKf//mfxftMQRCEryGCZ0EQHlqSJKEoCqlUisOHDyNJEsFgkPn5eVZXV5mbm6NQKLC6usrq6ir5fJ7BwUHC4TC2beM4jfDIMAwikQjRaPSOjubbazUef/xxIpEIqqpi2989JLqd53l4nsfs7CynTp3iww8/5OrVqySTSTo6OohGo1iWRaFQIJPJfO/jqKqKqm7/UX/7xPa9uj1Yvts/2/oLGs/Zdd37Enzruo6maezduxdN04hEIly5coXl5WWWl5dZWVmhWCyysrLCoUOHGBwcpK2tTfTx/cDZbmPSdSE7g6H6MLRAswN4KTfHQvYaZbP4tY9Rque5vjFFyFjG9VzWCgukS6tY9q0PPEq1AqZtEtBD1O0qreFOgpsL8BS5scDPcW0sp07VKrNWWGAhM0O6vHJHQFyoZbmRvoLtWuQq63jAzfRVcuV16tatb1DU7SqL2dlGX7RVQZYUKmaR9eJio3PavRVmW06j+/lm5ho1q/EB2Ur+JpnyanPRH0C5XmIhO4Om6NiuhbNZdZEurVC1Ks1/12zXZq2wwKwexqf5sV2bulWlUM3cdn6NaeGt7uZEqJ1YIImu+lBkFXlzwaJp1ynVc6wXFplevbjZt11vHqtmVdgoLTO9epGqVSZfzeDT/GiKgee51O0qpVqeUr1AxSzQEmxvBvbL+RvN6+t6LoVaFi/nock6xVqOdGmFgB7aXGzYeJ1cz6FuValaJZZyN1jKXd+sLrHw8ChUM8xtfImh+ZGQKFTTm0skb11vQRAEQbidz+dr/n5RLBaZmZkhk8mwvr7e2OuwuZy7u7ubGzdu0N3dTSQSedCnLQiC8IMkgmdBEB56wWAQn89Ha2srzz33HJOTk5w7d453332Xa9eucf78ea5evcrc3Byvv/46u3fv3haW9vb2sn//fp588smv7UBOpVKkUikMw7gvwbNt25w/f55//dd/xXEcOjo6eP311zl48CCdnZ2srKwwNTVFsVjkxo0b93S8HwJN0/D7/fft64iSJDEwMEBXVxcHDx5kZmaGc+fO8eGHH3LmzBlu3rzJZ599Ri6X4/jx46KL7yFhORbTqxdZyd9EV33ImxPPxWqWYi1Lpf71wXOmtMon1/+0GXR6VK0y5XqBqlVu3sb1HOp2hasrF7iZniYWSBIPtpEItaMpBookU7MrFKoZ1otLFKpZyvXCXaeSs+W1zV7lmwS0IK7nUaxlKNRyOLctQKyaZW6kr5Ipr3F9YwpJkrEdk5X8Tep2ZdsHMjWrwnphkQs3P8S/uYiwYpYo1XKUaremqCtmgYXMDKVajhuZqziOTcUski2vbTu2Zde5tvYFq4WFzelgF8d1WC8uNm/juA6uV+XGxpcsZWdpCbXTEmwjFmjFrwdRZa1RF1LLsF5cJFfZoG5VsF37jg+TSrUcl5cmWMxdJxFqJxFsJ+KPY7sW+UqG5dx1TMdEliQCRgTfZj91oZrBdG59QOC6DsVqlqnlc8ylvyTsizc7n3XFQJIkTKdOtrzGWmGBUi3fXGC4tVhwJT/Pp9ffQZEVkMC0GqH+d6k2EQRBEB49kUiEZ599FtM0+fTTT5uLraExAKGqKqVSicnJSVRVFcGzIAjCVxDBsyAIDy3HcZpbpyuVCqFQiHg8zs6dO4lEInR3dzMxMcGpU6coFAp88sknPPnkk3R1deH3+5shpKIoBINBBgYGGBkZ+crj+f3++xac1ut10ul0c4Hg3r17OXToELt376a/v59IJEK1WiUUCt0xsbx1zpqmIcsyrutiWdZdw/BSqcTKygqe52EYBi0tLfccvm71MStKoyqgWq1Sq9Vw3e1fa98K17cWAhqG0azIuFeVSoVCoYDjOMiyTDgcZmRkhGAwSEdHB7t37+a9995jfn6ejz76iHg8zoEDB0Tw/BDwcCnWctSsCoqsIkmNKXXTrmM5NexvqKSoWVXWCgvIUuPfU9uxsFzzjqDR8zwsx8T1XBzXpmKWyJbXmse0HZO6XaFcL1C3a9jO3YNKyzEp1fKYdp28slmR49S2hZ8AjudQNUvYrknZLCAhNfqVzfIdwa3tWFQps1Faai7fsx0LyzGxbgtmHdehblXIVlwqZqmx8HDzdrcf2/Uc8pU0FbOELEl4Hnib3c5/fk1sz8J2bbLlVWqb3c+aoiNLMqZTp25VKdcL1OwKnutuO86t47m4Tp1iNYPtmBSrWQzNj+s61KwKhVp2syZDomIWUTafo2nXt01+3/5Ybt3FckzqVoVMeRVFUpGkxmR61SxRquex7Dtf56pZYq0w3/xz5HoOll3/Vv3XgiAIwqNraxH46Ogof/d3f8fvf/97Tpw4geu6zSXWPp+Pd999l7m5OYaGhhgfH6e7u/uOhdmCIAiPMhE8C4LwQN1ex+B5Ho7jbAswt8JL275zqs62bbLZLKurq6ysrNDT08Pg4CDt7e10d3dz4MABenp6qFQqnDlzhqmpKW7cuEEulyMSieD3+9E0Ddd1cV2XZDJJX1/fttqIrUoM13Wb1R73Q71eZ319nY2NDUqlEt3d3TzxxBP09/cTi8Wax95apvfndF0nEAigKAqO41CpVO7oTvY8j2w2y4ULF5AkqbkAsK2t7Y5qjO9Sf6EoCoZhoOs6kiRRKpWaIbDnec3H3jqvrSWEfr//vgTfAPl8ntnZWer1OrquMzY2RltbG6lUivHxcY4dO0a9Xmd1dZULFy7Q19d3z1Pqwl+G53nUrAq122oqvgvLqZOvfPse8UboXKRiFkl/j+M5ro3j2tsqMO7G81wsp47l1L9xatv1HEzbwbRr3/iYtudi162vfUzXc6mYRfiGmpLbHpmKWaJilr7l7e+ubteo2zVylY2vvE2V8lf+s9s5rkXVtKiaJfgOp1W3q9/42giCIAjCV+nr6+Nv//ZvyefznD9/nlKpRCwWY9++fbiuy7lz57h+/TqXL1/Gsqzme+2t3zMEQRAedSJ4FgThgdJ1nWAwiKIomKbJ+vr6tkV+lmWxtLTE8vLyHd3E1WqV6elpzp49y+nTpzl69Cg/+clP6OzsJBaLIcsykUiE3t5eLl++zMrKyrYQOxwO09fXR71e5/r16+TzeSzLQtO0Znhq2za1Wo1sNoumabS1td2X8PnP+45d170jXK9UKqTT6bsu44vFYvT09BAMBslkMly7do3e3l66u7uRJKk5iTw9Pc3vfvc7IpEI+/fvb4azmqY1n6dt25im2ey8/iaqqhIMBmltbSWZTLKyssLMzAylUolEItGc0K7VaszMzHD9+nUsyyKRSDA8PPy9FyXe7vr16/z+979naWkJv9/PP/7jPxIKhZpffQwEAiQSCRKJBOl0+ls/N0EQBEEQBEHYsvW+8tChQ5RKJd5++20cx2H//v309/dz/Phxrl27xuzsLCdOnGBiYoKnn36a8fFxhoaGxH4RQRAeeSJ4FgThgfL7/cRiMUKhELZtMzc3x7Vr15ibm8PzPHK5HBMTE0xNTd11oteyLJaXlzlz5kxzC/X4+DidnZ14nsfa2hrlcmOibmsDtWEYyLJMMplkz549XLlyhRs3bjA5OUk0Gm1OBruuSyaTIZPJkE6nSaVSxGIx/H7/PT/vraUkhmGgKAqZTIa5uTn6+vqo1Wo4jsPly5e5fPkyuVwO13UxTbMZvsfjcfr6+kgmk6yvrzM5OdkMWnVdx3VdVldX+eSTTzh79izDw8Ps27evOZFsGAaGYaBpGpVKhaWlJRYWFpqLDbfO66vOXVEU+vr62LlzJ1evXmV6eprz589TLpeJx+PYts3q6ioTExPMzc0RDofp6uqiv7+fUChEqXRvk5RbPXsXLlygXq8zPj6OqqokEgkAyuUyhUIBgFAoRCAQuOsCREEQBEEQBEH4KrIso+s6O3fuxDAMyuUyuVyOsbExxsfHkWWZCxcuoGkan3zyCTMzM2iaRrVaxTRNWltbicVizYo8QRCER40IngVBeKAikQgdHR20tbUBcPHixWbtRq1WY319nbNnzzI9PX1HWBkIBNi5cyfT09OEw2EuX75MoVDgqaeeYmBgANd1+fLLLzl16hT5fJ5EIkFnZ2dz4rerq4vnn3+eTCbDp59+ym9/+1umpqbYvXs3mqZRr9eZnJxkbm4Ox3F49tlneeyxx+5L8Ozz+WhvbyeRSODz+bhy5QrVapV8Pk88HqdYLHLlyhUuXbrEysoKoVCIQqFAqVTC8zxaWloYGBhgcHCQ2dlZPv74Y7LZLJlMhmg0iud5fPHFF1y6dIlyuUx3dzdPPfUUqVSq2VkXCoUIBoOk02nOnj2Lz+ejWq1y4MABOjo6vvF5jo+Pk8lkWF1dZWpqin/7t39j165djI2NUSwWWVxc5NSpU5TLZcbGxhgbG6OzsxNd1+85eO7q6uLo0aPMzc0xMTHBG2+8wbVr19i5cyeO45DJZDh16hTz8/N0d3fT29sruvYEQRAEQRCE72VrSfXPf/5zKpUK3d3dzW/5jYyM0Nrayq5du5icnOT06dPMzMzw8ccf88ILL/DUU08RjUbx+XwP+FkIgiD85YngWRCEB0pVVaLRKE888QTZbJapqSnm5ub4wx/+0HwzZxgGXV1d6LpOIpEgHA6jaRqqqjYnnF9++WWuXbvG2toa58+fZ2ZmBs/zmvUZO3fu5LHHHmNgYAC/348sy7S1tXHw4MFmBUe5XObzzz9nZWUFVVWbE8+O49DX10dnZ2fznGRZJhqN0tbWRktLy3eeqFVVlVAoxNjYGC+//DJzc3Osra1x9uxZgsEgkiSh6zrj4+PbOpG3eop1XaelpYXDhw9jmiafffYZ2WyW06dPN2+fTqdRFIVjx45x+PBh+vr6mo+91T938ODBZrh9/vx5DMNgbGysOZERCoWaAXkoFNoW3vb09HDw4EEWFxc5f/48GxsbnDt3jrm5uWZFiSRJjI6OcvToUfbs2dMMs2VZxu/3E4/HaW9vJxKJoCjKtmuoqmqzF7qtra25aFGSJFpbW9m3bx8zMzPYtk2lUuHChQvcvHmzsdzNNKlWqwwMDHDkyBH27dsnevYEQRAEQRCE70XXdTRNY3R0FNu2iUQizfet4XCYQCBAIBAgGAziOA4LCwvk83nOnTvH6uoqO3fupL+/n/b29vuyaFsQBOFhIYJnQRAeuEAgwPHjxwkEAti2zeTkJCdPnqSjo4OBgQGefvppZFnm3LlzdHd309LS0twWHQgE2LNnD9FolJMnT3LixAmuX79OOp1GlmVaW1vp6+vj5Zdf5kc/+hHt7e3N8DiZTNLS0oLneaRSKd555x0mJyeZmprC8zx8Ph8DAwPs2bOHV155hb179xIIBIBGcNre3s7AwACdnZ1Eo9HvFDxvfW1v//79hMNh/vu//5v33nuPyclJNE2ju7ubl156iWPHjvHWW29x/fr1O6YkAoEAL730Ej09PUQiESYmJrh48SLVahVJkujr6+PgwYP85Cc/YdeuXbS0tGw7x66uLl555RUAbt68yZUrV5qvwdaxEokEQ0NDdHV1EY/Hm9cOoK2tjWAwiKqqdHd3c+LECa5evconn3xCOBwmlUqxb98+jh07xiuvvEJLS0vzvlsfOHR0dDA0NEQymURV1W1fQdQ0jXA4TGdnJ5VKpTlpsrUoMRqN8sorr9Da2so777zDpUuX+Oyzz1BVlUgkwq5duzh06BB/8zd/w/DwsHiTLwiCIAiCIHxvW+9Bt/737RRFIZFIEIvF2L17N5OTk5w6dYr33nuP//7v/+bll1/m+PHjRKNR8Z5UEIRHigieBUF44BRFIZVKcfDgQSKRSHPBYCgUIh6P093djSzLPP74482wsrW1FWi86QuFQvT29vL888/T399PLpejUqkgSRLBYJBYLMbQ0BCpVGpbfcTW5G9PT0+zeuP2TmhFUYjH46RSKYaGhojH481gVNd1XnjhBXbt2kUikaCrq2tbKPttxeNxRkZGeO2119i/fz/FYrG5FHFgYIC+vj40TSObzTavxdZxJEkiEAiwY8cOfvzjH/P444+zsbGBZVlIkkQsFqOzs5Ph4WESicQdb5Dj8Tj79u0jHA5z8OBBoBEmd3V1NW9z6NAhotEoiUSCjo4OgsHgtuvn8/no7+9H0zR6enpIp9MUCgUMwyAYDNLR0UFvby/RaHTb9QkGg4yNjRGNRtmzZw9DQ0PNieYtsViMkZERDMMgm80yMjLSXF4oSRKqqtLX14dhGPT09LC2tkapVGqG+m1tbXR2dtLd3d0MrAVBEARBEARhdnaWpaUlDMOgpaWl+X7xm3zd+8mt96eyLNPX14ckSSQSCa5evUoul+PkyZNMT0+ze/duHn/8cYLB4ENZv+F54HoenidhOS4g3mMLwr1SZFAkkGWJ/22/tkqe53kP+iQEQRAEQXjwTKfO//fZ/8snsycf9KkIwkMvHmylLzHK3p4jPNZ9+EGfzl9Mvmjz//xumWzB5v/+vzrY0fXwhSrfVbrocGXR5OqixdV580GfjiA89MJ+mad3+Rnp1kiGFTT1/qcwH374IRcvXmx+i3Hv3r0kk0kCgQCyLN+3RYDpdJrZ2VneeOMNJicncV2XAwcO8OKLL9LV1UVrayuGYXyvAZYHxfU8TAuqdZdy3cVxH/QZCcLDL2jIBAwJQ5dR/pftIX14froJgiAIgiAIgiAIgiDco9bWVlKpFB999BFnz57l7NmzPPnkkxw9epRwOHxflolDY1/KwMAAv/jFL3jiiSf48ssvWVhY4F/+5V84ePAgBw4cYPfu3bS2tt63sPt/mutKZIo2Cxs215ZNaqaYZRSEezXQrrEjpZOMQtD3cPws+LZE8CwIgiAIgiAIgiAIwiOjpaWFvr4+ZmZmyOfzzM/Po6oqjuPQ399PV1dXc6/MvdS1GYaBYRjNhdpbe2Hm5+e3LckeHByks7OTQCDwg++AdlyPqgnpgsONVZtiVYw8C8K9ChoyrVGXePh/V+gMIngWBEEQBEEQBEEQBOEREo/HCQQCdHZ2Mjs721zSfeLECY4cOcKRI0d46qmn6OzsvC97QmRZJpFIcPDgQfr6+nj66ac5efIkZ8+e5fz58+zZs4ef/vSn9Pb2blvILQiC8LATwbMgCIIgCIIgCIIgCI8MVVVRVRW/34+u66iqSiAQIBgM4jgO586dY319ncHBQUZHR0kkEoRCoXs6pqZpaJqGruvE43Gq1SqRSITFxUU2NjZ48803GRoaYnR0lN7eXpLJpFiOLQjCQ08Ez4IgCIIgCIIgCIIgPHJkWaa1tZXW1lbGx8d58cUX+d3vfse7777LyZMn2bVrF6+//jrj4+P3HDxv8fl8+Hw+/vqv/5rDhw9z5swZTpw4wa9+9SuGh4c5duwYP/rRj2hpaUGWZRE+C4LwUBPBsyAIgiAIgiAIgiAIjzSfz0cymeTFF19kx44dTE9Ps76+zhtvvMFnn33G2NgYu3fvpre3F03T7ssyQL/fz65du/D5fAwODrK4uMjs7Cy/+93vmJiY4ODBg/T29hKLxR6a5YOCIAi3E8GzIAiCIAiCIAiCIAiPNF3X0XWd/fv3MzIywqVLl/joo484ceIE6XSa9fV1bNvGtm1aW1sJhUIYhnHPywf7+vpIpVLs3r2b999/nxMnTvDll19y48YNJEmiVqvR19dHJBIhEAiICWhBEB4qIngWBEEQBEEQBEEQBEHY5PP5GBkZIRaL8dhjj3H58mWmpqZ48803+eCDD3j22WfZs2cPg4ODqOq9xyq6rhOJRDh8+DD9/f1cunSJK1eucPLkSSYmJtizZw8HDx7k8ccfR1EUMf0sCMJDQwTPgiAIgiAIgiAIgiAIm1RVJR6PEw6H6enpIRQKIUkSU1NTZDIZPvvsM4rFIul0mu7ubtra2tA0DUVRvtfxZFnGMAy6urpob28nFAoRDAapVCrkcjkuXbqE67oUi0X6+vpoa2sjEAh87+MJt0gSqIqET5eI+GUU5esmyj08D2wHLNujZnmYlodle3h/sTMWhIeLCJ4FQRAEQRAEQRAEQRD+jKIo+Hw+9u7dy+DgINeuXePixYu8/fbbXLhwgc7OTl588UWOHz9OJBK5L0GwLMvs2LGDtrY29u7dy7lz5/jjH//IiRMnOHHiBD/72c945pln6O7uxu/334dn+WiTJAgYEu0tKiNdOgHfVwfPnguu61GueeTLLis5m0zRoVBuBNKCINxJBM+CIAiCIAiCIAiCIAh/RpIkJEnC7/c3+5wNw0DTNG7cuEE6neb8+fPMz8+za9cuhoaG6O7uvqcu5tuPEQgEcBwHSZKYnp5mYWGBS5cusbGxwfDwMMPDwwwNDaGqqph+/p4kJFRFIuyX6WhRCPu/usbE8xp/1S2PqunSkVBYzzsspx02Cg7ZkvMXPPMfLlmGgCETCcjEQjKqLOEB2ZJDoexSqXvYjkjqHxUieBYEQRAEocEDCRlFFm8PBOFeKZKKLMliCZQgCML/ErIsk0wmSSQS7N27l8uXL/POO+/w3nvv8cYbb3D8+HGOHTtGIBBAVVU0TWsG19/3eD6fj507d7Jz506mpqY4d+4cb775JqdPn2Z0dJRjx46RTCYJh8P4fL57Ot6jqlG1AT5NIh5UiAYbwbO3+R9e8/9s3QGkzfsBrOcdZkMWUzdNcmVHTD4DiiwRDcr0tGoMdWr4dAnPg+lFixurFpZjY4uM/pEhfrMUBEEQBAEARVboT47iId4JCsK9CugREqEUsUDrgz4VQRAE4T6SJAlZlunq6uL48eP09PQwPT3N0tISH3zwAVNTU+zevZuDBw+SSCQIh8P35bgdHR0cPHiQeDzOzMwMs7OzTExM8MUXX/DUU09x4MAB2traCIVC9+V4j7py1aVYcylXPUy7kSZrChiaRCykEPLLSBKE/TI7Uhqlmku+0pjorZqPdvosSaApEkGfRCKs4DckXBeW/TaaBrIkgWjFfmSI4FkQBEEQBAAkSaYrPkDQuD+/IAnCo0xTDPx6iIi/5UGfiiAIgnCfSZJES0sLLS0tdHd3Mzo6yh//+Ec+//xzvvjiC8rlMgADAwP09PQ0J5Jl+atrHL5JLBYjGo3S09PDwMAA77zzDhcuXGBycrL5uMPDw3R1dRGNRtE07Z6O96gr1TzWcg6rWYdyzQXAUCX8hkRnwqMt1giffbqET1doL6is5RxMy7pr8CxLoCgSityYCPYAz/NwHHBcD3ezxuPP7yPLErJEY8wacBwPx6X5OIrS+POIB7bbeDzXu9U5rSiN5Ymy1Ah8Xa9xf9vxmtUhX0WSNo8hN47H5nG2HsNxGud9O0UGTZUw9Ma1CvslAoaM6zbqN3yajK651C0Jx7lzKaNE4zmrSqOyQ5YkPK9xHMcBx/Nw3W/5Igo/CCJ4FgRBEAQB2PwlKpgSQZkg3AcSEoqsoiragz4VQRAE4X9QKBSit7eX1157jSeeeIJLly4xNTXFL3/5S8bHx9m3bx9PPfUUfX196Lp+T1UYW/3PPT09vPrqq4yNjXH58mUuXbrEb37zG0ZGRti/fz9Hjx6ltbUVwzDu4zN9tJRrLmtZh+srFrly49uAstQIRFfzDn1tGmM9OrFg4/UM+SRSUYWNvANsT0ZlCVS1UT8R8ssEDBnP87Acj2LFo1R1qZl39h7rmoShyRhaIwAGKFVdSjUXny4R8stEgjKa0qiyyJVdCmWXutUIlhuLE2ViIQW/LqEpEqbtUa655EoOdbsRVN+NJDWC37C/cZyAT0aRG0F1ud6YBC9VXerW9nM29Ea3c9gv49duqxyTGnUmkYBMtS6DB/mKg3fbpZIASZYI+BrXyq/LGJqE5XjUTI9ixaVaFxPlDxsRPAuCIAiCADSCMp8WeNCnIQiCIAiC8NDQNA1N0wiHw7S0tBAKhdA0jWq1SrVa5YsvvqBarTI4OMjg4CCJRIJIJPK9jyfLMqFQqPlXS0tLc7FgsVjk888/p1qtMjw8zODgINFolGAweL+e7iPDdhoLBItVl3z5Vjq6laMamsRA+60Pl32aTDggo6u3PlhQFQlNhURYIRFRNis6JHxaY+LZdjzKVY9C1SVdcMiVXPJlB8dtHCfkl0lGFJIRBZ/eeNz1vEOm6JCIKMTDCmG/1FzeV6i4ZEsuq1mbuuURCci0bB7b0BrBs7UZPGdLTmOiO+c0Jq43n6IsN847HpIb5xxsLFz0GRJKY+CZan3rMVwyxcZSxbrVeIyWsEx3UqM93jiuujl0LwHxkExvq0osKDO/blNecDFdDwnQNImg0Xi+8XAjLPdthuWO61G3No9ZbFyrfMVtTqILP2wieBYEQRAEQRAEQRAEQbhH4XCYxx57jL6+Pp577jlOnjzJBx98wKeffkpnZyevvfYajz/++D0Fz7eLx+OEw2F6eno4evQob7/9NhMTE7zzzow1pQ8AACAASURBVDscOHCA1157jdHRURE832eVemNS+fYJZVUFny5ze7uJrkI0pDDeZ7CzRydgSOiq1Gis2Lyr50Gl7nJ91eLakkWl7uKYjWnllpDCQLvGcKfeXHq4sGGzknXoS6kkIwrybQP0ttuYQr4wW6dS9xhs12iNKcSDCtLmUkQPmhPEn1+vU6jWqdUbATA0QuegT2a4S+exfqMROmsStw/qe4Bte2wUHeZWbT6/XidTdDBdj464yq5endaIQtAnoSiNO0oStMVUEhEF1wO/UWd2xcK0G881aEh0JRX2DfhIxRX8hows0bxW3ua1WsnazK1YfLlgiuD5ISGCZ0EQBEEQBEEQBEEQhHskyzK6rhOLxQgEAhw6dIhoNMr09DSZTIYPP/yQ69evMzQ0xNjYGH19fRiG0ZxYvpfjqarKkSNHSCQS9PT0UKlUePPNNxkZGWF0dJSxsTFaW1vvue5D2Oww1tgW+lo2VE2vOa2sKhKpuMpYj07P5pSvqki4rkfVbEz5KoqErkI4INOT1HDcRo3Fes6hWHWR5caSPkOXmhPPrdHG9LJPkzAtD0XZvI0moXuN6eeRLh3T8oiHFTSlcV6a0jhvTZHQVAld9WiLqfS2OiylbbIlB1mCZERhpEunP6WS+P/Zu5Mnua4ybeDPOecOOQ+VNWuWXZJH2QZswPBBdDS96O5g0/ve9T/XvYBgQUezAbcBY9OBAXnUUCqpVHNW5TzcvPeec77FycxSyZItySUki+cXobBdysw7ZNmUnnx53qJC4LmKl2FsYIy75tAXCDISs+Mk21qLtZ0Eq9sJUmMRJ24hY2jEuBva3aNUu3qRVANx6oJkJV1gf34pwMqyj4Wqm7D2lECUWMTx4TUGvsBcSUFJgeH4GO2+qymhpxeDZyIiIiIiIiKiY+J5HjzPw7e+9S289NJLuH79Ot577z38/Oc/x6effjqt3wjDEDMzM8jn8/A875EDYaUUyuUy3nrrLVy4cAEvv/wyfvWrX+HnP/851tbWcOvWLYRhiFwuB8/zHjno/nsi4Dqd1bh6Yvo1CRSzrsd48nUAGCWugzhJLZR0QfHyjIfXz4fIjiehXc2FRaPnipVD33UZ5zMScxUFC6AXGaQa6A7vPc2bzwh4SqHR1Wj1NHxfjINaNQ2Fzy3403qK9sDVamQDgXxGoJxzwXXgCdSKCmcXfHQHBq2+RuALLFQUXjsXolJw/cqpthiMDBpdg1S7ayvnJYpZIB9KBDV3fGOA9XqKKLZodDU8T7jgPK9cRYd1AXhn6HqaWz0NYy18zz3/+WUfL5wK4CkBa4Aotmj1NboDg8AXyGUkyjl3rwpZiV7kup7jJGbw/JRj8ExERERERERE9Bj4vo8TJ07gRz/6EU6ePInr16/j+vXreOedd/DHP/4R3/ve9/Dqq69iZWXlWJYB5nI5nD17Fv/yL/+Cixcv4tq1a2g2m7h27RqCIMBrr72GbDZ7DFf2bMuEEpWixOKMh3zWQMAt+8sFAidmfSzPKBSyrv7CLfbT2DhwVRkZX+DkrIeFqkLguwA2Ti2ubSW4XU+w33E9zkoCL50KcG7RRyErUci40LjVM1jfS+55XpsHKdZ2E9RbGr3IQEmBM/M+Xj0XIh+6yWcAaPcNPt9IsNNM0ey6ULlSUHjjfIjFqgelgEwgMFOU0/7n+bKHuYqHXEbAG3crb+yn01/D2EIK4PSch9PzPhYqCrnQBcHVogvP232DT9djtAYGZ+Y95EMJFbgO6r1Wipt7Keptjf12iiR1U9dnFnw3ES5dpcdeR+P6Voy9lkarr+EpgdmSwovjCo9CVmKupDCc97DTSNHssXLjacbgmYiIiIiIiIjoMVBKoVqtolwu47nnnsPS0hJ838ef/vQnrK6uwvd9RFGEKIqwuLiIWq2GIAgeeSo5CALUajVUKhW8+OKL+P3vf4+rV6/C930kyb3DTPqifMYFsVK66VspXKibDwUWqx6qBQkpBYYji15ksNdyy/qGsUUxI7FYdX3Gk6noOLHYaaRY203R6mmk2nUb14oKs2W3SC/0JRbKApVcAiXFkSqPiUbX4Opmgv22Rm9oXHezAE7Pe/CVmgbP/chidTvG5n6KzsBASaBWUji/4GOu7CaXA89Nb/ueq+GolRRq4yBaSWCUANsNjaubCTYPEgxHbrJ4lLi/FjIShSwQSoFSTmG+rLBRT3HQ0VAKqOQltLEA3FbCztBgu5Ficz9FbzzRXcpJnKx5KGTcVLixQGegsbbrrrE7dKF/FFssVNX0mKWcxELZc9Pkwj2Pnk4MnomIiIiIiIiIHiMpJYQQWFlZwfz8PC5duoSrV6/iD3/4A375y1/i3Xffxf/7f/8P//iP/4harYZCofC1j+f7Pt544w288MILkFIim80ey1T134NSTiIbSCxUFcy4t1kKV7UReAJKuongelvjs40YN3cTdAcGxrj6iJmCQikrIQBoY5GkFqmx8KQLZO04jxUCGI7sdAJ60ucc+gLyHsnznZUegJu2HiWu67iQdRUYgFsg2O4b9MdhsbGA1hh3LLtzVFLAV65SZHJexZwLcu348fW2xnYjRXzHZxbNnsZ6XeDMgg/AfUCSDQRmSx4OOgadwYNPIOczArMliUwgYKxbWpik7n5kQ4nAc1sRcxnXaT1KLCxcUJ4J3b3yPYE4tdOFjfR0YfBMRERERET0iIQAlAC8cRhBRF+PC/UACTxzS/CEECgUCigUCsjn86hUKjDG4Nq1a9jb28Nnn32GbreLCxcu4Pz581heXkY+n4eU8pGOJYRAtVpFtVp9DFfzbFNSQHiANx48d/3O42V5cNUZza7B5kGKm7sJDjpuihlw4XQmcMvwJs/1fYETNTehe6eZogt7PSWm/3uilLjvxLM2QKpxJGQ1xp2P0Ue/lqQWWh8G1Ga8CHD61HHwLQQgpJh2PwvhQvU4df3Ow5E5MlE8GFm0+ofhN+B6sHOhC7Afhq8EsqF09xvuXCp5heeX3LLFiUwgMFOQyAaHj1Pj90NKAYE7roueKgyeiYiIiIiIHpGA+wN36EnkM1zYRfR1ZUPXN+umPcdjoc+gcrmMYrGI559/Hjdu3MDvf/97/PrXv8bPfvYz/PCHP8SPf/xj/MM//AMymcw0RKa/HWMsktRNCFtrIcfVFEoeVmdsNVKs1xPsNFLEd4SwAm56WQr3D0oJFDICL50OYe8ay3XvrQtSD7/mnv+g77i1419fI3oVAKQ6vL5UA8PYLRS8u8YiSS2i2BwJhuX4A9iH/YxESsD33F+FcJPMSzXXj/2FcxRfDOPlJKCf/OeCnjoMnomIiIiIiB5RLpQ4WfNRyCicnuMfr4i+rsAXWKgo5DP3nvh8VgghoJSCUgpLS0v47ne/i1KphBdeeAHtdhuXL1/G5uYmVlZW8Prrr2NhYWE6uWytC0MZSD8+Bx2D3VaK3ZbGcGQgpcDZBR8ryz485eod5isKja7rVU41oO8Mle8Ik41xAXZ3YKb9yF+m1XOh7kOtzDvmngkh7h8iS+HqOY77O89ad68GsUF3YL7ykrpDg8FkGpuh81OLPxkRERERERE9otAXWKiq8XSW/6RPh4i+gSqVCiqVCs6dO4fvfve7+O///m/84Q9/wEcffYS1tTUYY/Diiy8CAHzfhzEG/X4fQRCgVCpBKfVIdRx0f62+xs3dBFc3EzR7GlIIaG2xNKOQz0iEnsB8WaHZ9VDMSSRaYzg6fP6k2gIWMNYiTix2WylaPXPPjHQS4loA+x2N1PztO4vt+FyBO6ssxBeW9yklEPhHg+nDKo9HOeZkYtv1YXcGBrfrCbS+d54sxh3Uw5FBb2igDWs2nmYMnomIiIiIiIiInrBMJoPZ2Vn85Cc/wYULF3Dt2jWsrq7iZz/7GU6fPo2VlRWcPn0aURThvffew7lz5/DTn/70WJYR0v1ZCxhYHHQNVrcTnF3wMV9WUEqgnJc4v+g+dNwcpQBcD/MwdmFzPnRBqbYWmwcpbu25Wg57xzjzpGICcDUW/cggTizM3R0Xj5ExFoPIIordNL2nBDK+623OBBKj5LBaIxcKVPJqes6Am+juRxaJvs8B7iPRbrlixrcIICAk0BkYXN1MMBgZpOnRxyvl7lWaukWD3aFblsjFgk8vBs9ERERERERERE+Y53nwPA8rKytYXl7G4uIiMpkMdnZ2sLOzg2aziRs3bqDdbuPdd9/FysoKSqUSXnvtNVy4cAFBEEApds0/Dta6Kei1nQTVgkKtqCAFUMxJnJn30e4b7DY1tHFBaLuv0YsUKoVJN7GAUgLWYhwsYxrwBr5AJhAwFuiPDIaxhTZf7FZ+nFLjAt/e0B3XG4fhtZLC4oxCoysQJxYQwGxZYbnmIRceBs9RbHHQ04hid9LGHp2ShnCLQ7Ohu9Y4FUi1xTA2aPQ0cqFANnQ1Hkq6pY5xCnQHBmZcK+MpoJCRKPoCzdiiF7kFiOahOknob43BMxERERERERHRUySbzeL8+fOo1Wr4zne+g3feeQfvvPMOPvroI2xvb6PT6aDb7WJnZwf//u//jpmZGdRqNeRyuSd96s+sTt9A6xTnFjXi1EPgCeQzAqfmPGw3UmQCgVECjBKLnaZGpaBxouZBSSAbCFw8ESCfkVjbSdAbGiSpRSEnUSsqnFv0kaYWn2/G2NpPsd95yNHhrylJLeodjdmuhjFugttTrtdaKYEb2wn6IwMhgPOLPp5bClDMua4Na4He0GBzP0Uvct3MWltofbQCo5CRmCt5iEbuq92hq8rY2E9RzStUC25Z4HzFw3dWMljbTbGxnyJJLZR0If/JWQ/nF3xc3Yqxup1gp6GRao47P80YPBMRERERERERPUWklMhms9NFglEUYW1tDbdv30aj0QAAaK0RRRH+93//F0op/PCHP8Rzzz2HXC7HzufHwNVJGOy1NHaaKRar3riOwk0Bn5x1AfQwtthtpijnJBYrCuW8RCaQmClKKOkhGwg31awtsqFEISuwUPEwGBk0egqdvvmbB8+pBlo9jb1Wiu1GitmyQiEjUS1ISOGuc5RYCAHMVxRmiq7nehhbHHQ0dpoanYGrCAGAwchiMLLQxgXTAkCloGABFLMCt+sprm0l6EcWG/UUcyW3ULSYlciHAotVD0oKVAsSWrs+6WwoMFNUmKsotPoeWj2DZtegH/1NbxU9JAbPRERERERERERPodFohP39faytreGzzz5DHMfQ2oWSSZJASol33nkHq6uryOVymJmZQRAECILgCZ/5s8daIDUWO80UxZxAOSeRDRSUEJgrKTy/5KM/NGj3U+y1NLJBipmiwtl5D7lQTn8tzniHW/PE4V+sBWoFhe0wvd8pPDbaWHQHFrtNjdWdBFLChcAZ92updnjO4rBhA82+xtWtGOv1BMPILU4Uwk0zdwduqttYCyUFZgoSMwUJu+ijkImxeZCi0TXoDlLMltzSRjdFLuF7AqXcYX+2O/DhEsZi1oXSPlPNpx7fIiIiIiIiIiKip1Aul8Py8jL+9V//FbVaDTdv3sTm5ibq9To6nQ76/T601tjf38cvfvELNJtN/PM//zNOnjyJYrH4pE//qWetm/YdxhaNnkYyrm1oDwyGietavvvxB12NcE+gVvSQaNdJnIynl4NAwvMEtHav99HNEZo9jRMdjWrBTRGHvoAULqCNEovhyKDZM9htpbhdd6E1LBCnFr2R60Ce1En0R67z+M6zSrVFb2TR6ht4yn0o0RkcLgOcMNYt42t0NQYj10XdjwxGyeGrdQYGVzdiDEcWzb5BtaBQyh6es4WrEhmO3FT2dkPj1l6Cg44+PCcLpCmw39G4fHOEkzUP8xUPgQcoOe52TibT0Bapsbi1lyBKLPY7GvNlhWpRIeMLBOMFhtq6ZYKdgbtXG/UEWwcpugMWPD/tGDwTERERERERET2FwjBEGIb4wQ9+gJWVFXz88ce4cuUK1tfXsbOzg729PURRhDRNsbm5iU8//RRvvPEGqtUqg+cHYGGRaIvu0GCrkSIXuoqSekejNzRI72q8sNZ1PQukqJUSDEYGnnLh6CixsBZQAjBwi/G6A4N+ZNAaGCzPeJgpKuQCAU+64Lk/smgPDLYbKXYaKXaaGknqKi0mYXh4INDOuPNq9TRS7c5jYpRaNHsaSrrnAMBeO/1C93GqgUZXI/AEfN9Aa4sothiMDsPbfuTON0osOkON5RlvOo2sJMbLES06A43b9RTbTY1G153z4T11E9StnsHn4xA7SV3PtaeAeHwebhoaMAbYa7mqjk7foFnzsFwzKIQSmUBACHfu/ZFBva3H98odl55+DJ6JiIiIiIiIiJ5iuVwOS0tLyOfzeOmllzAYDBBF0bR6Q2uNOI7h+z4KhQLS9G9f1/BNZC0wjCy2DlJ0BgZqXI0dxS6UvXMa+M7n9COLz9djBL6YVk8Y4yaGE22PBMPtvsEoSbDXTBF4Akq65wgAqXGL/aLEIopdGDw5RrOrMRwZbB/o6Xn1hq5H2dijU8o3thNs1lN43mEIPhgdPfdRYnFtK8Htego5DpG1cVPEd5v0NddbGqF/eM6AWxyYaGAwctPS+j7L/UaJwUHbYhhZ3N5LIKWbmjbWPbc3NEeem6QW9bZGd2hwe09AKTG97knNSZxYDGOLUcyFgt8UDJ6JiIiIiIiIiJ5ivu9PQ+V7McYgiiIMBgN0u12EYfg3PsNvJmtdTUYytOgNH7y2IUntAy8AHCUuwG73H+7cJuG3m5++vzix06V+XybVFs0HnBKevGZn8EAPvydtgOHIYjjSOHjAxw9GBoPRox+Tnj4MnomIiIiIiIiIvsGklMhkMgiCAKVSCVLKJ31KREQMnomIiIiIiIiIvumklAycieipwv8iEREREREREREREdGxYvBMRERERERERERERMeKwTMRERERERERERERHSsGz0RERERERERERER0rBg8ExEREREREREREdGxYvBMRERERERERERERMeKwTMRERERERERERERHSvvSZ8AERERERERERHRgxLC/ZJCTL9mrYWxgLVP8MSI6AgGz0RERERERERE9I0gBRD4AoWsRK2ooKQLm9sDg87AIIotUs30mehpwOCZiIiIiIiIiIi+EYQQCHwXOj+35CP0BYwB1vdTGJsiSTVS/aTPkogABs9ERERERERERPQNIQWQ8YFaUeH5ZR+5UEIbINYWnYFGp/+kz5CIJhg8ExERERERERHRN4MApBQIfIFiViKfkdDGIhMIeEpACAHg61dtCAEEnkAuI1HJS3hKwFqL/siiHxkMIlZ6EH0VBs9ERERERERERER3kFIgF0qcnPXw4qkAmUDAWGBjP8XmQYLNfc3gmegrMHgmIiIiIiIiIiK6gwDgKSCfkZgrK+QyEsZY9IcGja6EkiySJvoqDJ6JiIiIiIiIiOipIoT7pYSAEAAEYAygpAuFH4Ycv5aUAmL82tYCxgLGWljr/vnOYys5rtoIBMp5iULGdUkXshpZX8BXAlIC1nyx2EMId8y7j2cBGGNh7jreo7j7GBg3jNjxNT3oMaQE5Pgei/GNndyPybne83l3PH7iXsecnOedJvd+8vtCAOOrgIV7P9zXBZS4/32b3FspxfR8HvY+3/0a0/v4EK9B98fgmYiIiIiIiIiInhpCAL4SyGUEKnmFMBDwpEB3aBAlFr734NGzEEA2lMhlBApZidBzofEotRjGBp2BwTCySLSdBoyhL5DPSBRzErmMhBwnrAIujC5kJaoFNwHdiyy0OXyulIfd0KXc4fFSYzFMLLoDg+HIYDh69DRTCCDwBUo513GdDQQgXAg+jF0HdWdgkKb3D44nr1PISBSy7v74SkAKgWHiOqw7A43hyH4heJXjexr6AkoBGAfJ/cggio8+OOO7eyHHHxgYC4zG5ygE4CmBbCgQjN/TOLUYjCxC31WdlHISsECjp4+8/uTDgWzoOrizgTufRFuMUotO32AQue+XLwuOlRIIfYFyQSIfSgSegDEWsbZo9w26A4NEWxjzCG8UMXgmIiIiIiIiIqKng6cEMoFAraRQKyrUShKZwC336wy0C3q1RSErpoHw3SYTwIVxeFwpKJTzEqWcQOhL+BIYjQPOVt+g2dVo9jQGI4s4sShmJeYqCotVD7WihJLj1xVAISMwX1YAXPi7vpdilADaWORCiULWheXlvEQ5L5EJxsGzBoaxQXtg0OwaNLr6nkHtl1HS3Z9SXqKSV6iVFIo5gVwgIYQLdQcjFzo3uwbtvkarb6C1hTaH1yCFqxAp5SRqJYVKwQXYvuemfocji17kKkUmrzNKDl9DSYGZksJMQSIbClgLpNridj1FFB+tICnlXU+2Nw61U21x0NUY7lkoCeQyAsszHip5d097kUGzp1HMKVTyLlSOEwsrXMAfxRaB575HKgWJakFhpqSQCwUynkBigCg2aPfH97mn0R8aDO+6z74nkBkHztWCQrWoUMy4ANxY9/3R7Go0uwatvkZv6N6rLwvy6YsYPBMRERERERER0VMhFwrMVTy8dj7AqVnfTdVKF5hq7WOUWrT7GqEn4Kl7v4YQbpL15JyHiycDzFcUyjkJJQ8rJawFtHETtnutFJ+sx9jaT1Fva8yVFS4sBzg566FaVNMJayGAmaJCMSdxet7Hta0YBx2DVGsAAss1hbMLPs7O+yjlJDzvaAWEsYDWFrstjfV6iuubMTYP0ge+N77nQudXzoQ4t+ijlJUIfFdHAYzrISwQJy44vr6V4KOboyPBqxxPS59Z8PHKmQDVgkIhK11txx2VJqlx09nbDY3LN0fYa2kMRwbWAp4HnJ7z8NySj5mCgoXFcGQxSobYax0NnhcqHr69kkE2EFBSIIoNrm4m2D5I4XsCMwWFl8+EODPvIspWz2C7mWK2pDBX9uBJ4KCn0R25Kex2z6CYk1ia8fDS6QCLVQ+Z8eS1FId1H6m22O9orO2kWNtJsF5PjpxXPiOwXPPw/HKAswve+PtpXOsyfq/i1KIzMLi2FePmbortgxRxyuT5YTB4JiIiIiIiIiKiJ2rStbtQ9XDhhI9Tsz5mSwpSAklqMUospHTVDX5JwVMuyLyX3Hgh4Nn5wxBYKaA3tIhTNzGdz0jkMwIFIeArD+l4mrfVN4AAtLXQ457jO1ulXfexm3DW437nTCAR+MDpeR/PLfqYq7jANNF2OkWdy7jp5yDrprdDX2AQGfQjg/7IInmAQLNWOgy2F6seAg+IYotm3528J4FSTiJXcJPXWrsA9sZ2gq2GC7iLOYnTcz6eX/Zxas5HLnCB62h8X4xxVSNFTyI3rp5ItUXGT3BjO0GqLYQQyAau6qNSkLAWCDyD8B4VKKEvUM651/IUMBgJ5MJ03KvswvRCxk0dTx4fBgLFrEQx60bNh4mbcg58gUwocGrOw8pygFOzHsp5CQGBWLv77HtuKtxTboLbk+78eyOD/tAg1UA2dFPWL54KcKLmYa6kxh8KuLBZSSDrC+RCgXxGwNrAVZCM3CT1KGH4/KAYPBMRERERERER0RM1WfB2es7DpXPheELW/d4odvUMgAsqZ4rK9RrfRzknceFEgLMLPuYqCgKuf3i3lbrgMLZYrnlYUsoFo3mFl7MSo9hidSvBKLE46BqEfgolPYS+gFSuUmIYW7QHGp2+Qb2tkaQW2VBgtqxwbsGFuUIAw3HlxW5To903WJxRmC0peDlXcVHMSjS6Gu2BwdZB+kDB82LV3ZuZgut1ntRWXNtKAOvC0vPLPuZKChlf4sSsW4zYi9wUMeAmtt94LsRi1YW2gAv2e+Op6NRYVPISoa+Q8QXmK27C21PA5kEK8zW6qR9ELpTIhvKeCyR9zwXnzy35uHQ2dMsdrQv4e0NXiVHIuNqQXAgUs24p5DCxaA81NvfdZHa1oHB63serZ0M3zW4n3dIGnb6Z9meHvkA2kDi/6D642GtrxDrFKNH3ODu6FwbPRERERERERET0RGVDNz1bKbjJYCkFBiOLeltjYz/B+p4LTkNf4MSsh6UZD0szCr76YkQ5WfAXpxYHHY04tWh0ND7fSNDqa2gNtIcGvZGHM3MeKgUFJd2Ea62oMBxZrO8liMbVEtWCgqfcdHO7r7Gxn+L2fjqtn8hnFPIZgSg5DMh3WxqrWzFafdcNvN2UODXn4dLZEIWsq3QojpcU7rcfbFliNhCo5l29Rpy4Kon1vRSrW/F0Ujk2Fp0ZD5W8hBACSWohAGQCF6JOOp0n3cz1tsZuM8V6PUVn6K53vqywXPOwXPNQzkmEPlApKJya87DT0Ige48Rvot10+05TY6+VIkmBzsAF54EHnF/wUc27SXghgIOuxtXNGPsd92FAJnAfTLx4KsBs2U3Gl3ISyzMeml0DWIsz8+77R0kBa4BBbPD5bVd7MogslHL3+oVTAc7O+1DKLTo8UfMwGBm0ugyeHxSDZyIiIiIiIiIieqKywXi6NiunYfJwZHC7nuDqZoLrW/H0cb3IVUvMlRX8e/Q8awOMEoODrgstR4kLoG/tJegOzXT5oKdcyFqFCzEzgUQpL7F1kKIzcLUMpZyCHtdtWAv0ItfRfHM3QXtccWHGncAHXY04sRAC2DhIcWXTTU8bY9HsCUgJvHAyOHLNpay8b1f13XxPIBu6PuY4MehFBq2eW6I3qYiAAAYji/nyYTf1KHHPrRQkakWFQsZVaBjjguerW+7+Tq5noarQGRrkQleT4Y/D2xOzHvqRRdR+fMHrKLFo9gxubCe4thUjil0QnWqLs/M+Ts+56hQx7qJu9jQ+WY+x25yExgJzZReue+MFggIu5A88ARMAJ2Y9zJcVpHDT3v3IYm0nxbWtGPE4qPeUQDWvcGLGgxTuvVqsKtRbCkDyFVdBEwyeiYiIiIiIiIjoiQp8gXLOVV9MRIkLeVv9w6BTW6AfuVqEu/uXJ5pdjb+ujeBJF/aGvvtrpSBdvYQAKnmFfOj6lu80maR9GM2uxii2b+B9egAAIABJREFUuL2XIvQEfN99vZx3Aakc9xmX8xLqzuONFw8+6OEmdRAZ3/UdL1Q8pClgrEWrb9AbGnSHBt1hjFu7Ynodnb6bZC5mleu7HndjWwCNrsZOMz3SW9zuGwiRYGXZhzYWSroAt1ZUyAYPvgzxUXQHBqvbMTYOEjQ6etyzDVhr4XkC1aJEGAhoAwxGBt2B+zU5f2Nc7caVjQT1tkYmkO6+RW7yPPRd2J8L3f0Zxm6BoFKuH9vYw75xId33oOcJ+MrVlmTDh/zm+DvH4JmIiIiIiIiIiJ4oTwK5UBypzkhSi1ZfYzCecAYOO32TL8k/R6lFo2tQzLqgOZ+RKIzDRk+5pDfru6V2mTuCbiEePnQG3JRuog1K46najO+W++UzbppZjoPeSl4eub6HPVS7b3B7P8VixQXIhazA4oyClAHafdcp3R26SejhaBJEu4nrXCjHdRuHgbS1djo1fWfH9ChxYazrfD5cAlgcT0o/TqPEotFzYfIwPlrp4UmgkHVLA611k9DD2C0V1HpyTW7h4uZ+ikbXBfTWTqbgLQpZF1xPpsGFcLUsSzMe8neFyjNFV8EigOliy4BJ6kPh7SIiIiIiIiIioidKSgFfuYBvQhtgOLKIH3LI1lOur3ll2cfFkwEqBYncuKICYjLR6qag79UR/dDnLtxU9dlFH+cXfSzPKOQy7nh3TjQr6YLQR7XTTPHRTUCeC5ENXQhcybsFetpYaOPuWW9osNdOcWMnwdWNBKPEXbcSgJJHA28X3hrYw2wf1gLWAKm2SFPr3hfhwmcl7z6rvx2lXE+1J920dqotUu3O907auAWQ3aE48kFC4LkPHu68/nzGBfKzJQljjr6O77mAWgp3LPkQ0+nkMHgmIiIiIiIiIqKnwPHEeuWcxPklFwIv1TxkfIFUW9Q7Gv3IYhQb+J5bGLdQUShkv16aWs4rLFQVzi14OD3nFvvFqesqdtPHFsYAhZzAmTkfmeDRrrM3NNg6SOFJgUZXu7qQjOt9zo6nmaUUyAUCmUDAkwKhJ3FrL0EvMoch7L0OL+DS3LFpiclTlLRaa6GNhbVfngBbC2gN6DsuSAhMQ+c7w2hjLJLUIhr3SB8RH/5tqt0kdX/0+BYrPosYPBMRERERERER0RNl7Tj3vCPXE8JNuUoJ4CH22VULCpfOhZgrKeSzEmlq0R4YfL4RY+sgRbtnUMhKzFcUQj/ztYPnmaLC88sBzsz7mCu7TYH1tsa1rRhbDY39tkaiLU7NepgrKWSCB9wmeAcBN50ctzVaPYMbOxJLMx7mKgqzRYnZkkK1oJAJXF/2XOCWCC5VPYwSg9WdO0eaD/9WSjeJrbW988uHU+Hj9Pkw9H2EG3RMjHE9174n4Ikvr0aZTpqPf18c/u2RaxilFt2hQaOjMfiSUFkbN3k/WcBID4bBMxERERERERERPVGJtuhGBvEdAbPvuYVu3YFEnLjfEBgv67tH4CiEC13zGYFSTiL0BYwBGj2Dzf0Um/UU+x2NUWKhlECSHk+QWsgIFyiPj5doi/2OxtWNBN2h6yo2405i8wjH8z03wVzKShSzbmGhsW653q1dg409IBMIFLMSZ+Z9LM24ENr3gGJOopiTyAYSiXadyJPoVAhXNVHOS3T6BvG45znwBPJZt0gvGFdNJNqiO7BHlhDijtdRUkA8SkH2Q0iNxWBkEfoWgXL1KblQQCl3DpP3MhO4zuZy3j0m1RZRbLHTTBElBql2lSRKArBAnFjc3E2x3UwBeySXhxxPSlsAo9hVeNCDY/BMRERERERERERPVJxatPsGo+RwojT0BebLCoPIIIrd1wPPBay5jPxC0OnqFFz4nAvdErpUW0Qjt3iv3TfTqVYl3evL+w072/EUtsU0iRQ4fP3Qd/2/2lhkAolSbrz0Dq6WoR+58PnOMDfwxCMtL1QSyAQSC1UPJ2ddlNeLDG6Pg/R234WhudBdTy4UKOWUq9tQ7rmeAvojt0xQm0mRhkA1r7BQ8WBMiv7IABYo5SXmy25i2ht3YLulf9ot/LMu+J4EvVIASrnANz/umwZcYJsJxDiUfvjrvtsoAVp9jVwokA/dsr/CeIFkql2ArCRQyiucXfCxNOOhmJMYRAbNrkar7z506EXu+ywbyOlk9GBk0Oi63590PXtKjEN4AW2AVk8jvkfwTvfH4JmIiIiIiIiIiJ6o4chir5WiH/nTrxUybkGgpzCdFM6FEs8t+Tg168G/K9Wy1k2yGoNpWCyFC0OrBYVS3m3Wk1Lg9LyP5xb9+9ZsTJfXmTsqKMYTwrMlhVbfA0SK/tBCCBc2G+vCbzdpLLBQVehHBtYCyzUP5xZ8ZB5huaC1rou4VpS4eNLdn97QIhu4hYyDkYEx7lrFPfontHGTzkkrRSEjEKcW2cAFxidnPSjpwvRmT0Mb4NSch/OLPmqlw0qQfmSxeZCiOzSwcH3Ik4lxpQQyvsDyjIfu0IX8QgAzBYWTs944EHd1HV9Hb+jC9mJWolZU8JTATEHhxVMhthop9tvavT9lhfOLrvbEVwJ71uKg4+5jFFtsN1LkQ4mTs26x4ExJ4aXTIYo5ha2Gm4oGgFpBYbakMFdW6EUWH98aYb+j0RuwbuNBMXgmIiIiIiIiIqInKk4tWj03ddrsuQAx9AXmygrGuioHwE0pL814qBTk9Gt30tpiGBu0+hpCKITj6ee5ssLKcoBhbCElcGLGw2LVQ/aOIHhSqyCFW2Q3SlxFQ5JaaON+v5iVWKwqQADZQOB2PUWiLQ66GtlQIBsKKOl6ny+edMez1mKx4mG+ouB7h8dTcjIF/eVhtDHjfud0vKQwK5EN3O+5qWIJYy0Cz92bQlZCSSBKLAaRQW9oMBy5APygY7Dd0IAFKnmFSl5CSQ8WQHeooA2wWFVYrrl7k2iL3tCi3tbYa6XTkLszMGgPDOYrFkIIKAEsVBUgAnSHBlIA5bzEXMlzgTiOVlg8il5ksHmQYqGiMFdSCAM38Xxu0UcxJzFX1siFbgJ6vqKQC919GY7c+Q9j935u7KfIhhKVwmQpo8RyzUMmFCjl5bROZCYvUS1IVAoKB12N2/sS3aFB72tex98TBs9ERERERERERPREpdpCa4udpsatvRRn5n1Ux8HgyVmBxephhCXgluLdHddOJp67A4ON/RRSAAtVD9lQYMlXmC2raT2EGi/VU3cMPCvp6huUEjAWGMYG/chgOLLIZyzCcbVDLhRYqHooZSU6A+O6lusJqgUXVCrpKkJmCmo8qW2nx5JCwI4no0N/HFR/xa7BVFvoyN2b1e1kOo28NKMwV1F4+UwA2EnViJiG562Oxno9RaNjEMXuwg+6Gp/djgEboJxT8DyBSkGhkJXTqXIl3esITCo9EqzXUzS7Bol217LfMZhpa5yd94HQPW+uojBTPLzHkxqT1Nh7fkjwsAaRwWZisTzjYa6sMVtSyAYSS1WF+bKCMe4eyPH5a2Mxii12WhrXtxMMIoNUW6zvpQh9gYWKm2gu5QTKOYlCVuDEjDcNyKVw90JAoDMwyPgCvnq8PdbPGgbPRERERERERET0RNnxUrfdZgoBN627NKNQybkpYSmAKDHoR256VUlgsepNA8bByE0mGwO0+gaf344RxRZRYlHMSmR8CSFd7cQosWh0XWA8W1KuL3p8TE9hPPHsJo1bPY3PNmKcHHpYqLp6DyUFrHEhtzZuIrg7NMgGAsPYopJ3FQ6+EjDWIk6BZi9FklpkAzfJHfoCUeKqKgSOLsf7wr0Z3596W0OIGIPYYrHqppVdl7ULR6111zvsGXSGGtsHGut7CfY7evrag8hgo354j6sFiVJWTruYATdd3RkYtPoGey2N2/UEOw2NVNtp7Ue7r7GxL1DMxlisugl0T7rQN9XAYGTR6rnuaU+5hY+eJxCN3Hs1ub9J6jqXmz1XX9GNDOLETZjfTRvAWIv1vQTGWJyY9TFbUihm3T3wpPvAIB5Z9EcazZ47/7XdBP2hcbUp1n0fbTdS/Hk1wvKMe18Lmcl75t4Ma4F+bDCILFp99/idpkY/Ys3Gw2DwTERERERERERET4V6W6M9MBgmBr2hj9NzQH48FdzuG9TbGte2YwSeQGrcQrtJ9UOcuGCyM7DoDmNXrZBYLFU9VPIWSrmwtTMwWNtxgezKiQBzJQUh3HQv7lgmaK0LsT++NcJgZGEskM+4egytgU5fI0qsW1oXu7C0MzA4O+9Paxzi1KI7tFjbTTAcWcwUFEp5NzltxxUaFm4SWn9FB3Kj6xYJNvsGe22Fs/M+ZgoS+Yxbkmes62JudDW2Gik2D1Js7adHXiOKLaLYVWbstTXOzns4UfNQzksE4xqQwciiOzC4WU+wuZ+i3tLT+gnAHac7MDAmPbzmcX+1Uu6a9jsGN3cTKOnqSaoFiWwoEY/vvxlPp0fjpYVhIMbX6KazU33ve2AtsLHvlio2ewYnZj0szXjIhy7M1xoYxu7Didv7KdZ2EgxGBklqj7xGva2x39HYa2uc7hosVhWqBbeQcXIvW32Dg47GrXqCvaZbTqjvc150bwyeiYiIiIiIiIjoqZFqi72mxiCyuF1P4Uk3EZykLkhuDwyUAAaRhZIuJ+4O3DT0ZOEdAOx3XGC6vpeMu5Rd2BmnFr2hQZRYjJKRCxsBJBqIx68/kaQW3b7Bje0Y++30jg5oF1S3unoceAOtnkGSJNhvawSeq9YwdvwaQwttLHabKXzPTdZaAEniuq3NAy7eM9YF3mlq0ewYhL6bKJ6UKKfaBb/9kZvovp8otmh0NOJx53HgiWk1htbjexS5id9U3/vcRolFvZW6Coz9FFK6afFJoNwbuiWDvnKhsFJuyrk3dJUX2rh79umtGDd3kul5dYcGw/j+98OO7+l2I0VnYHBrNznyvmjjXqc/ct3W+h7nP7ndjY5BHMfYPJAIfAFvfA8s3PfCKHH3YThy0/T0cBg8ExERERERERHRU2MywdwZfHnSN6lnuBdrXcDZG375a3S/4hjauAnaYayx1/rycddBZDCI3DTt42ItMBxZDEcaB51HP06SupD+q+7Pl0m1my7vDAy2H+kVXKj9KPUVqXYT8O3+o5+/tUA/MuhHAMBR5sdBfvVDiIiIiIiIiIiIiIgeHINnIiIiIiIiIiIiIjpWDJ6JiIiIiIiIiIiI6FgxeCYiIiIiIiIiIiKiY8XlgkRERERERERE9JWEAAQspBSQElAcZyT62qSc/Lv17GHwTERERERERERED8T3BHIZgZmiQug/i1EZ0d9WISsReAJSPnv/PjF4JiIiIiIiIiKir6SkQDYUqBUVzi74GCX2SZ8S0TfeYlUhnxHP5P+DgMEzERERERERERF9JSksyjmJfCixXPNgDINnoq8r8AUCT8Bj8ExERERERERERH+PhBDwPcD3gGz47NUCENHxegazdCIiIiIiIiIiIiJ6khg8ExEREREREREREdGxYvBMRERERERERERERMeKwTMRERERERERERERHSsGz0RERERERERERER0rBg8ExEREREREREREdGxYvBMRERERERERERERMeKwTMRERERERERERERHSsGz0RERERERERERER0rBg8ExEREREREREREdGxYvBMRERERERERERERMeKwTMRERERERERERERHSsGz0RERERERERERER0rBg8ExEREREREREREdGxYvBMRERERERERERERMeKwTMRERERERERERERHSsGz0RERERERERERER0rBg8ExEREREREREREdGxYvBMRERERERERERERMeKwTMRERERERERERERHSvvSZ8AET07jDG4efMm1tbWsLa2hk6nc9/H+r6PTCaDarWKubk5nDlzBnNzc8hms5CSn4k961qtFj7++GOsra1ha2sL3/72t/Hmm28il8vB9/0nfXpERERE9A2zs7ODX//619jZ2fnC70kpEQQB8vk8isUiTp48iaWlJdRqNeRyuSdwtkREfx8YPBPRsbHW4saNG/jNb36D3/zmN9ja2oJSClLKL4TJmUwGxWIRJ06cwPnz5/H9738fL730EhYXF5HNZqGUekJX8WwxxiBJEiRJgjRNEYYhgiCAlBJCiMdyPGMMRqMR0jSF7/vwPA++7x85Xrvdxh/+8Ae88847+NOf/oT/+I//wMWLF6ePJSIiIiJ6GLu7u/jP//xP/OUvf4EQAp7nTf9M4XkecrkcqtUqZmdn8frrr+PSpUu4ePEiFhYWkMlkHtvwi7UWWmskSYI4jqGUQhAEUErxzzxE9Mxj8ExExyqOY/T7fTSbTYxGIywsLKBcLqNYLB55XJIkGI1GWF1dxWeffYYPP/wQb7zxBn76059iZWUF8/PzT+gKni2tVgvXr1/HtWvXcOPGDXz3u9/FK6+8gpmZGWQymWM/Xq/Xw8HBAT744ANsbGxgZWUFzz//PFZWVhAEwfRxQojp1Hs+n2fYTERERERfS5qmaLfb6Ha7yGazmJ2dxeLiIgAX/lpr0e/38cknn2BtbQ3vvvsuXn/9dbz11lv44Q9/iGq1+lgGM5IkwebmJq5du4bLly9jcXERr776Kk6ePIlarXbsxyMiepoweCaiY6W1RhzHGA6H8DwPp0+fxtmzZ7G8vHzkcYPBAJ1OBzdu3MDq6ir+8pe/oF6vo1KpQCmFubm5x/KD39+bfr+P1dVVvPfee/jggw+Qy+Vw4sQJFIvFxxI8D4dD1Ot1fPDBB7h8+fL0B/9z584dCZ4zmQxOnz6NS5cuIZ/P4/z58wjDkFMfRERERPRIjDGIoghJkqBcLuO5557DG2+8AQDTieO9vT3cvn0bGxsb+OSTT9BoNNDv91Gr1R7b8EuapqjX6/jkk0/wP//zP7hw4QIqlQrK5TKDZyJ65jF4JqLHZnZ2Ft/5znfw1ltv4eWXXz7ye8YYpGmKGzdu4PLly/iv//ovrK2t4Re/+AUymQzeeustBs/HII5jtFotbG1t4fr169jf30cURdBaP5bjpWmKwWCAra0t3LhxAysrK+j1ejDGHHlctVrFj370I3z7299GFEWoVCqoVqsMnomIiIjoa8lms5ibm8Pbb7+Nf/u3fwNwOPEcRREGgwF+/etf47e//S0+++wzvPvuuwiCAP/0T/+En/zkJ8d+PsYYDAYD1Ot13LhxA/l8Hp1OB0mSHPuxiIieNgyeieixCYIA1WoVCwsLOHXq1D0fUy6Xkc/n8dFHH6Fer0+XEzYaDRQKBSilsLe3hyiKEAQBstkscrkc9vb20Ol0IIRApVLB0tISPO/wP2laa0RRhHa7jUajgTRNYa1FEAQoFAqo1WrIZDJHnnOnSRfb/v4+Wq0WRqPRNKzN5/MolUool8tfuYzEWotOp4ODgwMMh0OMRiNIKZHNZlGpVFAoFJDP5488J0kSRFGEXq+Hfr+PSqWCXC4HYwy63S4ajQaSJJleT7FYxNzcHMIwhJRy+vxWqzVd3ndwcIBer4fd3V3cvHkTALC4uIharTbtfJ6cr7UW3W73yDkDbiFkoVBAuVxGpVKZfjBgjEG/38fBwQE2NjZw69YtHBwcoNPpTKdKrl+/jvn5+SOT1pPu78mv+33QMOmpnrxmFEWw1kIIgWKxiGKxiHK5jDAMv/DcJEnQ7XbR7/cRRRFqtRoqlQo6nQ46nQ7a7fb0h/5CoYBisYhqtfpYpsGJiIiI6PGTUiIMQ8zMzHzhzyDGGGitobVGJpPBYDDA+vo63n//fSwtLeGtt95CJpM58v/UAw4nphuNBjqdzpE/GxQKhemfDbLZ7JHjNBoNbG9v49atW9jd3Z3+uWBjYwO1Wg2e56FSqUyr5yY/D1trMRqN0Gw2pz/LTn7+zeVyKJVKmJmZQRAEHNYhoqcag2cieqJqtRouXryIV155Bbdu3cKf//xn7O3tYXt7G8vLywiCAFeuXMHBwQGKxSIWFhawsLCAv/71r1hdXYXnebhw4cL0B7eJJEnQbDZx/fp1fPzxxxgMBtBao1Kp4NSpU3jttdcwOzt73+DZGIM4jrG6uoorV66g0WggiiIAwKlTp3D+/HmsrKx8afBsrYUxBnt7e7h8+TJ2d3fRarXgeR7m5+fxwgsv4PTp018InuM4xsHBAW7duoXt7W1cvHgRi4uLSNMUt27dwl//+lf0+/3p9Zw5cwbf/va3MTMzAykloijC/v4+rly5go8//hg3b95Eq9WCtRbb29v45JNPsL+/j5WVFVy6dAmlUmn6w7W1FmmaTs95Z2cHzWYTAFAsFnHq1CmsrKygUChM712SJKjX67h8+TJu376N7e1tNJtNpGmK/f19XLt2DblcDs8//zzOnj2L2dlZCCGwsbGB7e1tHBwc4OLFi8jlctPw/O73ot/v48qVK1hbW0O9XofWGkopnDlzZvpe3Ct4Ho1G2NjYwM7ODvb39/Hqq6+iWCxid3cXq6uruHr1Knq9HgDg9OnTOH/+PC5evMjgmYiIiOgZNBl4+Na3voWlpaXpz62XL1/GhQsXsL+/j9nZ2S8Ez2maot/v4+rVq1hdXUWj0ZgOZ5w+fRrPPfccVlZWpsHzpH5wbW0NH3/8MVZXV7G9vY0kSdBut7G6ugohBAaDAV544QUsLS2hVCodCZ77/T6uX7+OmzdvYnNzE2mawvM8LC0t4dy5c3jllVe+sMCbiOhpw+CZiJ4oIQSUUiiVSiiVSpBSIo5j9Hq96QLC3/zmN/j0009RrVaRz+cRBAFu3rw5DaOTJMH3v/99AO6HwrW1NXz66af44IMPcOvWLTQaDQghIKWE1hqFQgFnzpzBW2+9hR/96EcolUrTADmOY3S7XXz44Yf43e9+h5s3b6Jer0NKOZ28zWQyKBaLuHjxIi5duoS3334b8/PzX5gAvnXrFt5//318+umnuH79Oowx0+mHIAhQKpXwyiuv4M0338QLL7yAkydPAnC9zOvr6/jd736HDz74AG+88QZmZ2exvr6Ovb296Q+6kx8+Z2dn8ec//xnf+9738OMf/xjdbhe3bt3Cr371K3z44Yeo1+uo1+uw1uLzzz9Hu91GPp/H9773PZw4cQKZTAa+76Pb7WJ9fR2//e1v8emnn2J9fX06yZGmKYQQCMMQp06dwsWLF/GDH/wAr7zyCobD4bQmZX19Hf1+HxsbG4iiCDdu3EC328XVq1fx9ttvA3D9zkIIfPLJJ/jwww9x5coV/PSnP8Xp06ehlJoG2sPhEL1eD++99x7++Mc/4tatW2g2m9NA3xiDbDaLWq2Gl156Ca+99hrefPNNFIvFaWXHZIHMn//8Z3z++ee4cuUKXn75ZfzpT3/C2toahsPh9FepVMLi4iLefvttvPHGG3jppZe+cqKdiIiIiL55pJTI5/N45ZVXcPv2bdy8eRO7u7u4fPkyXnvtNZRKJQDuZ8lGo4H/+7//w/vvv4+trS20Wi0Ah9WBmUwG5XIZly5dwuuvv44333wTYRii3+/jgw8+wC9/+Uu0Wq1p5d3Ozg7ef/99fPbZZzh//jwA4P+zd5/Ncd3X4ce/23vfxTb0BQGQAAmSICmQlGSqcETJji3HHjuZyUvIg7yE5GleQDKTJxn7QZw2YytWJP5FilSh2DsKARBl0RbAYrEF2F7/Dzh7TYikKilRzvnMaKTR3r33txcYzLlnz+8cs9mMxWKhXC6TyWS4dOkSt27dYm5ujkwmQ61WU1rXNaukI5GI8jzzRTs5hRDi+yR/mYQQ3zuVSoVOp1O+sW9W3TYaDfL5PNevX+fjjz/esZ2sWq2iVqtxuVwkk0lqtRrVapVsNsudO3f48MMPOXfuHFtbWzu2ryUSCfL5PBcvXiSRSOD3+3dULjcTxufPn+c3v/mN0s6iWR1dLBZJpVJsbW1x9+5dFhcXCYfDWK1WzGazsrZYLMa1a9f4j//4D+bm5igUCrhcLqxWK8Vika2tLVKpFLOzs2xubqLX6/H5fOh0OgqFAmtra9y6dYvTp0+zvr6O1+slGo1SqVSwWCxKFUUzqT42NkatVuPgwYPkcjm2traIRqPMzs4qidVGo6EkrXU6HeFwWOn3XK/XWV1dVdY8MzNDo9HA7XbjcDiULwMSiQRms5lr165hNpvp6OigVCqRTqeZmZlhYWFB+TnUajUymYyyzvb2dra2tiiXy9TrdWZnZ7l69SqXL19m165dFItF5efQaDSU+/P+++/z3nvvKVsi3W43gHLdarXK+Pg48Xgcv99PR0cHDocDeJC8np2d5cqVK1y+fJn19XWWl5cZHR1lc3MTl8ul9MHe2tpCrVYrrUza29sxmUxSRSKEEEII8WfIYDDQ19fH3NwcZ8+eJZFIMDY2RltbG11dXTQaDdLpNGNjY5w+fZp33nlHaf3ncrmUgplEIkE2m+X+/fskEgna2trw+/2Uy2XW1taYmpqiXC4rOzBzuZzSCq9eryvxefN6MzMzvPfee5w/f55CoYDRaMTj8aBSqahUKiQSCUqlEpcuXSKTydDX14fP51OS5UII8TyRxLMQ4ntXrVZZXV1lZWWFcrmM2WwmGAxisVjI5XIASvKyq6uL/v5++vv76ezsxGw209XVhdlsJpFIMDMzw5kzZ7h69Soej4dXXnmF1157DavVikqlIhaLcefOHU6fPs3ExAT/9m//xq9//WtCoRAAa2trnD59mhs3blAoFHjrrbc4fvy4UhlcrVa5ceMGFy9eJBqNMj4+zpUrV9Dr9QwODqLRaMhms3z44YecOXOGhYUFdu3axauvvkpbWxsej4dyucz9+/c5e/Ysa2trvP/++4RCIYLBoLKOplqtxuLiIhqNhpMnT9LX10dHR4fSO/r8+fPcvn2blZUV7t+/z+TkJC0tLUrrjYmJCW7cuMH169e5ffs2r7zyCi+//DKhUIiuri46Ojowm82Uy2XOnTvHe++9RywWY/fu3Zw6dYrW1la8Xi/1ep1YLMbFixcZGxvj/v373L59m66uLnbt2sULL7zAP/zDPyhJy6dHAAAgAElEQVRTwt99910mJyc5dOgQw8PDDA8P09nZSTgcxul0Eo/Hn/j70PziYWxsjN/+9rdMTk5iMBh4/fXXOXDgAOFwGK1WS6VS4datW9y5c0epcHc6nZw4cUKprv68VCpFMpnkzTffJBKJ4PV6lbYs//u//8tnn33GvXv38Pl8vP7667hcLnQ63VP6TRdCCCGEEM8LrVaLz+fD5/Oh1WrZ3t5maWmJ7e1tZd7L3Nwcv/vd75icnMRms/HWW2/xwgsvKDFitVrls88+48KFC6yvr3Pz5k2Gh4c5cOAAoVCIv/qrv+LgwYNMT09z/fp1PvroI7q6ujhx4gS9vb3s2rWLrq4uZQ0TExO888473L17F71ez6lTpxgcHKSjowONRkOxWOTOnTvcunWL69evc+/ePc6fP8/IyAiDg4Pf9y0VQohHSOJZCPHMNFtTlEolCoXCI6/V63VSqRTRaJTp6WkSiQR2ux2fz6cM/2tqtuTo6Ojg1VdfZd++fXR3d6PT6ZQBICsrK1y5coW7d++SSqV44YUXeOONNzh58iQmk4lGo0E8HsfpdDI1NcXi4iKffPIJhw8fZmRkBIPBQDqd5s6dOywuLqJSqdi7dy9vvfUWLS0tGI1G6vW6Unn94Ycfkk6n2djYIJlMUq/XKRQKxGIxbty4wb1797BYLOzbt48f//jHBINBXC4XtVqNSCQCwOnTp/nwww8ZHx+nr6/vkUqFZnuLQCDAiy++yPDwMO3t7QBkMhllSnY0GmV1dZWZmRlcLheRSIRwOEwgEKBYLCqfp7u7m5deeoldu3bhdDqBB4neZkVzuVymo6ODkZER3nzzTcLhsFI9HIvFMBgMbG9vc+XKFebn55menlb62rW1tbG8vMzU1BTXrl1jfn6etrY2hoeHefPNN7HZbF/p96ZUKrG5ucnExASffPIJFouF3t5efvSjH3H8+HH8fj86nY5arUYgEMButxOLxYjFYnz88ccEg0EOHz6stNt4mN1up729nePHj3Pw4EEcDge1Wo1sNks8Hmdubo6lpSWlRUswGJTEsxBCCCHEnyGNRoPT6cTpdKLRaMjn82xsbCiDrGu1GqVSie3tbVwuF11dXbz66qu8/PLL2Gw2tFot9Xodg8FAqVTivffeU4ZqN2eHDA0NEYlEcLvdpFIpLl26hNfrZf/+/bzwwgv09fXtWFM+nyeVSuF0Ounq6tpReKHRaCiVSoRCIbRaLbdu3WJpaYkbN24oPZ+FEOJ5I4lnIcQzU61WyefzZDIZksnkjtfK5TKlUokbN25w6dIlbty4QS6Xo6enh+7u7h3D6+BBX+BAIMCRI0f41a9+hclkwmAwoFKplP7Ns7OznDt3jo2NDUKhED/5yU8YGRnBZDIpA+t8Ph+9vb0cPXqUcrnMlStXWFlZYXNzE4/HQ6lUUvqvWa1W/H4/wWAQrVarXKc5OKRSqTA/P4/D4UCj0aBSqVhfX2diYoL5+XlqtRpHjhxhZGSErq4upU2IRqOhtbWVv/iLv2B9fZ2zZ88SjUYZHR2lr69vR6JTq9Wyf/9+Tp48yf79+wmFQspnMZvNDAwMEIvF+Oyzz8hmsywtLdHf3/+1fk6NRgO1Ws3g4CAmkwm73U4kElFaTTTZ7XYOHDjAxMSE0pJieXn5kS8Vvq3t7W3Gx8eZmpoikUiwb98+Tp06xb59+5Skc/M+7tmzB51Ox8TEBJ999hm3b9/m0KFD5HK5x/Zn3rdvH7/85S+JRCLKQ0bzoSMSiTA4OEgqlaJQKJBIJNje3v7KCXMhhBBCCPHDoVarMZvNmM1mpW1GLpejUqkADwplAoEAb7zxBnq9npaWFgYGBrDb7Ursr1ariUQivPTSS9y4cYNoNEo8Hlf6QH9doVCIY8eOKdXYw8PDtLS0KPG/Xq9n9+7dxONxLBYLmUyG+fn5b3w9IYR41iTxLIR4ZjY2Nrh48SLLy8tcunRpx2u1Wo1KpcLc3BzRaJR6vc7u3bt57bXX2L9/v5LobdJqtVitVtxuNz6fb8e5mhUJa2trTE5OUq/XcTqdaLVa8vk8xWJxx7maSUm9Xk+xWCSZTLK+vo7VasVoNOL3+1lfX2d9fZ3x8XEuXLhAMBjE4/Fgt9uxWCx0dHTw8ssvs3v3bjweD+FwGLVaTSKRYHZ2llQqhUqlwuv1YjAY2NzcVAJGQOlhrdfrMZvNpNNpVlZWKBaLOxLParUap9OJ3+/HbrdjMBh23BOXy4XH41EqgJtDB78OlUqFVqult7eXlpYWTCYTRqORdDpNPB5XJnY3eyFns1kajQaVSkXpEf00FQoFotEosViMSqVCKBRi3759+Hy+HRPGVSoVZrOZlpYWent7mZ+fVwYwrqysPNK2BB4kz4PBoFKl0jxPc8CM3W5Hq9UqX5qUy+Wn+tmEEEIIIcTzQ61Wo1arlTkztVqNRqOhxMctLS288MILaLVaJUG9srJCqVRSYuBUKsX29jaVSoV6vU65XP7a8XhTc+eeXq9Xdn+ura2Rz+dpNBrKcYlEgkqlQrVapVAofOPrCSHEsyaJZyHEM7OyskIsFvvCY1QqFSaTif379/Piiy/yy1/+ko6OjkcGumk0GoxG42PbHjQnSm9ubrKwsEBXVxdWq5WNjQ1mZ2cfOf7hAR4A6XSa9fV1wuEwNpuNvr4+lpeXmZyc5Pz582QyGY4ePcrg4CDd3d1YLBYcDgcvvfTSI+vc3Nxkfn6ebDaLRqNBr9eTy+W4f//+Y4fUFQoFrFYrhUKBjY0NSqXSIxW2er0eg8GwI3HdvHcPV2l8U83hjpFIhHq9Tq1WIx6PK4MPM5kMAJVKhVwux9LS0o7A92krFAosLS2RSCRoNBoEAgF6e3ufWHlsMBjo6elRWnw027c87niNRvPYe9l8rfmFx7d9aBBCCCGEED9czfi4paUFn89HtVqlWCwyNzfHysoK6XRaKVDI5/PE43G2tra+9XWDwSDBYJBGo0E2m1WKMeLx+I5ij+npafL5/Le+nhBCPGuSeBZCPDNer5euri5aWlpwu907Xmsm+VwuFz6fj7a2Nrq7u2lpadnRYuOrqFarbG9vUyqVqNfrbGxscOvWLVKpFFar9ZHji8UiqVSK1dVVGo2GkrhuJjnfeOMNLBYLNpuNdDrNrVu3iEajuFwuHA4HwWCQcDhMf3+/MgykWZHwcBXw5uYm7733HpcuXdrRsuJhCwsLbG9vK9XZT7t6+Kuq1+skEgnm5+e5fPkyMzMzrK6uKkF3M7ldLBafeeK5Wq2SyWTI5XI0Gg2l/ceTei2r1Wr0er3SyqRZ+VGr1R6b7BdCCCGEEKI55yOTyVCr1dDr9Y/EnFtbW6yurnLz5k1u3LhBPB4nm81iMBgwGAwYjUbK5TJbW1uk0+lvHXvmcjlSqZTSQm5lZUVJMFssFqWV3OrqKvl8fsduQCGEeB5J4lkI8cy4XC6GhobYs2cPXV1dO17TarXo9XqCwSCBQACbzbZjmODXUavVKBaLSnVquVwmmUxSqVS+cDCcXq8nEong8/kwmUxoNBrcbjeHDx9Wgslr164xOTnJwsICk5OTVKtVPB4Pra2tHDlyhEOHDjE0NERLSwsGg4FarUa5XFYGDS4vL7OxsfHYQXdNwWAQp9OJx+P5XoLHZtuMubk5Lly4wB//+EeWl5dRqVR4PB48Hg/1eh2dTkepVFL63j0r9XqdYrGotPhoDpB8UiDfTI43v7B4+GfwRfddCCGEEEL831Wr1UilUqRSKWq1GjabTRlw3ixO2djY4Nq1a5w5c4aPPvoIrVaLxWLB5/PhdDqVApZm4cnXLaD5vI2NDcbGxvjf//1fLl26RK1Ww2Kx4Ha7dxRVNAtuhBDieSeJZyHEM2OxWOjs7GRwcPCRKcvNvrpGoxGDwfCFCeIv0+zBplar0Wg0dHR0MDg4yPHjx2lpafnS93d0dNDe3o7NZlPW1d3djcPh4OjRoyQSCVZXV1lZWWF5eZloNMrS0hKrq6uMjo7yi1/8gkOHDtHT07PjvG1tbfzlX/6l0vrjiyog9Hq9ktDO5XLf+F58E81qjw8//JD333+fVCrF0NAQb775JqFQCLfbjU6nUyqR3333Xe7evfvM1qNWq5Xhkc31lctldDrdYxPJjUaDarWqfPHQHDwohBBCCCHEk1SrVeLxOPF4nEqlgsPhUJ4B6vU6+Xyee/fu8bvf/Y54PK7sjBweHsblcmE0GtFqtWxvb7O0tEQmk2FpaelbrenWrVv89re/VQaYnzp1ioGBAcLh8I5npps3bzI3N8f29vbTuBVCCPHMSOJZCPHMNLereb1egsHgM7uOVqtVBuI1Wy74fD5GRkbo7u7+0vc33wcPttM1W194PB5CoRCNRoONjQ3W1taIxWJMTExw9+5drl27xs2bN+ns7MTj8dDV1YXBYMBqtaLT6bBYLOzatYuDBw8SCoW+MPGsVquVCorvOvFcKBRIJBJMTk4yOztLe3s7g4ODvPrqq/j9fqVdSXMQ482bN59pCwudTofL5VK+CMhms2xubuJ2ux/bsqRWqyk/t3q9jsFgwOFwoNfrv7fWJUIIIYQQ4vnVTCxPTU0xPT1NpVLB6/Wye/duXC4X1WpVaUM3OjqKy+XiwIEDHD16lBdffBGTyaRUN6dSKcxmM3a7/Ruvp1loMT8/z9WrV7FarQwMDHDs2DGGh4fx+Xw7ZpRks1lMJpMknoUQzz1JPAshfvC0Wi02mw2bzaYEYMlkEpPJhMfj+dL3N4fJZbNZ1tbWmJmZwWw2EwgElDYYwWAQn8/H7t27OXDgAC+++CL/+I//yOXLlxkbGyMSifCjH/0Im82G3+/HaDRSrVaVJLLb7f5KAwC/zZDAb2p7e5uVlRVSqRRqtZq+vj52796N3+9X+sh9lwwGA36/H6fTCTwY2Li0tITRaHxs4rlSqbC2tkY8HqdarWKz2QgGg1gslqcy5EUIIYQQQvx5ae7kaxaSlMtl/H4/Q0NDeDweyuUyKysrSo/l3bt3MzIyQkdHBxaLZUcRRrMtx7eZgVIul0mn0yQSCVKpFJFIhL179xKJRPB4PN/LM4IQQjwNkngWQvzgqVQqVCoVgUCAgYEBYrEYy8vL3L17F6vVSmdn547WC6VSiXQ6rRzX399PW1sbjUaD1dVV3n//fTQaDe3t7bz++us4HA50Op2yta3RaLC9vY3BYFDaPDQra4PBIAMDA1y4cIFoNMqVK1dwu9309PRgNBp3nKNer7OwsMD09DR+vx+fz4fX633q96bZhgQeVHfUarUdgXGj0dgxZLFQKFCpVNBoNMr7Go0GmUyG0dFRotHoVwqsm+f8uv3nrFYre/bs4d69e+j1emZmZrhw4QI2mw2Hw4FGo1GC/VQqRTQaZWxsjLW1NbxeL+FwmGAwiMlkksSzEEJ8xzQaFa1+Aw6bFqNBEiVCiOdLqVQil8sxOjrK9evXuX37NtVqleHhYfbu3YvX68VoNFIoFJQYudFoUC6XyeVy1Gq1HfFxrVZjdnaWixcvsrGx8cTrajQa5Xmk+fzwcIzcfJ6BB0UV+XxeGSr48HNMpVIhGo0yMTGhvC6EEM8zSTwLIf5stLa2cujQIc6cOcPS0hIXL15Uhn/o9XolmEun08zOznLjxg0uXrzIr3/9awKBAACJRIIPP/yQQqFAa2srra2t9PT0oNVqlfcXCgXy+TzVavWRfsShUIh9+/bh9/uZmJjgs88+U9p+uFwupW1Fczvd3bt3+eMf/8jw8DBDQ0NPvcJYrVbv6I1cLpcpFAoUi0UluazRaNDr9Wi1Wmq1GolEgkQiQT6fVz5zrVZjbW2Ny5cvMzU19cRkcrNHtkqlUoYWlkolSqUSRqMRtVr9pRUbNpuNwcFB7ty5g8ViYXZ2lvPnz9Pf308oFFLO02g0iMVi3Lt3j7t377KxsUF3dzednZ1fqbe3EEKIp0+nVdHdaqRYrmOSxLMQ4ntSr9epVCoUi0UApWginU6zvr7O2bNnef/991lcXCQUCnHixAkOHDiAzWYDHiSom8PG1Wo1W1tbLC0tkUqllHM24/mxsTHOnj3L6uoqWq12R8Ia/lQI0nyeaBZ6FItFyuWyEqc3ezhrNBrS6TRra2uk02ny+bxy3lwux61bt7h+/Trb29tKzC2EEM8rSTwLIf5s9PT08MYbb5BIJLh69SpXrlxhfX2du3fv4nK5sFgslEolNjY2mJqaYmtri1qtRqVSUXpDd3Z28tZbb3H9+nWmp6f593//d8bHx5X2GY1Gg6WlJWZmZpiamsLr9XLkyBEGBgaUgLKlpYWTJ0+iUqm4evUqn3zyCZlMhq6uLoLBIGq1mmw2y+rqKvfv32dmZoa2trZnck/MZjPt7e14PB7q9TrXr1+nWq3S09PD3r17OXjwIAaDgY6ODiKRCFNTUywuLvLuu++yvr6O1+vFbDazvr5OLBZjfn6epaUlGo0GpVKJfD6/o4+y1WolHA7jcDgolUrcuXOHWq1GOp2mt7eX7u5uJcn/JFqtFqvVyuDgIL/61a+4ffs29+7d4ze/+Q2XL18mHA6j0WioVCpMTk4yNTXFxsYGkUiEt99+m6GhoWdyL4UQQnw5rUZFpM1IrQYmoySehRDfvVwuRywW44MPPlCqkCuVCtvb26RSKTY3N1lcXCSTyXDw4EGOHDnCa6+9RiQSUc6h1+tpa2uju7ubcDhMOp3m3LlzZDIZLly4gMViIZ/Ps76+ztzcHAsLC+RyOcxmM6lUakfvZa1Wi8/no6WlBb1eTzQa5Y9//CMrKytMT0/T19dHMBjEZrPR1dXF8PAw8Xic69ev80//9E9EIhFaWlrIZDLE43FmZ2eJRqNKYUcul6NSqXzn91kIIb4KSTwLIZ4qvV6PxWLB6XTicDiUac/flEajwWaz4XK5sNvtGI3GJx4bCAQwm83Mzc2RzWaZnJxkYmKCtbU1HA4HFouFSqXC1tYWq6ureDweent7sdvtSjuK1tZWXnvtNWq1mpIYXllZUfodN9txrK6uYrFY2L17N4cOHaK7u1tpTeFwOBgZGaFer5NMJllcXOT8+fPMzMzg9/tRq9Xk83nW1taoVCrodDrMZjNWq1VZh16vx2az4Xa7sVgs6HS6xw70U6lUGAwGnE4nFosFk8mktPMAMJlMtLW10dHRQSgUIh6Pc/HiRZaWlqhUKkQiEUKhED6fj8HBQZaWlhgfH2d+fp6NjQ08Hg82m41EIkGpVMJqtWK32/H5fJhMph3VHM3rtbS00N7eTjAYJJ1OMzo6SqFQIJfLYTKZsNvtaDQa5b/dbjdms1mplFar1RgMBnp6evjxj3+sJK7Hx8dZWFggFAopiefl5WW2trbw+XwcPnyYEydO0NnZqaynWZFut9vxeDw7rvN5zYGQTqcTu92uVLgIIYT46jQaFX63/vtehhDi/yCtVqvE/I1Gg9nZWVKpFPCnVnv5fJ5isYjVaqW9vZ2XXnqJ48ePs2/fPqXaGR7EhV6vl56eHoaHhxkdHWVpaYkrV64wNTWF3W6nVCqRSCQwm8243W6KxaKyg7BarSrn0mg0eDweWltb6ejoYHFxUYmPt7a2MJlMOJ1O3G63Mjfm0qVLzM7OcuHCBe7du0c4HCaTyZBKpZRnDp/PpxS+wIOq7mc5AFwIIb4Jzd///d///fe9CCHEn49UKkU+n6fRaNDe3s7g4CDhcBi32/2NzlcsFolGoxiNRiKRCIODg/T29j72WLVajVarJRAI0N3djcvlwmQyUSqVyGQyJBIJVCoVHo+HvXv3cvLkSX7xi1/Q19enDAnR6/V4vV4lODSbzZTLZba2tkilUmSzWSwWC5FIhFOnTvHWW2+xb98+vF6vsn1OrVZjsVjwer10dnbi9XqV/snJZJJsNguA3+/n6NGj/PznP+fYsWN0d3djNpuVvm7ZbBaVSsXBgwfp6enB7/crLT2aqtUqW1tbxONxwuEw/f39yjXhQaBrsVh2BL/5fJ56vY7f7+fgwYNKktXtdtPa2qpM6W5u/yuVSrS0tDA8PMwvfvELdu3ahVqtxu/309LSwv79+/H7/cCfthI2Gg1sNhuVSoVKpUK5XCYYDNLT04PX60Wn07G5uUmtVsNoNCpV4w9/UaHX65XqkLa2NgwGA5VKhc3NTba3tymXywQCAYaHh/nZz37Ga6+9Rnd3N1arVdmyWCwWv/Q6n//drdVqtLa2cuDAAQKBwI6HECGEEEII8XzKZrMsLCxgNBoJBoO43W5sNptS4NFM7B46dIi33nqLn/3sZ4yMjCjx48MFB82Y3mw209nZidvtVoo78vk8lUoFi8VCT08PJ0+e5Cc/+QlGoxGLxUIwGGTXrl309/crBQ86nU4pLtFoNGQyGeBBgnv37t2Ew2FlnklHRwdmsxm9Xr+jv7TJZFJ2Z7700ku43W5lV2fzeeHhXtFCCPE8kIpnIcRTo1Kp8Pv97Nu3D6fTiclkoru7G4fD8Y3PabFYGBkZIRKJYLfb6erq+sLrN7fFNYPM7u5ulpaW2NraolAo4HA4lAF0PT099Pf37xhWZzAY8Pl8DAwM4HQ6aWtrY2FhgXQ6rfRgc7lctLS0MDAwQFdXlzJ8sEmtVmOz2dDpdFitVrxeL4FAgGQyqfRis1gseDweenp62L17txI0woOq4VAoxKFDh/D7/ezatQu/349er3/s5w2FQrz66qvodDra29txuVzKMc22Ff39/VSrVXp7e1lfX0ej0dDf34/NZkOr1aLRaJSks8FgoLu7m5WVFSqVijK4sbu7m/3797O5uYnT6aRer2O1Wndcrxlc9/f3K/cyHo9Tq9UYGBjA7/djMpnQaDT09vZiNpvp6elhYGBASXg3mUwmTCaTMuglGAyyuLhIIpGg0Wig0+kIBAK0tbUxMDBAIBDAZDLteGgwm81fep2m5s/dZrOh1+tpbW1VfiZCCCGEEOL55nQ6eemll+jr63vktWZCtrmjsL29nVAo9Mhuwc+/x+VysXfvXgwGA16vl1gsRjqdVq4XDAbZs2cP7e3tGAwGYrGYkiBuxqQPx+wvvviiUpwC4HK5aG1tVRLfzZkw1WoVr9fL4uIiW1tbVKtVnE4ngUCA/fv3K+3tEokE2WyWjo6OZ3RXhRDi21E1pBO9EOIpqlar1Go1arWaUv3a3A72TdTrdcrlsjJBWqvVPjE4/Pz7KpWKstWt2RJCpVIpA/W+6Fz1el3p/1yr1ajX68r7mwPydDqdUuX8uMqCRqOhVDpXKhXq9Tr1el05/uHP83D7h+aE7Oa9bN7DhxPkD1+jOdjk4c/28PRrQFlD85zNn01zUF9zMEnzvjWPa3p4CGHzZwJ/avXx+es119+8f/CgouPhQYcP/67odLodAyC/6s+iua7meR93f5rv+7LrPHzPH65MkXYbQgghhBDPv3q9TqlU2hHDfl4ztns4tv6yCuFmPPlwPA8osWjzmaD5zNKMsz9fNPLwc0FzN2KzxVyz3d7D12vGpc3Yt7nuZoxarVaV9ej1+ie25hNCiO+TJJ6FEEIIIYQQQgghhBBCPFVSxiWEEEIIIYQQQgghhBDiqZLEsxBCCCGEEEIIIYQQQoinShLPQgghhBBCCCGEEEIIIZ4qSTwLIYQQQgghhBBCCCGEeKok8SyEEEIIIYQQQgghhBDiqZLEsxBCCCGEEEIIIYQQQoinShLPQgghhBBCCCGEEEIIIZ4qSTwLIYQQQgghhBBCCCGEeKok8SyEEEIIIYQQQgghhBDiqZLEsxBCCCGEEEIIIYQQQoinShLPQgghhBBCCCGEEEIIIZ4q7fe9ACGEeF41Gg0SiQRra2vMzs6iVqsJh8OEw2ECgcD3vTwhhBBCCCH+TymXyyQSCZaXl5mbm8PpdNLa2ko4HMblcn3fyxNCCPE5kngWQognaDQaLC0tcfHiRX7/+9+j0Wh45ZVXOHHihCSehRBCCCGE+I4Vi0VmZmY4d+4cv//97+nr61Pic0k8CyHE80cSz0II8QWq1SqFQoFMJoNGoyGXy1GpVL7vZQkhhBBCCPF/TqPRoFKpkMvlSCaTbG1tUSgUqNVq3/fShBBCPIYknoUQ4gvUajXK5TLZbBatVkupVJLAVgghhBBCiO9Bo9GgWq1SLBbJZrPk83nK5bLE50II8ZyS4YJCCCGEEEIIIYQQQgghniqpeBZCiO9QrVYjm82Sy+XIZrNKhYbBYMBsNuN0OjGZTGi1WlQqFY1Gg1KpRKFQoFAooNVqMZvNGAwGdDrdY6+RyWTIZrMAGI1GHA4HWu2f/tzX63WKxSK5XI6trS2littgMGCxWHA6nRiNRjQazY7zVioVtre3qVQq1Ot1LBYLOp2OZDKpfBaPx0MoFHp2N1AIIYQQQoinqNm6I5vNks1mqVarNBoNJTZ2OBw7Yu9arbYjPjcajZhMJgwGw46Yu6lWq5HJZCgWizQaDSXefli1WqVcLrO9vU0mk6FcLgMPYnmr1YrD4UCn0z1y/kKhQDabpVaroVKpsFqt1Ot1kskkhUKBcrlMIBDA7Xaj0WhQqVTP6C4KIcTjSeJZCCG+Q5VKhZWVFWZnZ5mbmyOdTlMoFPB6vbS2tjI0NEQ4HMZqtSqJ51Qqxfr6OrFYDJPJRHt7O16vF4fD8dhrNKd8A7S0tLB3794dQWqlUmFzc5NoNMq9e/dIJpPkcjlaWlro6OhgaGiIlpYWjEbjjuA0n88zNzenBMNdXV3Y7XZu3LjB7Ows6XSaI0eOSOJZCCGEEEL8YOTzeRYXF5mbm2NmZkZJ5Pp8Pjo7O9mzZw8+n0+JvSuVColEgtXVVWKxGC0tLYTDYbxeL1ar9ZHzl8tl5ubmWF9fp1qt0tXV9UjiuVwuk0wmmZycZGJignQ6Tb1eJxAI0NPTw549e3A6nY8kntPpNDMzM5RKJdRqNd3d3ZTLZW7cuEEsFiOVSnHy5EmGh4cxGo2PTYwLIcSzJH91hBDiGWs0Gt9qxxQAABqWSURBVDQaDcbGxhgdHWViYoKVlRW2t7ep1Wo0Gg3gQUXDzZs32bt3LyMjI/j9fiwWC8VikeXlZc6ePYtWq2Xv3r0MDw8/knhuVl5cvnyZTz/9lJaWFoaGhujt7cVsNtNoNFhaWmJmZoYbN24wNzdHPB6nVCpRrVYxGAw4nU5u3rzJ0NAQhw8fxuVyYbFYgAeB7fXr14lGo2QyGQKBAGazmfHxcVZWVsjn8zJNXAghhBBCPPcajQa5XI7x8XHGx8eZmJhgY2ODra0tJXZXqVQ4HA4uX77M8PAwhw4dwuPxoFarKZVKzMzM8MEHH9DW1sbg4CAjIyOPJJ5LpRLr6+ucO3eOmZkZ3G43Wq2Wffv2AVAsFllcXGRycpLbt2+ztLREPB6nXC7TaDQwGo34fD7a29s5cuQIBw4cwG63YzQaAVhdXeWTTz4hlUpRLpcJh8OUSiXGx8fZ3Nwkn8/T09PDwMAAer3+O7/PQgghiWchhHjG6vU6lUqFS5cu8V//9V9MTEyQz+fxer3YbDbMZjMrKytsbm4CcOzYMcxmMwcOHMBisVCtVllfX+fMmTOUy2XW19fxeDwMDg7uuE6hUCAej3PhwgX++7//m/379+NwOJTAtVarMTk5yZkzZ3j33XdZXl7GbDZjNpvR6/Wk02mKxSIGg4HXXnsNp9NJX1/fjsTztWvXuHnzJmtra0pLkEQiQaFQUNYuhBBCCCHE86xWq5FKpTh79iwffPABd+/eRa1W43a7sdvtqNVqYrEY2WyWer3O22+/jcViYXBwELfbTb1eJxqN8oc//IHOzk42Nzfp6uqis7Nzx3Xy+TzLy8t88MEHjI6Osm/fPnp6eoAHye/t7W1u3brF//t//493332XcrmM2WzGZDIBD+LvarWKTqfjb/7mb3C73XR3d+9IPH/88cesrKyQTqex2WxUq1Xi8TiVSgW1Ws3q6irlcpl6vf7d3mQhhEASz0II8cytrKwwPj7OlStXWFpaYmBggP7+fg4cOKD0X15dXWV6epozZ86wsrLC//zP/6DVaunq6lJaYLS0tDA/P8/4+Djr6+vU63VUKpXSDiOVSjExMcHm5iYGg4H+/n76+/sxGAwkk0lWVlY4d+4cn376KXa7nR//+Me8+OKLyra9eDzO/fv3+fjjj5mbm+M///M/+fnPf/5I64xm/zmn00lXVxdvvvkmLS0taLVaDh069H3cYiGEEEIIIb6y2dlZbt68ydWrV8lkMhw7doy9e/eyf/9+9Ho9tVqN1dVVbt26xZkzZ5iamuKdd97BZrMRCATw+/2Ew2ECgQDZbFaJwavV6o5eymtra9y/f5/t7W0cDgeDg4O0tbXRaDRYXV1lfHyc06dPc+/ePTo7Ozl48CAvvPACBoNBSSDfuXOH8+fPc/PmTTQaDX/913+Nx+PZ8XmKxSL5fB6/308kEqGnpwebzYZOp+P48ePY7XZpsyGE+F7IXx4hhHjGtra2mJ+fJ5PJYDabOXLkCCdOnGBkZASbzUaj0SCZTHLnzh1mZma4e/cun332GUNDQ8oWv2AwSFtbGysrKywsLLC2tsb29jZms1kZdJJMJhkbGyOZTGIymejp6aGnpweDwcD8/Dw3btzg2rVrzM/P88orr/DGG2/w05/+FKfTiUqlYmNjg1u3brG8vMzk5CTnz59nz549vPzyyzsGGdbrdUqlEn6/n8OHD/Pyyy/T3d2NXq9/bF87IYQQQgghniepVIrl5WVyuRwej4eXX36Zl19+maNHjwJ/monidDq5c+eOsqvw9ddfR6vV4nQ6CQaDdHZ2cv/+faLRKPF4nGw2i9VqVZK8q6urTE1Nsb29jd1uZ8+ePbS2tgKwtLTEzZs3uXbtGpVKhRMnTvDWW29x6tQptFotlUqFjY0NXC4X09PTrK6ucu7cOY4dO8bg4OCO1hnN4d9tbW0cPXqUH/3oR3i9XnQ6HTabDZPJhFqt/u5vtBDi/zxJPAshxDNmt9vp6uri1Vdf5ciRIxw/fpze3l5lC51KpcJmsxEKhYhEIiwvLzM/P8/29rZyDovFwp49e4jFYqysrLC2tkY0GqW9vV3pq5xMJhkdHSWVSmG1Wuno6KCtrQ29Xs/CwgIffPABa2trtLS08MYbb/DKK69gs9mUILRZwTwyMkKhUODq1assLy+zurqKz+dT1qLRaDCZTBw7doxf//rX+Hw+LBYLarVaKimEEEIIIcRzz+l0smvXLtRqNSaTiRdeeIH29nbldY1Gg8vloq2tjf7+fiX5XCwWlWM8Hg8HDhwgk8kwOzvL0tISCwsL9PT0KDFxLBZjYmKCXC5HOBymv7+fUChEo9FgamqKK1eukM1m6e/v5+2331aGgqtUKnQ6HV6vl/7+fk6cOMGnn37KwsICy8vLrK2tEQgEdnwmq9XKq6++yqlTp/D7/RgMBtRqNRqNBrVavWNouBBCfFckQyCEEM+Y3W6nu7sbn89HtVpVWlcsLy9TLpcpl8vAg614lUqFRqNBoVCgUqko52gmnmdnZ7l48SKxWIx79+7hcDhwOBxUq1USiQRTU1MAtLe34/f7sdvtqFQq4vE4t2/fJpfLEQqFMJlMVKtVVlZWdqx1a2sLo9GIwWCgUCiwubnJ2trajkpmrVaLyWQiHA6za9cuJZgVQgghhBDih8DtdtPb20sgEECn0xEIBCiXy8zNzVEul6lWqwCsr68rs1IKhYLy/+FB4vngwYNMTU0xMTFBNBpldnaW1tZWTCYT9Xqd1dVVotEoZrOZ1tZWAoEANpsNePAsMD09TbVaxWKxYDabyefzLCws7FhrqVTC5XKh1+vJ5/NsbGywsbHxSLsNnU5He3s7XV1d6HQ6STQLIZ4LkngWQohnzG63Y7FYlCGDm5ubzM/Ps7S0RDKZJJPJAJDJZJibm2Nra+uR4R9Wq5WBgQHGx8fRaDTEYjHu3r1Lf38/4XCYQqHAxsYGc3Nz9Pf3s2fPHtxuN2q1mkajQTqdZmFhAZfLhU6nY35+HuCRgHR7e5u1tTXy+bwy8CQejytbAuFPiWeDwaBUZAghhBBCCPFD4fF4cLlc1Ot1CoWC0npjcXGRTCZDLpcDHsxqWV5eJpvNPvYcBw4c4KOPPqJarRKNRpmZmeHIkSM4HA5KpRLr6+vEYjEGBwfZtWsXVqsVjUZDvV5nY2ODlZUVbDYb5XKZqakpVldXH4mtk8kkW1tbyoDATCZDKpXakQQHlCppSToLIZ4nkngWQojvQKPRYHR0lNHRUWZnZ9nY2FC26jWrhfP5PPF4XEn6Pkyn0+Hz+QiHw7S2tpLL5RgfHyeVSpHL5VhYWCAWi1EqlQiFQuzbtw+Hw0GtViOfz5PL5SiVSmxvb7O0tMSZM2dwOp2PrLNcLpNKpVhdXaVarSrJ8s8nwpvb9SSoFUIIIYQQP0TZbJbbt28zOTnJ3Nwc6XSaXC6HVqtFo9EAsLm5STKZ3NFio8loNNLS0kI4HMbv97OxscH9+/fJZrNsbm6ysrJCPB4HoLOzk0gkgtFopF6vUy6XKZVKStw/PT3NO++8g8FgeOQ6xWKR7e1tlpeXgQfzVj4fmz9M4nMhxPNEEs9CCPGMNRO+n376KX/4wx+Yn5+nVCrh8XjweDy43W7gQVDZ3ML3+cSzVqvFbrcTCATo7u5mbm6O6elpkskk6XSa6elpYrGYMlRkcHBQacGRzWYpFovU63Xy+TyVSoVUKqUE1E9it9sxm83SSkMIIYQQQvxZKRQKxGIxTp8+zUcffcTc3BwajQaHw4Hf71dmqGxtbVEsFh+pLgbQ6/Xo9XrC4TDt7e1Eo1FloHi5XGZsbIyNjQ30ej1dXV10d3djMBiUwo7mP/V6naWlJdbX17805nY4HMpwcUkwCyF+CCTxLIQQz9jCwgIXL17k4sWLrK2tMTIywsDAAL29vTgcDqWyIZFIcPbsWa5du7ZjsODD3G43Q0NDpNNpotEoy8vL2Gw2xsbGWF9fx2KxEAwG6ejowGw2o1arMRqNSnAaCoXYtWsXR44cIRgMfunaI5GIss5kMvlU74sQQgghhBDfh4mJCS5cuMC1a9eoVCq8+eab7N69m76+PkwmE3q9HoDp6Wk+/PBD7t69y9ra2mPP1draysGDB9nc3FRa56lUKsbGxtje3sbhcNDZ2UlbWxs6nQ6NRoPBYFD+HQ6HGRgYYGRkBIvF8oXr1uv19Pf309XVhdFofOr3RQghnjZJPAshxDMWi8X4+OOPmZqaolwuMzw8zBtvvKEEtk0rKyvMz88zMzPzxGqHZi+5e/fuKUNMarUaY2NjpNNpgsEgwWAQr9eLWq2mVqthNBoxGo3o9XqsVivhcJjXX3+dPXv2fOnajUYjJpMJnU731O6HEEIIIYQQ36e5uTkuX75MNBrF7/dz4sQJjh49yu7du3cc53Q6mZqaYn5+/omJ53A4zL59+7h27RqJRILp6Wml4rlcLhMMBgmFQni9XjQaDSqVCq1Wi16vx2g0YrPZ6O3t5ac//amyE/JJ1Gq1MmtF4nMhxA+BJJ6FEOIZS6VS3Lt3j0KhgN/vZ/fu3fT09DzSw63RaHxpz7aHh5jUajXu37/P+vo6Y2NjWK1WDhw4gN/vV3owazQaJaB1Op3k83kSiQQ6nQ6Xy/WlfZrVarVyLiGEEEIIIf4cxONxotEo8KBi+cCBA3R0dDxyXDM+/3wbvIf5/X5lsPfS0hLj4+Nsb28zPj5Oe3s7u3fvxuVyKUnnJovFgtVqZWtri2w2i8ViweVyfWm7jWZ8Lq3whBA/BPKXSgghnrFqtUqxWFR6uD0u2ZvJZIjFYiwtLbGxsUGtVnvsuUwmE4FAgHA4jM/nY3V1lbGxMdbW1jCbzUriuXn+ZvLZ5/OxZ88e9Ho9a2tr3L9/n5WVFdRqtdKfTq/Xo1Kp2N7eZm5ujosXL7KwsECtVvvCYFsIIYQQQogfklqtRrlcplKpUKvVHonPq9UqyWSSWCzG4uIiqVRK+f/lcnlHoYjValXic5PJxMzMDNPT0yQSCdxuNwMDAzidzh3nV6lUhMNhIpEItVqNpaUlxsbGiMfjO2JzvV5PvV4nk8kwNTXFlStXWF9ff+xMGCGEeB5J4lkIIZ4xrVaLyWSiVquRTqfZ2NggnU4ryeVGo8H6+jqTk5OMjo6ysLDw2AEmADqdDovFQjgcpquri42NDaampshms7hcLg4ePIjf73/kfcFgkKNHj2K324nFYnz22WfcvHmTUqm047hiscjS0hIXLlzgX//1X7l69SqFQuGJiXAhhBBCCCF+aAwGAyaTiXK5TCqVYn19nUwmo7xeLpdZXl5W4vO1tTUajYYyDPzhxLNer8dut9PZ2YnX6yUajRKNRikWiwSDQWXo98NUKhWRSIShoSG0Wi0zMzO8//77TExMPLLWbDbL/Pw8Z86c4be//S0TExMSnwshfjCk1YYQQnxFiUSCq1evkslkuHbt2hOPU6lUmEwmOjo6OH78OKFQiBMnTnD+/HlmZ2d55513mJmZIRQKodVqqVQqzM/PMzs7u2OadT6fJ5lMYrFYdrTlaA4JHBwcZHV1lbW1NSwWC36/n0gk8khgC9DR0cHJkyeJx+PkcjnGxsbI5XLMzs7i8/mw2+0Ui0WSySTT09PKcZVKBZ1OJ1v5hBBCCCHEc2d5eZmPP/6Y9fX1LxycrdFoMJlMDA4O8uKLL9Ld3c2RI0eUgd2/+c1v6OnpobW1lVqtxvb2NvPz89y/f59isYharabRaFAqlSgUChiNRrTaP6VT9Ho9PT099Pf3Mzs7i1arxWg00traSiQSwWq1PrKmvr4+8vk8sViM+/fvc/XqVXK5HFNTUzidToxGI+VymVgsxvT0NKlUCo1GQ71eVwaHCyHE804Sz0II8QXUajU6nQ6TycTa2hpTU1MsLi7yySefPPE9Go0Gh8PB0aNH2bt3L+FwmBMnTijDAy9evMjo6CjBYBC1Wk2lUiGZTFIoFDCZTHg8HlQqFbVajWQyiVarfaQfdCgUYu/evVy9ehWdTofH4yEUCtHa2rojCG4KBoP4fD7u37/P2toa9+7dIxaLce/ePQKBAC0tLeRyOZLJJAsLC1itVnbt2oXZbEav1yt95PR6PSaTCZPJ9NjrCCGEEEII8SxpNBolJk2n09y9e5fp6ekvHLZnMBhwOBy8/fbbHDt2jEgkwtGjR5menubmzZucPn0ar9dLOBymUqlQKBRIJBLU63VsNhuA0pajUCg8Uuih0+mIRCL09/dz7tw5TCYTPp+PcDhMOBx+ZD0qlYrOzk70ej0LCwsUCgVu375NIpFgdHSUUCiEzWajUCiwtrbG/Pw8ra2tDA4OYjQalcKQ5jwXk8mERqNBo9E83ZsthBDfkmQNhBDiC1itVkKhEENDQ8ok6maQ9yRqtRqbzUYgEECn0+F0OhkaGiKfzxMOh5meniaZTKJWq9FqtTgcDkZGRvD7/VSrVeLxODMzMwQCAYrF4mO30fn9fvr6+rDb7djtdvbu3UtXV9cTKx+a07NPnDhBMBjk9u3bzM7OEovFAJS+dR6Ph0gkQl9fH8PDw+zatUsZLmg2m+nu7gZga2sLn8/3bW+vEEIIIYQQX1kzdu7s7OTw4cPk83kl4fpFO/T0ej02mw2v1wtAIBDg0KFDVCoV+vv7mZiYoFgsAg+G/gWDQU6ePIndbqfRaBCNRllZWcHhcFAqlR4ZBq7RaJQ+z3q9Ho/Hw9DQEC0tLU9ck0qlwu12c+rUKdrb27l16xYLCwusrq5SqVTIZDKo1Wra29vZu3cvQ0NDHDhwgEgkogwqdDqd9Pf3Y7FYUKvVuFyup3CXhRDi6ZHEsxBCPEEzmItEIpRKJZLJ5Fd+n8lkor29HZPJhMViwWKxcOTIEbxeL52dncRiMYrFolJNvX//ftrb2ykWi6yvrxOJROjq6sJoND42yd1MJKtUKqxWKwMDA3R0dHxh4rnZS87v9+P3+7l//z4zMzPk83kqlYrSn66jo4O+vj4GBgYwGAzKOW02G3v37sXv91MsFmltbf3mN1cIIYQQQoivSavV4vV62b17t9L64qtottro7OxUikQMBgMajQa/309rayvJZJJisYjJZMLr9TI0NITL5aJcLrOwsMDS0hKdnZ0YDIbHJrmbOwRVKhVer5cDBw58aeLZbDbT39+P2+0mEAgwPT3N7OwslUqFRqOBTqfD5/PR3t7OwMDAjqIQAJ/Px+HDh+nu7kalUklhiBDiuaNqyChUIYR4onK5TLlcJp/Pf60BHs22FDabTWlJUS6XlYEklUqFer2OSqVCrVZjNpsxGAzU63UqlQqlUkkZeqLT6R5JPt+7d4+rV6/yL//yL+Tzef7u7/6OY8eO0dPT86X93ppbBIvFIqVSSflcKpVqx9ZFk8m0I6iuVCrkcjmq1Sr1eh2r1YrZbP7K90QIIYQQQohvoxkrN2Pqr5POaMbcVqsVlUpFo9FQ4vN8Pq/EuM1We2azGa1WS71ep1wuUyqVMJvNO1pdNJXLZSYmJjhz5gz//M//zJ49e/jbv/1b9uzZQ3t7+5eurfmZmv80P1ez2KT5XGA0GnfE+sViUYnPVSoVdrsdo9H4Ne6oEEI8W1LxLIQQX0Cv16PX6x87EOSbnstut3/jc9RqNSqVCjMzM1y5coVSqUQgEKCjo0PZOvhlNBoNVqv1a3+mZtsQIYQQQgghvg9qtRqDwaD0bP42VCrVUzlXrVYj+//bu3uWxvYggMNjyElio5XGd1GjgqSRmE7NV7ZLY2mpKCrpbATBRgVNkGAgt9ndcq+XHdYbfJ5P8C8PP+bM9Ptxe3sbvV4vyuVyLC0tRaPR+PS3c1EUURTFr33Sn1Wr1YRm4H9NeAaYIKPRKAaDQfR6vTg7O4tSqfTraImdbgAA8Hf93Md8cXERV1dXUavVYnl5OdbW1qJSqXz18wC+lPAMMAEeHh6i2+3G3d1dvL29xc3NTby+vkan04nj4+M/nvgAAAA+7/r6Orrdbjw9PcXLy0tcXl5GRESn04n9/f3fHjsE+C6EZ4AJ8Pz8HKenp3F+fh79fj/K5XLMzc1Fq9WKdrudsgoEAAD4nPv7+zg5OYnHx8d4f3+Poiii2WzG4eFhNJtN4RkghGeAiTA9PR0bGxvx8fERo9EoNjc3Y29vL9rtdqysrES1Wv3qJwIAwLcxOzsbu7u7sbi4GKVSKXZ2dqLZbEar1Yp6vf6vB78BvgPhGWACzMzMxMHBQayurkZExNbWVjQajZifn//PR0gAAIA/U6/X4+joKIbDYVQqldje3o719fVYWFhw8A/gh6nxeDz+6kcA8Hs/jwqORqOIiKhUKlGtVqNcLvuNDwAA/rLhcBiDwSDG43FMTU1FtVqNoiiiKArTzgA/CM8AAAAAAKQyJgcAAAAAQCrhGQAAAACAVMIzAAAAAACphGcAAAAAAFIJzwAAAAAApBKeAQAAAABIJTwDAAAAAJBKeAYAAAAAIJXwDAAAAABAKuEZAAAAAIBUwjMAAAAAAKmEZwAAAAAAUgnPAAAAAACkEp4BAAAAAEglPAMAAAAAkEp4BgAAAAAglfAMAAAAAEAq4RkAAAAAgFTCMwAAAAAAqYRnAAAAAABSCc8AAAAAAKQSngEAAAAASCU8AwAAAACQSngGAAAAACCV8AwAAAAAQCrhGQAAAACAVMIzAAAAAACphGcAAAAAAFIJzwAAAAAApBKeAQAAAABIJTwDAAAAAJBKeAYAAAAAIJXwDAAAAABAKuEZAAAAAIBUwjMAAAAAAKmEZwAAAAAAUgnPAAAAAACkEp4BAAAAAEglPAMAAAAAkEp4BgAAAAAglfAMAAAAAEAq4RkAAAAAgFTCMwAAAAAAqYRnAAAAAABSCc8AAAAAAKQSngEAAAAASCU8AwAAAACQSngGAAAAACCV8AwAAAAAQCrhGQAAAACAVMIzAAAAAACphGcAAAAAAFIJzwAAAAAApBKeAQAAAABIJTwDAAAAAJBKeAYAAAAAIJXwDAAAAABAKuEZAAAAAIBUwjMAAAAAAKmEZwAAAAAAUgnPAAAAAACkEp4BAAAAAEglPAMAAAAAkEp4BgAAAAAglfAMAAAAAECqfwCcHE4Kp4soAgAAAABJRU5ErkJggg==;" vertex="1" parent="1">
          <mxGeometry x="-143" y="959" width="803.77" height="256" as="geometry" />
        </mxCell>
      </root>
    </mxGraphModel>
  </diagram>
</mxfile>
